<svg xmlns="http://www.w3.org/2000/svg" viewBox="0 0 411.8 244.36"><defs><style>.cls-1{fill:#26377a;}</style></defs><g id="Layer_2" data-name="Layer 2"><g id="Layer_1-2" data-name="Layer 1"><g id="Path_1007" data-name="Path 1007"><path class="cls-1" d="M180.37,244.36l-3.52-.89a.5.5,0,0,1-.36-.61.49.49,0,0,1,.6-.36l3.38.85,1.37-.07a.48.48,0,0,1,.52.48.5.5,0,0,1-.47.52Zm6.48-.33a.5.5,0,0,1,0-1l5-.25a.49.49,0,0,1,.53.48.5.5,0,0,1-.48.52l-5,.25Zm10-.49a.51.51,0,0,1-.5-.48.5.5,0,0,1,.48-.52l5-.25a.49.49,0,0,1,.53.47.51.51,0,0,1-.48.53l-5,.24Zm10.09-.51a.54.54,0,0,1-.55-.47.46.46,0,0,1,.41-.52L211,239.7a.5.5,0,1,1,.49.87L207.07,243h-.14Zm-34.81-.77a.25.25,0,0,1-.12,0l-1.84-.51-2.56-2.09a.5.5,0,0,1-.07-.7.5.5,0,0,1,.71-.07l2.46,2,1.54.39a.5.5,0,0,1,.37.6A.5.5,0,0,1,172.12,242.26Zm44.13-.71-.63-.24a.5.5,0,1,1,.35-.93l.3.11,4.12-1.33a.49.49,0,0,1,.63.32.51.51,0,0,1-.32.63Zm18.51-2.79a.49.49,0,0,1-.49-.42.5.5,0,0,1,.4-.58l4.93-.87a.5.5,0,0,1,.58.4.51.51,0,0,1-.41.58l-4.92.88Zm-9.46-.17a.5.5,0,0,1-.16-1l3.81-1.24,1.26.51a.5.5,0,1,1-.37.93l-.92-.37-3.47,1.12A.4.4,0,0,1,225.3,238.59Zm-61.25-2a.47.47,0,0,1-.31-.12l-.69-.56-1.5-4.12a.5.5,0,0,1,.29-.64.51.51,0,0,1,.65.3l1.4,3.86.48.39a.5.5,0,0,1-.32.89Zm84-1.26a.5.5,0,0,1-.44-.27.49.49,0,0,1,.22-.67l1.72-.86.18-2.38a.5.5,0,0,1,1,.07l-.26,3.44-.59-.18-1.6.8A.46.46,0,0,1,248.1,235.33Zm-6.32-1.78-.19,0a.51.51,0,0,1-.28-.65l1.32-3.36,2.09,2a.5.5,0,0,1,0,.71.5.5,0,0,1-.71,0l-1-.95-.78,2A.48.48,0,0,1,241.78,233.55ZM253.5,228a.54.54,0,0,1-.35-.14.5.5,0,0,1,0-.71l3.44-3.62a.5.5,0,1,1,.72.69l-3.44,3.62A.48.48,0,0,1,253.5,228Zm-93.2-.54a.48.48,0,0,1-.2,0l-4-1.77,0-1.27a.54.54,0,0,1,.52-.48.5.5,0,0,1,.48.52l0,.58,3.42,1.51a.49.49,0,0,1,.26.65A.5.5,0,0,1,160.3,227.42Zm98.92-7.51a.52.52,0,0,1-.21,0,.5.5,0,0,1-.24-.67l.93-2-.43-2.47a.5.5,0,0,1,.41-.57.49.49,0,0,1,.58.4l.48,2.78-1.06,2.26A.51.51,0,0,1,259.22,219.91Zm-102.44,0h0a.49.49,0,0,1-.48-.51l.06-1.83L154.91,215a.5.5,0,1,1,.87-.49l1.57,2.75-.07,2.11A.5.5,0,0,1,156.78,219.86Zm-3.92-8.93a.51.51,0,0,1-.43-.26L150,206.33a.49.49,0,0,1,.18-.68.51.51,0,0,1,.69.19l2.48,4.34a.51.51,0,0,1-.19.68A.55.55,0,0,1,152.86,210.93Zm106.24-.7a.51.51,0,0,1-.5-.48l-.17-3.93,1.43-.85a.49.49,0,0,1,.68.17.5.5,0,0,1-.17.69l-.91.54.14,3.34a.49.49,0,0,1-.47.52ZM146.85,203.1a.51.51,0,0,1-.33-.13l-3.74-3.32a.5.5,0,0,1,0-.71.5.5,0,0,1,.7,0l3.74,3.32a.5.5,0,0,1-.33.88ZM262.1,202a.5.5,0,0,1-.5-.5v-1.11l3.29-2.84a.5.5,0,0,1,.65.76l-2.94,2.53v.66A.5.5,0,0,1,262.1,202Zm-148.22-1-.8-1a.5.5,0,0,1,.09-.7.48.48,0,0,1,.55,0l1.79-3.28a.5.5,0,0,1,.87.49Zm-4.34-.42h-.09l-1.28-.23-1.07-1.4-1-.35-.46.26a.51.51,0,0,1-.69-.18.52.52,0,0,1,.19-.69l.87-.49,1.68.61,1,1.33.9.16a.5.5,0,0,1-.09,1Zm-9.05-1.18a3.55,3.55,0,0,1-.46,0,2.64,2.64,0,0,1-1.76-1.69l-.5-1.17-.62-.42a.5.5,0,0,1-.13-.69.51.51,0,0,1,.7-.14l.86.59.63,1.48a1.61,1.61,0,0,0,1,1.07,1.77,1.77,0,0,1,.24,0h.22a.5.5,0,0,1,.55.45.52.52,0,0,1-.45.55Zm38.88-3a.54.54,0,0,1-.33-.12l-.51-.46-3.77-1.78a.5.5,0,0,1-.24-.67.51.51,0,0,1,.67-.24l3.95,1.9.57.5a.51.51,0,0,1,0,.71A.51.51,0,0,1,139.37,196.45Zm130-.81a.5.5,0,0,1-.43-.24.51.51,0,0,1,.17-.69l1.91-1.14,1.76-1.95a.5.5,0,1,1,.74.67l-1.92,2.1-2,1.18A.48.48,0,0,1,269.33,195.64Zm-175.28-3a.48.48,0,0,1-.41-.21l-.49-.71L90,189.2a.51.51,0,0,1-.08-.71.49.49,0,0,1,.7-.07l3.28,2.64.53.77a.5.5,0,0,1-.41.78Zm24.29-.31a.53.53,0,0,1-.24-.06.5.5,0,0,1-.19-.68l1.44-2.59,1.16-1.16,1.13.72a.5.5,0,0,1-.54.84l-.45-.29-.55.55L118.78,192A.51.51,0,0,1,118.34,192.3Zm12.11-.3a.54.54,0,0,1-.21-.05l-4.52-2.14a.49.49,0,0,1-.24-.66.5.5,0,0,1,.67-.24l4.52,2.14a.5.5,0,0,1,.24.66A.52.52,0,0,1,130.45,192Zm187-2.35a.58.58,0,0,1-.19,0l-1.73-.68-2.71-1.77a.5.5,0,1,1,.55-.84l2.66,1.74,1.6.62a.5.5,0,0,1,.28.64A.49.49,0,0,1,317.42,189.65Zm-40.3-.14a.49.49,0,0,1-.41-.22.51.51,0,0,1,.13-.7l4.16-2.78a.49.49,0,0,1,.69.14.5.5,0,0,1-.14.69l-4.15,2.78A.47.47,0,0,1,277.12,189.51Zm44.78-.9a.5.5,0,0,1-.44-.26.51.51,0,0,1,.21-.68l2.7-1.45.94-1.4a.5.5,0,0,1,.83.56L325.06,187l-2.92,1.56A.5.5,0,0,1,321.9,188.61Zm-236-1.16a.52.52,0,0,1-.29-.09l-3.1-2.21-1-.33a.5.5,0,0,1-.31-.64.5.5,0,0,1,.63-.31l1.19.43,3.16,2.25a.49.49,0,0,1,.12.69A.49.49,0,0,1,85.85,187.45Zm-9.42-1.52-3.38-.1L72,184.74a.5.5,0,1,1,.71-.7l.79.8,2.79.08.47-.16a.5.5,0,0,1,.64.3.51.51,0,0,1-.31.64Zm233.32-2.24a.51.51,0,0,1-.44-.25l-1.55-2.66-1.46-.69a.5.5,0,0,1,.43-.91l1.74.83,1.71,2.93a.5.5,0,0,1-.18.68A.47.47,0,0,1,309.75,183.69ZM281.34,182a.52.52,0,0,1-.5-.45l-.08-.8,1.6-3,1.69-.1a.49.49,0,0,1,.53.48.5.5,0,0,1-.48.52l-1.13.07-1.18,2.2,0,.5a.49.49,0,0,1-.45.54Zm47-.61a.5.5,0,0,1-.5-.5v-2.06l1.95-2.62a.5.5,0,1,1,.8.59l-1.75,2.36v1.73A.5.5,0,0,1,328.38,181.41Zm-259.27-.34a.48.48,0,0,1-.38-.18l-.17-.19-1.74-1.48-1.3-2.17a.5.5,0,1,1,.85-.52l1.27,2.1L69.27,180l.23.27a.5.5,0,0,1-.07.7A.48.48,0,0,1,69.11,181.07ZM300,178.79l-3.05-.91a.51.51,0,0,1-.33-.63.5.5,0,0,1,.62-.33l2.85.85,1.81-.21a.5.5,0,0,1,.11,1Zm-11-.62a.49.49,0,0,1-.37-.82l2.71-3.15,1.39,1.24a.51.51,0,0,1,.05.71.51.51,0,0,1-.71,0l-.63-.57L289.32,178A.52.52,0,0,1,288.94,178.17Zm45.86-2.85a.52.52,0,0,1-.29-.09.51.51,0,0,1-.12-.7l2.87-4.09a.5.5,0,0,1,.82.57l-2.87,4.1A.49.49,0,0,1,334.8,175.32ZM64,173.14a.51.51,0,0,1-.46-.31l-.61-1.44-1.13-.79-.51.12-1-.44a.5.5,0,0,1,.39-.92l.74.31.63-.14,1.73,1.21.72,1.7a.5.5,0,0,1-.26.66A.71.71,0,0,1,64,173.14Zm-10.27-4.09-1.46-.37L51.31,167a.5.5,0,0,1,.88-.49l.72,1.31.79.2,1.76-.49.5.25a.5.5,0,0,1,.22.67.49.49,0,0,1-.67.22l-.16-.08Zm284.21-2.68a.45.45,0,0,1-.16,0,.5.5,0,0,1-.31-.64l1.66-4.72a.5.5,0,0,1,.64-.3.49.49,0,0,1,.3.64L338.39,166A.49.49,0,0,1,337.92,166.37Zm-286.85-4a.49.49,0,0,1-.49-.41l-.18-1-2-2.53-.34-.28a.5.5,0,0,1,.65-.76l.4.35,2.25,2.79.23,1.21a.5.5,0,0,1-.4.58Zm-33.66-1.63-.53-3.85-.6-.56a.5.5,0,1,1,.69-.73l.85.81.45,3.28a.49.49,0,0,1,.47.47.5.5,0,0,1-.47.53Zm325.75-2.51a.51.51,0,0,1-.37-.17.51.51,0,0,1,0-.71l3.72-3.34a.49.49,0,0,1,.7,0,.5.5,0,0,1,0,.71l-3.72,3.34A.55.55,0,0,1,343.16,158.22Zm-323.65-.4h-.07a.51.51,0,0,1-.43-.56l.28-2.15,1.18-.49.22-1.18,1.07-.19a.5.5,0,0,1,.58.4.49.49,0,0,1-.4.58l-.4.08-.19,1-1.14.48L20,157.38A.49.49,0,0,1,19.51,157.82Zm25.42-3.08a.49.49,0,0,1-.32-.12l-.51-.43-.8-.95L42,152.51l-1.2.14-.27-.18a.51.51,0,0,1-.14-.7.5.5,0,0,1,.66-.16l1.16-.13L44,152.53l.8,1,.45.37a.51.51,0,0,1,.05.71A.52.52,0,0,1,44.93,154.74Zm-18.8-.58a.53.53,0,0,1-.24-.06.51.51,0,0,1-.2-.68l.18-.33-.19-1,.66-2,.89-.53.31-.28A.53.53,0,0,1,28,149a.46.46,0,0,1,.45.5l0,.2-.15.22-.45.39-.65.39-.46,1.41.2,1.13-.34.64A.5.5,0,0,1,26.13,154.16ZM15,152a.5.5,0,0,1-.47-.33l-1.2-3.19-.38.21a.51.51,0,0,1-.68-.19.5.5,0,0,1,.2-.68l1.38-.78,1.61,4.28a.49.49,0,0,1-.29.64A.38.38,0,0,1,15,152Zm334-1.42-.13,0a.51.51,0,0,1-.36-.62l.17-.62-1.38-3.74.32-.47a.51.51,0,0,1,.7-.12.5.5,0,0,1,.12.7l0,0,1.31,3.56-.25.93A.5.5,0,0,1,349,150.56Zm-312.41-.75a.52.52,0,0,1-.29-.09l-.51-.37-2-.75-.85,0-1.19-.27a.5.5,0,0,1,.23-1l1.09.26,1,.06,2.22.86.56.41a.51.51,0,0,1,.11.7A.51.51,0,0,1,36.61,149.81Zm-27.74-.42a.48.48,0,0,1-.23,0l-1.17-.61-.61-4.28.69-.21a.5.5,0,0,1,.41.9l.42,2.94.72.37a.5.5,0,0,1,.22.67A.51.51,0,0,1,8.87,149.39ZM351,141.87a.49.49,0,0,1-.36-.15.5.5,0,0,1,0-.71l3.59-3.48a.5.5,0,1,1,.69.71l-3.59,3.49A.49.49,0,0,1,351,141.87ZM9.89,141.62a.39.39,0,0,1-.15,0,.5.5,0,0,1-.32-.63l.21-.65-.41-.68-2.56-.3a.5.5,0,0,1-.43-.56.5.5,0,0,1,.55-.44l3.05.37.9,1.49-.36,1.08A.5.5,0,0,1,9.89,141.62Zm-6.49-5a.5.5,0,0,1-.47-.31l-.79-1.9,1.66-3a.5.5,0,1,1,.87.48l-1.42,2.57.61,1.46a.5.5,0,0,1-.27.65A.46.46,0,0,1,3.4,136.58ZM358.3,135a.5.5,0,0,1-.43-.24.51.51,0,0,1,.18-.69l4.29-2.55a.5.5,0,0,1,.52.86l-4.3,2.55A.48.48,0,0,1,358.3,135Zm-317.82-6.8h0l-5-.49a.49.49,0,0,1-.45-.54.5.5,0,0,1,.55-.45l5,.49a.5.5,0,0,1,0,1Zm323.12-.38h0a.51.51,0,0,1-.46-.54l.16-1.19,2.05-3.46a.48.48,0,0,1,.68-.17.49.49,0,0,1,.18.68l-2,3.37-.08.86A.49.49,0,0,1,363.6,127.86ZM2.72,127.65a.48.48,0,0,1-.45-.28L.05,122.89a.5.5,0,0,1,.9-.44l2.21,4.48a.5.5,0,0,1-.22.67A.63.63,0,0,1,2.72,127.65Zm27.94-.93a.53.53,0,0,1-.24-.06l-1.74-1-2.77-.08a.5.5,0,0,1-.48-.52.55.55,0,0,1,.51-.48l3,.09,2,1.07a.5.5,0,0,1,.19.68A.49.49,0,0,1,30.66,126.72Zm13.48-1.53a.52.52,0,0,1-.31-.1.5.5,0,0,1-.09-.7l.91-1.19,2,.11.92-1.21a.51.51,0,0,1,.7-.1.5.5,0,0,1,.1.7l-1.25,1.64-2-.11-.58.76A.51.51,0,0,1,44.14,125.19ZM21.59,123.3a.42.42,0,0,1-.26-.08l-2-1.29-2.35-.37a.51.51,0,0,1-.42-.57.51.51,0,0,1,.57-.42l2.65.46,2.12,1.35a.5.5,0,0,1,.16.69A.51.51,0,0,1,21.59,123.3Zm-8.85-4.21a.46.46,0,0,1-.23-.06l-4.43-2.32a.5.5,0,1,1,.46-.88L13,118.15a.49.49,0,0,1,.21.67A.5.5,0,0,1,12.74,119.09ZM51,118.92a.49.49,0,0,1-.3-.1.51.51,0,0,1-.1-.7l1.19-1.55,1.68-2.5a.5.5,0,0,1,.7-.14.49.49,0,0,1,.13.69l-1.7,2.53-1.2,1.58A.5.5,0,0,1,51,118.92ZM.6,118.81a.56.56,0,0,1-.27-.08A.5.5,0,0,1,.18,118l.3-.47,2.23-.92,1.37-1.6a.5.5,0,0,1,.76.66l-1.53,1.78-2.15.88-.14.21A.48.48,0,0,1,.6,118.81Zm364.53-.32a.5.5,0,0,1-.49-.43l-.42-3,1.89-1.61a.49.49,0,0,1,.7,0,.51.51,0,0,1-.05.71l-1.47,1.25.34,2.5a.49.49,0,0,1-.43.56Zm5.53-6.63a.5.5,0,0,1-.12-1l4.84-1.22a.49.49,0,0,1,.61.36.48.48,0,0,1-.36.6l-4.85,1.23Zm-314-1.16a.51.51,0,0,1-.28-.09.51.51,0,0,1-.13-.69l2.8-4.15a.5.5,0,0,1,.82.56l-2.79,4.15A.52.52,0,0,1,56.66,110.7Zm24.25-3.35a.5.5,0,0,1-.06-1l5-.62a.49.49,0,0,1,.56.43.5.5,0,0,1-.43.56l-5,.62Zm298-.19a.49.49,0,0,1-.32-.12.5.5,0,0,1-.05-.71l1.75-2,.38-2a.5.5,0,1,1,1,.19l-.43,2.27L379.34,107A.52.52,0,0,1,379,107.16Zm-302.88-.33a.51.51,0,0,1-.17,0l-4.69-1.73a.5.5,0,0,1-.3-.64.51.51,0,0,1,.64-.3l4.7,1.73a.5.5,0,0,1,.29.64A.48.48,0,0,1,76.08,106.83Zm39.15-.19-4.48-.26a.49.49,0,0,1-.47-.52.48.48,0,0,1,.52-.47l3.9.22.27-.43a.5.5,0,0,1,.85.53Zm-9.45-.54h0l-5-.28a.5.5,0,0,1,.06-1l5,.29a.5.5,0,0,1,0,1Zm-15,0a.5.5,0,0,1-.49-.44.5.5,0,0,1,.43-.56l4.62-.58.44,0a.5.5,0,1,1-.06,1l-.35,0-4.52.58ZM66.7,103.37a.47.47,0,0,1-.17,0L62.82,102l-.15.22a.49.49,0,0,1-.69.13.5.5,0,0,1-.14-.69l.59-.87,4.44,1.64a.51.51,0,0,1,.3.64A.5.5,0,0,1,66.7,103.37Zm50.76-2a.38.38,0,0,1-.17,0,.49.49,0,0,1-.29-.64l0-.12.11-.09,3.93-3.25h.2a.54.54,0,0,1,.51.54.46.46,0,0,1-.35.45l-3.64,3A.51.51,0,0,1,117.46,101.41Zm264.41-3.47a.5.5,0,0,1-.5-.5v-5a.51.51,0,0,1,.5-.5.5.5,0,0,1,.5.5v5A.5.5,0,0,1,381.87,97.94Zm-256.18-.57a.53.53,0,0,1-.27-.08.5.5,0,0,1-.15-.69l.5-.79-2.31-2.31a.5.5,0,1,1,.7-.7L127,95.66l-.93,1.47A.5.5,0,0,1,125.69,97.37Zm-5-7.39h-.1a.49.49,0,0,1-.39-.59l.39-1.86,1.81-2.75a.5.5,0,0,1,.83.55L121.52,88l-.3,1.58A.51.51,0,0,1,120.73,90Zm260.9-1.79a.48.48,0,0,1-.28-.08.5.5,0,0,1-.14-.69l2.73-4.13a.49.49,0,0,1,.67-.21.5.5,0,0,1,.21.68l-.16.31L382,88A.47.47,0,0,1,381.63,88.19Zm-254-3.25a.5.5,0,0,1,0-1l1.11-.06.84-2.42-.1-.31a.5.5,0,0,1,.33-.63.51.51,0,0,1,.63.33l.19.63-1.17,3.37-1.77.09Zm259.08-5.33a.46.46,0,0,1-.23-.06.5.5,0,0,1-.21-.68l2.06-3.77.74-.54a.48.48,0,0,1,.69.1.5.5,0,0,1-.1.7l-.64.47-1.87,3.51A.5.5,0,0,1,386.73,79.61ZM128.46,76.73a.5.5,0,0,1-.48-.35l-1.16-3.79,0-1.18a.5.5,0,0,1,.49-.51.51.51,0,0,1,.51.49l0,1.11,1.12,3.58a.49.49,0,0,1-.32.62Zm263.88-5.07-.14,0a.46.46,0,0,1-.32-.6l.08-.23,4.14-2.94a.5.5,0,0,1,.7.12.52.52,0,0,1-.12.7l-4,2.81A.55.55,0,0,1,392.34,71.66ZM401,67.94a.49.49,0,0,1-.35-.15.49.49,0,0,1,0-.7l3.65-3.69a.51.51,0,0,1,.66.26.49.49,0,0,1-.14.58l-3.45,3.54A.48.48,0,0,1,401,67.94ZM127.07,67a.52.52,0,0,1-.29-.09L122.72,64a.5.5,0,1,1,.58-.81l4.07,2.9a.51.51,0,0,1,.11.7A.49.49,0,0,1,127.07,67Zm282-4.55a.5.5,0,0,1-.19-1l1.49-.64.4-2.76a.49.49,0,0,1,.4-.43.48.48,0,0,1,.58.39l0,.08v.09l-.48,3.33-2,.86A.48.48,0,0,1,409.1,62.4ZM119.41,60.79a.5.5,0,0,1-.48-.34l-1-3.22.45-1.85A.51.51,0,0,1,119,55a.5.5,0,0,1,.36.61L119,57.2l.93,2.94a.49.49,0,0,1-.32.63A.39.39,0,0,1,119.41,60.79Zm290.41-7a.51.51,0,0,1-.48-.36l-.55-1.85L408.64,49,407.7,47a.5.5,0,1,1,.9-.44l1,2.24.15,2.66.52,1.68a.5.5,0,0,1-.33.62A.4.4,0,0,1,409.82,53.82ZM120.89,51.71a.5.5,0,0,1-.29-.9L124,48.3l0-.17a.5.5,0,0,1,.45-.55A.5.5,0,0,1,125,48l.08.75-3.9,2.85A.53.53,0,0,1,120.89,51.71Zm.57-5.46h0l-.51,0-2.16-4.61a.5.5,0,0,1,.9-.42l1.92,4.07a.5.5,0,0,1-.12,1Zm283.05-1.64h-.12L402,44l-1.41-2.58a.5.5,0,0,1,.2-.68.49.49,0,0,1,.68.2l1.2,2.19,2,.5a.49.49,0,0,1,.37.6A.5.5,0,0,1,404.51,44.61Zm-285.37-7a.52.52,0,0,1-.29-.09.51.51,0,0,1-.12-.7l.51-.73-1.09-2.72,1-.9a.5.5,0,0,1,.67.74l-.47.43,1,2.58-.82,1.17A.5.5,0,0,1,119.14,37.56ZM400.05,37h0a.5.5,0,0,1-.48-.52l.21-4.72,0-.16a.49.49,0,0,1,.4-.58.49.49,0,0,1,.58.4l.05.28-.21,4.82A.5.5,0,0,1,400.05,37ZM274.46,30.3,273.28,30a.49.49,0,0,1-.38-.59.5.5,0,0,1,.6-.38l.79.18,3.25-1.95a.5.5,0,1,1,.52.86Zm-151.31-.39a.5.5,0,0,1-.37-.16.51.51,0,0,1,0-.71l1.39-1.26,3.49-.13a.49.49,0,0,1,.51.48.5.5,0,0,1-.48.52l-3.12.11-1.11,1A.5.5,0,0,1,123.15,29.91Zm145.39-1.05a.41.41,0,0,1-.16,0l-4.75-1.56a.5.5,0,0,1-.32-.63.49.49,0,0,1,.63-.32l4.75,1.56a.5.5,0,0,1,.32.63A.49.49,0,0,1,268.54,28.86Zm130.53-1.74a.51.51,0,0,1-.46-.31l-1.9-4.63a.49.49,0,0,1,.27-.65.5.5,0,0,1,.65.27l1.91,4.63a.5.5,0,0,1-.28.65A.58.58,0,0,1,399.07,27.12ZM259,25.74l-.16,0-.73-.24L254,25a.51.51,0,0,1-.43-.56.5.5,0,0,1,.57-.43l4.19.55.82.26a.5.5,0,0,1-.15,1Zm22.79-.38a.49.49,0,0,1-.31-.11.5.5,0,0,1-.08-.7l3.1-3.92a.5.5,0,0,1,.7-.09.51.51,0,0,1,.08.71l-3.09,3.92A.5.5,0,0,1,281.83,25.36Zm-152.68-.11a.47.47,0,0,1-.47-.33l-1.89-2-.56-2.15a.49.49,0,0,1,.36-.6.5.5,0,0,1,.61.35l.49,1.91,1.95,2.1,0,.17a.54.54,0,0,1-.46.58ZM348.44,23.2l-2.91-1.93a.5.5,0,1,1,.56-.84l2.56,1.71,1.48-.28a.49.49,0,0,1,.59.39.51.51,0,0,1-.4.59Zm-98.95,0a.44.44,0,0,1-.22-.05L244.8,20.9a.5.5,0,1,1,.44-.9l4.48,2.24a.5.5,0,0,1,.22.67A.5.5,0,0,1,249.49,23.18Zm-43.44-1.52a.53.53,0,0,1-.24-.06l-4.38-2.4a.51.51,0,0,1-.2-.68.5.5,0,0,1,.68-.2l4.38,2.4a.5.5,0,0,1-.24.94Zm147.78-1.57a.5.5,0,0,1-.44-.74l1.54-2.78,2.13-.65a.48.48,0,0,1,.62.32.49.49,0,0,1-.32.63l-1.75.54-1.34,2.43A.5.5,0,0,1,353.83,20.09Zm-143.54-.51a.46.46,0,0,1-.33-.13.48.48,0,0,1,0-.7l2-2.23,2.39-.24a.49.49,0,0,1,.54.45.5.5,0,0,1-.44.55l-2,.2-1.73,1.93A.48.48,0,0,1,210.29,19.58Zm131.09-.16h0l-5-.17a.5.5,0,0,1-.49-.51.5.5,0,0,1,.52-.48l5,.16a.5.5,0,0,1,.48.51A.51.51,0,0,1,341.38,19.42Zm-101-.28a.51.51,0,0,1-.17,0l-2.4-.83V16.34l-.58-.41a.5.5,0,0,1-.12-.69.5.5,0,0,1,.7-.13l1,.7v1.76l1.73.6a.5.5,0,0,1-.16,1Zm154-.77a.48.48,0,0,1-.41-.21l-1.58-2.32L391,14.2a.49.49,0,0,1,.06-.7.51.51,0,0,1,.71.06l1.41,1.67,1.61,2.36a.5.5,0,0,1-.13.7A.46.46,0,0,1,394.35,18.37Zm-62.66-.66a.43.43,0,0,1-.19,0l-4.6-2a.5.5,0,1,1,.39-.92l4.6,2a.51.51,0,0,1,.26.66A.49.49,0,0,1,331.69,17.71ZM288,17.51a.5.5,0,0,1-.3-.11.5.5,0,0,1-.09-.7l.22-.28,4.85-1.18a.5.5,0,0,1,.24,1l-4.52,1.11A.53.53,0,0,1,288,17.51Zm20.36-.78-.64,0a.5.5,0,0,1-.47-.52.51.51,0,0,1,.52-.48l.41,0,4-1.75a.5.5,0,0,1,.66.26.5.5,0,0,1-.26.66Zm-181.2-.28-.14,0a.5.5,0,0,1-.34-.62l.28-1-1.06-2.17.45-1.48a.51.51,0,0,1,.62-.34.52.52,0,0,1,.34.63l-.34,1.1,1,2.16-.38,1.38A.5.5,0,0,1,127.18,16.45Zm175.59,0h0l-5-.26a.51.51,0,0,1-.48-.53.49.49,0,0,1,.53-.47l5,.26a.49.49,0,0,1,.47.52A.5.5,0,0,1,302.77,16.44Zm-83.72-.68a.5.5,0,0,1-.2-1l1.07-.46,3.9-.67a.5.5,0,1,1,.17,1l-3.84.66-.89.4A.52.52,0,0,1,219.05,15.76Zm-20.6-.24a.51.51,0,0,1-.41-.2l-3-4a.5.5,0,0,1,.11-.7.48.48,0,0,1,.69.1l3,4a.51.51,0,0,1-.11.7A.46.46,0,0,1,198.45,15.52ZM322.18,15h-.05l-5-.53a.5.5,0,1,1,.1-1l5,.53a.5.5,0,0,1-.06,1Zm39.3-.19a.52.52,0,0,1-.24-.05.5.5,0,0,1-.2-.68l1.24-2.35,2.73-.61a.51.51,0,0,1,.6.38.5.5,0,0,1-.38.6l-2.28.5-1,1.95A.49.49,0,0,1,361.48,14.8Zm8.76-1.39-.55-.2a.5.5,0,0,1-.3-.64.49.49,0,0,1,.64-.3l.2.07,2.24-.9.44-1.45a.51.51,0,0,1,.63-.33.5.5,0,0,1,.33.62l-.58,1.91Zm-141.68-.13a.5.5,0,0,1-.35-.86l.49-.49,4.81.21.12.08a.53.53,0,0,1,.15.72.49.49,0,0,1-.59.19l-4.1-.18-.18.18A.5.5,0,0,1,228.56,13.28Zm159.57-2.72a.48.48,0,0,1-.38-.18l-2.33-2.75-1.06-.37a.51.51,0,0,1-.31-.64.49.49,0,0,1,.64-.3l1.32.46,2.5,3a.5.5,0,0,1-.38.82ZM130.21,8.39a.49.49,0,0,1-.41-.21.51.51,0,0,1,.12-.7l3.3-2.31,1.05-.36a.51.51,0,0,1,.64.31.5.5,0,0,1-.31.63l-1,.35L130.5,8.3A.52.52,0,0,1,130.21,8.39ZM192,7.93a.45.45,0,0,1-.16,0l-4.74-1.61a.5.5,0,0,1,.33-1L192.2,7a.5.5,0,0,1-.16,1ZM375.85,6.34a.52.52,0,0,1-.29-.09.5.5,0,0,1-.12-.7l1.39-2L380,4.66a.51.51,0,0,1,.31.64.49.49,0,0,1-.64.3l-2.42-.84-1,1.37A.51.51,0,0,1,375.85,6.34ZM182.5,5h-.07l-2.91-.44-2-1a.5.5,0,0,1,.46-.89l1.9,1,2.67.38a.5.5,0,0,1-.07,1ZM139,3.8a.51.51,0,0,1-.49-.4.5.5,0,0,1,.39-.59l4.9-1a.5.5,0,0,1,.2,1l-4.9,1ZM159.21,3h-.35a.52.52,0,0,1-.49-.51.5.5,0,0,1,.49-.49L161.18.11l2-.11a.51.51,0,0,1,.53.47.51.51,0,0,1-.48.53l-1.63.09ZM148.88,3a.49.49,0,0,1-.5-.47.5.5,0,0,1,.46-.53l1.81-.11,3.23.05a.5.5,0,0,1,.49.51.48.48,0,0,1-.51.49l-3.18,0L148.91,3ZM173,2.41h-.07l-4.09-.58-.91-.28a.5.5,0,0,1-.32-.63.49.49,0,0,1,.62-.33l.83.27,4,.56a.5.5,0,0,1-.07,1Z"/></g></g></g></svg>