<svg xmlns="http://www.w3.org/2000/svg" viewBox="0 0 50.33 31.63"><defs><style>.cls-1{fill:#26377a;}</style></defs><g id="Layer_2" data-name="Layer 2"><g id="Layer_1-2" data-name="Layer 1"><g id="Path_1021" data-name="Path 1021"><path class="cls-1" d="M6.74,31.63a.47.47,0,0,1-.25-.07.49.49,0,0,1-.18-.68l.43-.73L7,29.28l1.55.1.74-.33,1.55.08a.49.49,0,0,1,.47.52.48.48,0,0,1-.52.48l-1.31-.07-.74.33-1-.06-.11.28-.46.78A.49.49,0,0,1,6.74,31.63ZM3.25,30.16a.51.51,0,0,1-.42-.23l-.15-.22L1,28.89,0,26.07A.49.49,0,1,1,1,25.76l.8,2.41,1.6.75.3.47a.5.5,0,0,1-.15.69A.53.53,0,0,1,3.25,30.16Zm16.82-.68a.5.5,0,0,1-.4-.21l-.24-.33-1.08-.48-2.25.06-.27.21a.51.51,0,0,1-.7-.1.5.5,0,0,1,.09-.7l.53-.4,2.79-.08,1.55.68.39.56a.5.5,0,0,1-.41.79ZM5.83,28.41l-1.65-.55a.51.51,0,0,1-.31-.64.49.49,0,0,1,.63-.31L6,27.4l1.72-.12.67-.86a.52.52,0,0,1,.71-.08.5.5,0,0,1,.08.7l-1,1.21Zm18.93,0a.51.51,0,0,1-.5-.44.5.5,0,0,1,.43-.56l.73-.1-.09-.41,1.9-2.6a.5.5,0,0,1,.81.59L26.4,27.09l.22,1-1.79.24ZM9.48,23.07A.5.5,0,0,1,9.21,23L6.94,21.53l0,0,.35.53a.49.49,0,0,1-.13.69.5.5,0,0,1-.7-.13l-.79-1.18,1.13-1.23,3,1.91a.5.5,0,0,1,.15.69A.51.51,0,0,1,9.48,23.07Zm2.89-.73a.36.36,0,0,1-.14,0,.5.5,0,0,1-.34-.62l.72-2.45-.35-1.5,1.14-.5.65.59a.51.51,0,0,1,0,.71.53.53,0,0,1-.58.12l.14.61L12.85,22A.49.49,0,0,1,12.37,22.34Zm17.78-1.57a.53.53,0,0,1-.3-.09.51.51,0,0,1-.11-.7l.14-.19L31,16.31v-.77l.18-.28a.5.5,0,0,1,.83.55v0l0,.7-1.21,3.78-.18.25A.51.51,0,0,1,30.15,20.77Zm-12.68-.6a.5.5,0,0,1-.3-.89l.22-.17,1.14-1.3.34-.89,1.53-1.31a.51.51,0,0,1,.71.05.49.49,0,0,1-.06.7l-1.34,1.16-.37.89-1.27,1.43-.29.23A.5.5,0,0,1,17.47,20.17Zm9.06-5.08-1.41-1-.75-1.17-.44-.07-.76-.3a.5.5,0,0,1,.37-.93l.69.28.71.06,1,1.51.72.49h0a.52.52,0,0,1,.37-.29.51.51,0,0,1,.58.41l.09.51Zm18-.68a.5.5,0,0,1-.09-1l.48-.09-1.26-.95V10.64l.63-.39a.49.49,0,0,1,.69.16.51.51,0,0,1-.16.69l-.16.09v.7l1.39,1v1.21l-1.44.25Zm-6.36-.22-.57-.39-2.13,0-.56,0a.51.51,0,0,1-.54-.45.5.5,0,0,1,.46-.54l.6-.05,2.49,0,.55.37,1.27,0h0a.49.49,0,0,1,.5.49.5.5,0,0,1-.49.51Zm-8.81-3a.5.5,0,0,1-.25-.93l.15-.08.35-.5.18-1.77H31l1-.91a.5.5,0,0,1,.69.73L31.37,8.9h-.64L30.62,10l-.73.94-.25.14A.5.5,0,0,1,29.4,11.18Zm20-.84a.51.51,0,0,1-.42-.23.5.5,0,0,1,.14-.69l.09-.06v0h-.45l-1.42-.24-.85-.7-.34,0A.53.53,0,0,1,45.56,8,.51.51,0,0,1,46,7.42l.74,0,.95.78,1.07.19h1.12l.42,1.45-.69.47A.51.51,0,0,1,49.36,10.34ZM42,7.32a.49.49,0,0,1-.32-.12L41.48,7l-.43-.46-.61-.25,0-2.08.84-.3-.54-.33a.48.48,0,0,1-.17-.68.49.49,0,0,1,.68-.17l1.05.63,0,1.23-.93.33v.7l.26.16.63.63a.51.51,0,0,1,.06.71A.53.53,0,0,1,42,7.32ZM34.51,3.59A.51.51,0,0,1,34,3.2a.5.5,0,0,1,.37-.6l.32-.07L35.44.32l1,0L37.8,0a.49.49,0,0,1,.6.35.5.5,0,0,1-.35.61l-1.53.4-.37,0-.67,2-.86.2Z"/></g></g></g></svg>