<svg xmlns="http://www.w3.org/2000/svg" viewBox="0 0 162.96 85.5"><defs><style>.cls-1{fill:#26377a;}</style></defs><g id="Layer_2" data-name="Layer 2"><g id="Layer_1-2" data-name="Layer 1"><g id="Path_1009" data-name="Path 1009"><path class="cls-1" d="M66.15,85.5a.5.5,0,0,1-.45-.26l-.27-.51h-3l-.75-1.21a.5.5,0,0,1,.86-.52l.45.73h3l.56,1a.51.51,0,0,1-.21.68A.48.48,0,0,1,66.15,85.5Zm3.9-.41a.49.49,0,0,1-.45-.28.5.5,0,0,1,.23-.67l4.48-2.21a.5.5,0,1,1,.44.89L70.27,85A.59.59,0,0,1,70.05,85.09Zm38.69-1.85-4.16-1.7a.52.52,0,0,1-.27-.66.51.51,0,0,1,.65-.27l3.68,1.51.43-.27a.5.5,0,0,1,.69.15.49.49,0,0,1-.16.69ZM79,80.66a.5.5,0,0,1-.22-1l4.48-2.21a.5.5,0,1,1,.45.89l-4.49,2.22A.54.54,0,0,1,79,80.66Zm34.54-.57a.52.52,0,0,1-.42-.24.49.49,0,0,1,.16-.69l1.18-.75,3.37-1.47a.5.5,0,0,1,.4.92l-3.3,1.43-1.12.72A.5.5,0,0,1,113.55,80.09Zm20.7-.61-1.41,0a.5.5,0,0,1,0-1l1.18,0,2.89-1.32.61,0a.47.47,0,0,1,.51.48.49.49,0,0,1-.48.51l-.5,0Zm-74.39-.1a.51.51,0,0,1-.5-.44l-.26-2.07L57,76.76a.5.5,0,1,1,0-1l2.91.15.37,2.9a.5.5,0,0,1-.44.56Zm68,0h0l-.67,0-4.34-.8a.5.5,0,0,1-.4-.58.49.49,0,0,1,.58-.4l4.26.79h.58a.5.5,0,1,1,0,1Zm-27-.5a.5.5,0,0,1-.43-.25l-1.22-2.17-2-.87a.5.5,0,0,1,.4-.92l2.3,1,1.39,2.46a.5.5,0,0,1-.19.68A.54.54,0,0,1,100.86,78.86Zm41.68-.9a.5.5,0,0,1-.5-.48.5.5,0,0,1,.49-.52l1.42,0L146.81,75a.51.51,0,0,1,.62.37.48.48,0,0,1-.29.57l-2.87,1.94-1.71,0ZM52.06,76.51h0l-5-.26a.5.5,0,0,1,.05-1l5,.26a.5.5,0,0,1,0,1ZM88,76.23a.49.49,0,0,1-.45-.28.5.5,0,0,1,.23-.67l2.93-1.41,1.92-.17a.5.5,0,0,1,.09,1l-1.83.16L88.2,76.18A.59.59,0,0,1,88,76.23Zm-45.66-1a.49.49,0,0,1-.38-.18,2.83,2.83,0,0,1-.68-1.85,3.42,3.42,0,0,1,0-.45l.47-2.92a.5.5,0,0,1,.57-.42.51.51,0,0,1,.42.58l-.47,2.91a1.6,1.6,0,0,0,0,.3,1.87,1.87,0,0,0,.45,1.21.51.51,0,0,1-.07.71A.52.52,0,0,1,42.32,75.25Zm109.05-1.19a.5.5,0,0,1-.35-.85l3-2.94,1.12-.21a.49.49,0,0,1,.58.39.5.5,0,0,1-.4.59l-.81.15-2.74,2.73A.54.54,0,0,1,151.37,74.06Zm8.73-3.94a.51.51,0,0,1-.49-.41.5.5,0,0,1,.4-.58l1.45-.28.34-1.17-.79-.61a.51.51,0,0,1-.1-.7.5.5,0,0,1,.7-.09l1.35,1-.72,2.42-2,.39Zm-4.37-1.52-1.49-1.31.42-2.25a.49.49,0,0,1,.58-.4.5.5,0,0,1,.4.58l-.31,1.69.49.44,1.1-.7a.51.51,0,0,1,.69.16.5.5,0,0,1-.15.69Zm-10-1.92a.5.5,0,0,1-.13-1l2.43-.69,2.66.4a.5.5,0,0,1,.42.57.51.51,0,0,1-.57.42L148.13,66l-2.23.63A.32.32,0,0,1,145.76,66.68Zm-6.91-.42L137,64.1a.51.51,0,0,1-.2-.43.48.48,0,0,1,.51-.46l.2,0,.19.15L139.1,65l1.75-.81.48.21a.5.5,0,1,1-.4.91l-.06,0Zm-95.79-.77H43a.49.49,0,0,1-.41-.57l.34-2.15L43.75,60a.5.5,0,0,1,1,.29L43.89,63l-.34,2.09A.5.5,0,0,1,43.06,65.49Zm89.17-1.63h0l-2.88-.14c-1.27-.08-1.46-.72-1.46-1.09a2,2,0,0,1,.37-1,.5.5,0,1,1,.85.53,1.13,1.13,0,0,0-.22.5,1.16,1.16,0,0,0,.52.1l2.87.15a.5.5,0,0,1,0,1Zm-.94-5.77A.48.48,0,0,1,131,58a.5.5,0,0,1-.17-.69l2.61-4.26a.49.49,0,0,1,.68-.17.5.5,0,0,1,.17.69l-2.61,4.27A.49.49,0,0,1,131.29,58.09Zm-27.8-.18a.5.5,0,0,1-.16-1l4.1-1.42a2.69,2.69,0,0,1,.79-.15.49.49,0,0,1,.52.49.5.5,0,0,1-.49.51,1.37,1.37,0,0,0-.49.09l-4.1,1.43A.5.5,0,0,1,103.49,57.91ZM90,57.38h-.09l-.35-.06-.9-3.67-.5-1.37a.5.5,0,0,1,.94-.34l.52,1.42.81,3.31a.48.48,0,0,1,0,.31A.49.49,0,0,1,90,57.38Zm23-.64a.5.5,0,0,1-.06-1l3.09-.42,1.44-.85a.51.51,0,0,1,.69.18.5.5,0,0,1-.18.68l-1.71,1-3.2.43ZM99,56.71a.48.48,0,0,1-.39-.19l-.3-.37a1.62,1.62,0,0,0-2-.43l-1.47.74a.5.5,0,0,1-.45-.9l1.47-.74a2.66,2.66,0,0,1,3.21.7l.3.38a.5.5,0,0,1-.08.7A.51.51,0,0,1,99,56.71Zm-53.83-.9a.5.5,0,0,1-.48-.37,2.49,2.49,0,0,0-2-1.76l-1.63-.27a.5.5,0,1,1,.17-1l1.62.27a3.46,3.46,0,0,1,2.77,2.47.5.5,0,0,1-.34.62Zm76.79-3a.51.51,0,0,1-.43-.24.5.5,0,0,1,.17-.69l4.3-2.55a.51.51,0,0,1,.69.18.5.5,0,0,1-.18.68l-4.3,2.55A.47.47,0,0,1,122,52.85ZM38.94,49.74a.49.49,0,0,1-.48-.38l-.41-1.66-2.59-.94a.5.5,0,1,1,.34-.94l3.1,1.12.53,2.18a.5.5,0,0,1-.37.6Zm94.45-.43a.51.51,0,0,1-.4-.2,5,5,0,0,0-1.82-1.64l-.8-.32L130,47l-.89-.17a.51.51,0,0,1-.4-.59.49.49,0,0,1,.59-.39l.9.17a3.24,3.24,0,0,1,.53.16l.81.32a5.91,5.91,0,0,1,2.25,2,.5.5,0,0,1-.1.7A.47.47,0,0,1,133.39,49.31Zm-46-1.55a.51.51,0,0,1-.48-.35,1.36,1.36,0,0,0-1.27-1L83,46.38a.52.52,0,0,1-.49-.51.5.5,0,0,1,.52-.49l2.67.06a2.37,2.37,0,0,1,2.2,1.67.51.51,0,0,1-.33.63ZM75,46.73l-1.15-2.42a.5.5,0,1,1,.91-.43l.8,1.71,1.61-.35.8,0a.5.5,0,0,1,.48.51.52.52,0,0,1-.51.49h-.68ZM58.44,43.8l-2.3-1.4.18-.4a.54.54,0,0,1,.68-.29.56.56,0,0,1,.22.18l1.36.83L61.15,42a.5.5,0,0,1,.62.34.51.51,0,0,1-.34.62Zm-26.53-.18a.51.51,0,0,1-.37-.17l-1-1.1L28.69,40a.5.5,0,0,1-.15-1l.12,0,.37-.19,2.26,3,1,1.07a.5.5,0,0,1,0,.7A.51.51,0,0,1,31.91,43.62Zm38.61-1.2h-.06l-.21,0-2-1.44-2,.59a.51.51,0,0,1-.62-.34.5.5,0,0,1,.34-.62l2.47-.72,2.27,1.61A.51.51,0,0,1,71,42,.48.48,0,0,1,70.52,42.42ZM58.85,38.07a.54.54,0,0,1-.21,0,.5.5,0,0,1-.25-.66v0l-2.24-3.85A.5.5,0,0,1,57,33l2.51,4.29-.23.5A.49.49,0,0,1,58.85,38.07Zm-33-1.43a.5.5,0,0,1-.47-.33l-1.68-4.72a.5.5,0,0,1,.95-.33L26.33,36a.51.51,0,0,1-.31.64A.45.45,0,0,1,25.86,36.64Zm-7.81-6.09-.9-3.88a.51.51,0,0,1,.37-.6.5.5,0,0,1,.6.38l.71,3.06,1,0a.5.5,0,1,1,0,1Zm35.85-1h0A.5.5,0,0,1,53.4,29l.17-5a.5.5,0,0,1,1,0l-.17,5A.51.51,0,0,1,53.9,29.55ZM15.28,23.11a.51.51,0,0,1-.5-.43l-.69-4.95a.51.51,0,0,1,.43-.57.49.49,0,0,1,.56.43l.69,4.95a.49.49,0,0,1-.42.56Zm24-.4L39,21.22a.51.51,0,0,1,.39-.59A.49.49,0,0,1,40,21l.11.52,3.42-.66a.51.51,0,0,1,.59.4.5.5,0,0,1-.4.58Zm9.2-1.78a.49.49,0,0,1-.49-.41.48.48,0,0,1,.39-.58l4.91-1a.51.51,0,0,1,.59.4.51.51,0,0,1-.4.59l-4.91.94ZM42,17.66a.49.49,0,0,1-.37-.83L43,15.34l.58-2a.49.49,0,0,1-.11-.54.5.5,0,0,1,.65-.28l.66.27-1,3.16-1.4,1.57A.45.45,0,0,1,42,17.66ZM11.73,14.49a.48.48,0,0,1-.28-.08L7.28,11.65A.5.5,0,0,1,7.14,11a.49.49,0,0,1,.69-.14L12,13.58a.49.49,0,0,1,.14.69A.47.47,0,0,1,11.73,14.49Zm23-2.13L34.2,12a.5.5,0,1,1,.56-.82l.13.09,4-.92.54.23a.5.5,0,0,1-.38.92l-.25-.1ZM30,10.51h0l-5-.14a.5.5,0,0,1,0-1l5,.14a.5.5,0,0,1,.48.52A.49.49,0,0,1,30,10.51ZM20.19,9a.45.45,0,0,1-.16,0l-.28-.12L15.81,6a.5.5,0,0,1-.12-.7.51.51,0,0,1,.7-.12l4,2.8a.48.48,0,0,1,.3.63A.49.49,0,0,1,20.19,9ZM4.86,8a.51.51,0,0,1-.49-.39L4,5.81l-2.5-.89a.46.46,0,0,1-.28-.25l0,0L0,2.74,2.45.16a.5.5,0,0,1,.72.68l-1.92,2L2,4l2.85,1,.53,2.29a.5.5,0,0,1-.38.6Zm7.52-5.2a.43.43,0,0,1-.25-.07L7.52,1a.5.5,0,0,1-.3-.64.5.5,0,0,1,.64-.3l4.86,1.81a.5.5,0,0,1,0,.71A.48.48,0,0,1,12.38,2.75Z"/></g></g></g></svg>