<svg xmlns="http://www.w3.org/2000/svg" viewBox="0 0 68.31 74.98"><defs><style>.cls-1{fill:#26377a;}</style></defs><g id="Layer_2" data-name="Layer 2"><g id="Layer_1-2" data-name="Layer 1"><g id="Path_1022" data-name="Path 1022"><path class="cls-1" d="M41.65,75l-2.13-1a.49.49,0,0,1-.24-.66.5.5,0,0,1,.66-.25l1.91.89,2.64-.13a.5.5,0,1,1,0,1ZM35.2,71.92a.5.5,0,0,1-.21,0l-4.54-2.11a.5.5,0,0,1-.24-.67.51.51,0,0,1,.67-.24L35.41,71a.5.5,0,0,1,.24.67A.49.49,0,0,1,35.2,71.92Zm10.57-1.74a.57.57,0,0,1-.18,0,.5.5,0,0,1-.29-.65,9.11,9.11,0,0,1,3.08-4.21.49.49,0,0,1,.69.11.5.5,0,0,1-.11.7,8.28,8.28,0,0,0-2.73,3.76A.48.48,0,0,1,45.77,70.18ZM25.94,68.25h-.11l-3.41-.8L23.76,65a.49.49,0,0,1,.67-.2.48.48,0,0,1,.2.67l-.71,1.33,2.13.5a.5.5,0,0,1-.11,1Zm-6.66-3L16.37,65l-.29-.17a.5.5,0,0,1-.18-.68.49.49,0,0,1,.68-.19l.2.11,1.34.13-.26-1.92a.49.49,0,0,1,.43-.56.5.5,0,0,1,.56.43Zm33.65-1.71a.51.51,0,0,1-.41-.2.51.51,0,0,1,.11-.7,43.06,43.06,0,0,0,3.8-3.17.48.48,0,0,1,.7,0,.49.49,0,0,1,0,.7,41.91,41.91,0,0,1-3.89,3.24A.46.46,0,0,1,52.93,63.58ZM21.66,62a.51.51,0,0,1-.36-.15l-.57-.58-3.28-2.83.29-.54a.5.5,0,0,1,.68-.21.51.51,0,0,1,.26.49l2.74,2.36.6.61a.5.5,0,0,1,0,.71A.49.49,0,0,1,21.66,62Zm-8.76-.34a.5.5,0,0,1-.48-.35l-.19-.63,1.27-2.13,2.95.59a.5.5,0,0,1-.2,1L14,59.66l-.69,1.14.07.21a.5.5,0,0,1-.33.62A.39.39,0,0,1,12.9,61.65Zm45.86-5.28a.49.49,0,0,1-.49-.41l-.21-1.08L59.57,51a.5.5,0,0,1,.64-.29.5.5,0,0,1,.29.65L59.09,55l.16.8a.5.5,0,0,1-.4.59Zm-43.5-.83a.51.51,0,0,1-.48-.35.51.51,0,0,1,.33-.63l5.17-1.68.14.65a.49.49,0,0,1-.38.59.48.48,0,0,1-.29,0l-4.34,1.41A.4.4,0,0,1,15.26,55.54Zm-3.63-3.28a.49.49,0,0,1-.35-.14L9.15,50V47.6a.5.5,0,0,1,.5-.5.5.5,0,0,1,.5.5v2L12,51.41a.49.49,0,0,1,0,.7A.51.51,0,0,1,11.63,52.26ZM62.7,47.8a.5.5,0,0,1-.21-.95l1.12-.53L64,43.13a.51.51,0,0,1,.56-.43.5.5,0,0,1,.43.57L64.53,47l-1.62.76A.5.5,0,0,1,62.7,47.8ZM8.9,43.23a.5.5,0,0,1-.47-.33l-1.7-4.7a.5.5,0,0,1,.94-.34l1.7,4.7a.5.5,0,0,1-.3.64ZM66.1,39a.49.49,0,0,1-.45-.71l.51-1.14-2.7-1,.07-.58a.51.51,0,0,1,.56-.44.47.47,0,0,1,.41.34l3,1.12-1,2.12A.5.5,0,0,1,66.1,39ZM2.46,37.55A.52.52,0,0,1,2,37.29L.13,33.8l.8-1.38a.5.5,0,0,1,.87.5l-.52.9,1.62,3a.51.51,0,0,1-.2.68A.5.5,0,0,1,2.46,37.55ZM65.71,32a.51.51,0,0,1-.47-.32.52.52,0,0,1,.3-.65l1.77-.65V27.66l-1.11-.95a.5.5,0,0,1,.65-.76l1.46,1.25v3.89L65.89,32A.57.57,0,0,1,65.71,32ZM3.88,28.85a.45.45,0,0,1-.25-.07.49.49,0,0,1-.25-.4L0,26.72l.13-1.21a.5.5,0,1,1,1,.1l-.05.52,3.64,1.79-.4.68A.5.5,0,0,1,3.88,28.85Zm59.3-5.44h-.09a.5.5,0,0,1-.4-.58l.57-3-.81-1.34A.5.5,0,1,1,63.3,18l1,1.67L63.67,23A.49.49,0,0,1,63.18,23.41ZM2.25,21.47A.48.48,0,0,1,2,21.39a.49.49,0,0,1-.14-.69l1-1.62-1-.82,3.45-.18a.49.49,0,0,1,.52.47.5.5,0,0,1-.47.53L4,19.15,2.67,21.24A.51.51,0,0,1,2.25,21.47ZM10,17.54a.5.5,0,0,1-.21-.95l4.32-2.05a.5.5,0,0,1,.84.31v.4L10.24,17.5A.54.54,0,0,1,10,17.54Zm50.27-3.1a.49.49,0,0,1-.43-.24L57.27,10a.49.49,0,0,1,.11-.7.51.51,0,0,1,.7.11l.25.35,2.39,3.94a.51.51,0,0,1-.17.69A.48.48,0,0,1,60.29,14.44ZM16.16,11.18a.51.51,0,0,1-.4-.2.5.5,0,0,1,.09-.7L19.79,7.2A.5.5,0,1,1,20.4,8l-3.94,3.08A.5.5,0,0,1,16.16,11.18ZM54.81,6.09a.51.51,0,0,1-.44-.25L51.86,1.52a.5.5,0,0,1,.86-.5l2.52,4.32a.49.49,0,0,1-.18.68A.47.47,0,0,1,54.81,6.09ZM23.71,4.65a.47.47,0,0,1-.35-.14.49.49,0,0,1,0-.7l1.48-1.45,3-1.09a.5.5,0,0,1,.64.3.49.49,0,0,1-.29.64l-2.85,1L24.07,4.5A.51.51,0,0,1,23.71,4.65ZM47.73,1h-5a.5.5,0,0,1,0-1h5a.5.5,0,0,1,.5.5A.5.5,0,0,1,47.73,1Zm-10,0h-5a.5.5,0,0,1,0-1h5a.5.5,0,0,1,.5.5A.5.5,0,0,1,37.73,1Z"/></g></g></g></svg>