<svg xmlns="http://www.w3.org/2000/svg" viewBox="0 0 236.18 101.77"><defs><style>.cls-1{fill:#26377a;}</style></defs><g id="Layer_2" data-name="Layer 2"><g id="Layer_1-2" data-name="Layer 1"><g id="Path_1008" data-name="Path 1008"><path class="cls-1" d="M234,101.77l-.59-.28a.54.54,0,0,1-.27-.69l0-.06.81-4.63a.51.51,0,0,1,.58-.41.51.51,0,0,1,.41.58Zm-5-2.43a.57.57,0,0,1-.22,0l-4.51-2.16a.5.5,0,0,1-.23-.67.49.49,0,0,1,.66-.23l4.51,2.15a.5.5,0,0,1-.21,1Zm-109.28-.67h-.1l-4.91-1a.5.5,0,0,1,.19-1l4.91,1a.48.48,0,0,1,.39.58A.49.49,0,0,1,119.74,98.67Zm4.42-.5a.5.5,0,0,1-.15-1l4.77-1.51a.49.49,0,0,1,.62.33.49.49,0,0,1-.32.62l-4.77,1.51Zm95.74-2.75h0l-5-.19a.5.5,0,1,1,0-1l5,.19a.5.5,0,0,1,0,1Zm-86.14,0a.5.5,0,0,1-.49-.4.49.49,0,0,1,.39-.59l4.9-1a.5.5,0,1,1,.2,1l-4.9,1Zm-23.17-.16a.49.49,0,0,1-.3-.1l-4-3a.5.5,0,1,1,.6-.79l4,3a.5.5,0,0,1,.09.7A.51.51,0,0,1,110.59,95.25Zm63.51,0-1.4-1.14a.5.5,0,0,1-.07-.71.5.5,0,0,1,.7-.07h0l.41-3.16a.5.5,0,0,1,.56-.43.49.49,0,0,1,.43.56ZM209.91,95h0l-2.43-.14L205,93.64a.5.5,0,0,1,.46-.89L207.81,94l2.12.08a.5.5,0,0,1,0,1Zm-56.53-1.49a.51.51,0,0,1-.5-.49.52.52,0,0,1,.49-.51l5-.1h0a.49.49,0,0,1,.5.49.5.5,0,0,1-.49.51l-5,.1Zm-9.83-.14a.48.48,0,0,1-.48-.4.5.5,0,0,1,.39-.59l3.85-.79,1.24.26a.5.5,0,0,1,.4.59.51.51,0,0,1-.59.39l-1.05-.21-3.65.74Zm19.83-.07a.5.5,0,0,1-.5-.49.51.51,0,0,1,.49-.51l5-.1h0a.5.5,0,0,1,0,1l-5,.1Zm71.94-1.57h-.09a.49.49,0,0,1-.4-.58l.29-1.64-1.78-2.27a.5.5,0,0,1,.08-.7.49.49,0,0,1,.7.08l2.06,2.63-.37,2.08A.49.49,0,0,1,235.32,91.77Zm-34.56-.34a.46.46,0,0,1-.23-.06l-4.46-2.26a.52.52,0,0,1-.22-.68.51.51,0,0,1,.68-.21L201,90.48a.5.5,0,0,1-.22,1ZM83.29,89.32l-3.07-1.08a.5.5,0,0,1-.31-.63.51.51,0,0,1,.64-.31l2.83,1L85.09,88a.51.51,0,0,1,.58.4.5.5,0,0,1-.4.58Zm19.36-.14a.5.5,0,0,1-.31-.1l-4-3a.5.5,0,1,1,.61-.79l4,3a.5.5,0,0,1,.09.7A.47.47,0,0,1,102.65,89.18Zm-34.92,0-.14,0-1.37-.43-1-4a.5.5,0,0,1,.36-.61.5.5,0,0,1,.61.37l.86,3.46.82.26a.5.5,0,0,1,.33.63A.5.5,0,0,1,67.73,89.14Zm4.19-.57a.52.52,0,0,1-.33-.12.49.49,0,0,1,0-.7L73.93,85l1.9.67a.51.51,0,0,1,.31.64.49.49,0,0,1-.64.3l-1.26-.44L72.3,88.4A.52.52,0,0,1,71.92,88.57Zm106-.35a.48.48,0,0,1-.47-.33.49.49,0,0,1,.3-.64l4.71-1.67a.49.49,0,0,1,.64.3.5.5,0,0,1-.3.64l-4.72,1.67A.45.45,0,0,1,178,88.22ZM89.63,87a.5.5,0,0,1-.3-.9l3.28-2.46,1.33.31a.5.5,0,0,1-.22,1l-.88-.21-2.91,2.18A.47.47,0,0,1,89.63,87Zm102.21-.12a.44.44,0,0,1-.22,0l-4-2-.09,0a.51.51,0,0,1-.64-.31.49.49,0,0,1,.3-.63l.51-.18L192.07,86a.5.5,0,0,1,.22.67A.51.51,0,0,1,191.84,86.89Zm38.77-3.38a.44.44,0,0,1-.33-.15L226,81a.5.5,0,1,1,.49-.87L231,82.67a.52.52,0,0,1-.4.84ZM62.29,82.77h0l-1.85-.18-.28-.73,1-1.32-.38-1.31a.5.5,0,1,1,1-.27l.51,1.8-.73.94.82.08a.5.5,0,0,1,0,1Zm159.6-4.19a.42.42,0,0,1-.24-.07l-.78-.43,1.42-4.71a.51.51,0,0,1,.63-.33.5.5,0,0,1,.33.62l-1.19,3.94.08,0a.5.5,0,0,1-.25.94ZM60.59,74.89a.57.57,0,0,1-.28-.08.5.5,0,0,1-.14-.69L62,71.41l-.59-1a.5.5,0,1,1,.85-.52l.92,1.5L61,74.67A.52.52,0,0,1,60.59,74.89Zm163.63-5.66a.39.39,0,0,1-.15,0,.5.5,0,0,1-.33-.62l.69-2.27-1.38-1.53a.5.5,0,0,1,0-.71.5.5,0,0,1,.71,0l1.76,1.95-.85,2.81A.51.51,0,0,1,224.22,69.23Zm-165-2.81a.49.49,0,0,1-.43-.24l-2.61-4.26a.5.5,0,0,1,.85-.53l2.61,4.27a.5.5,0,0,1-.16.69A.48.48,0,0,1,59.18,66.42Zm160.89-5.18a.52.52,0,0,1-.38-.17l-.27-.29-4.19-.29a.5.5,0,0,1,.07-1l4.4.29.2,0,.54.59a.5.5,0,0,1,0,.71A.5.5,0,0,1,220.07,61.24Zm-9.79-1.12h-.11c-1.53-.37-2.64-1.51-3.82-2.71L206,57a.5.5,0,0,1,0-.71.49.49,0,0,1,.7,0l.38.38a7.66,7.66,0,0,0,3.33,2.43.5.5,0,0,1-.12,1ZM55.69,57.26a.5.5,0,0,1-.49-.43l-.74-4.94a.5.5,0,0,1,1-.15l.74,4.95a.5.5,0,0,1-.42.56Zm146.68-3.08a.54.54,0,0,1-.21,0,10.13,10.13,0,0,0-3.23-.87A8.6,8.6,0,0,1,197.4,53a.5.5,0,0,1-.33-.63.49.49,0,0,1,.63-.32,6.64,6.64,0,0,0,1.34.26,11.49,11.49,0,0,1,3.54,1,.5.5,0,0,1-.21,1ZM195.6,49l-.12,0a.49.49,0,0,1-.36-.6,21.72,21.72,0,0,1,1.41-3.65c.17-.36.34-.72.49-1.06a.49.49,0,0,1,.65-.26.49.49,0,0,1,.26.66c-.15.35-.32.71-.49,1.08a21.32,21.32,0,0,0-1.35,3.47A.51.51,0,0,1,195.6,49Zm-142-1.4a.52.52,0,0,1-.38-.17L50,43.66a.51.51,0,0,1,.06-.71.49.49,0,0,1,.7.06L54,46.81a.49.49,0,0,1-.05.7A.52.52,0,0,1,53.64,47.63Zm-6.17-7.86a.48.48,0,0,1-.4-.21l-2.89-4.08a.49.49,0,0,1,.12-.69.5.5,0,0,1,.69.11L47.88,39a.49.49,0,0,1-.12.69A.48.48,0,0,1,47.47,39.77Zm150-.06a.5.5,0,0,1-.39-.18A6.73,6.73,0,0,0,193,37.47a.5.5,0,0,1-.4-.58.49.49,0,0,1,.58-.4,7.6,7.6,0,0,1,4.66,2.41.5.5,0,0,1-.08.7A.45.45,0,0,1,197.42,39.71ZM135.34,38.4h0a8.25,8.25,0,0,1-1.08-.07.49.49,0,0,1-.43-.56.49.49,0,0,1,.56-.43,7.94,7.94,0,0,0,1,.06h0a8.73,8.73,0,0,0,3.63-.89.52.52,0,0,1,.66.26.5.5,0,0,1-.26.66A9.8,9.8,0,0,1,135.34,38.4Zm52-.73h0a8.3,8.3,0,0,1-4.21-1.25.49.49,0,0,1-.18-.68.51.51,0,0,1,.69-.18,7.38,7.38,0,0,0,3.71,1.11c.24,0,.49,0,.75-.05a.5.5,0,1,1,.12,1A6.07,6.07,0,0,1,187.3,37.67Zm-57.47-1.29a.53.53,0,0,1-.4-.19,3.54,3.54,0,0,1-.73-2.28,10,10,0,0,1,.2-1.75,10.71,10.71,0,0,0,.15-1.15.49.49,0,0,1,.53-.47.5.5,0,0,1,.47.53,9.58,9.58,0,0,1-.17,1.25,11.06,11.06,0,0,0-.18,1.59,2.56,2.56,0,0,0,.52,1.66.5.5,0,0,1-.08.7A.51.51,0,0,1,129.83,36.38ZM144,36.2h-.12a.5.5,0,0,1-.49-.52.51.51,0,0,1,.51-.48h0c1.44,0,2.25-.94,3.27-2.13l.32-.37a.5.5,0,1,1,.75.66l-.31.36C146.88,35,145.85,36.2,144,36.2Zm21.18-1a.5.5,0,0,1-.39-.18,15.29,15.29,0,0,0-3.64-3.16.51.51,0,0,1-.16-.69.49.49,0,0,1,.69-.16,16.28,16.28,0,0,1,3.89,3.38.49.49,0,0,1-.08.7A.45.45,0,0,1,165.22,35.18Zm14.33-2a.48.48,0,0,1-.38-.17A17.84,17.84,0,0,1,178,31.54l-2.61.09a.5.5,0,0,1,0-1l3.4-.11v.36a17.68,17.68,0,0,0,1.16,1.52.51.51,0,0,1-.06.71A.46.46,0,0,1,179.55,33.22ZM41,32.74H41l-5-.54a.5.5,0,0,1,.11-1l5,.55a.5.5,0,0,1,.44.55A.5.5,0,0,1,41,32.74Zm129.52-1.9a.65.65,0,0,1-.19,0l-3.05-1.22-.18.59a.49.49,0,0,1-.62.34.51.51,0,0,1-.34-.62l.49-1.64,4.07,1.62a.5.5,0,0,1-.18,1Zm-18.68-.25a.5.5,0,0,1-.17-1,10.1,10.1,0,0,1,2.41-.52,11,11,0,0,1,2.76.06.5.5,0,0,1-.14,1,10.08,10.08,0,0,0-2.52,0,8.86,8.86,0,0,0-2.17.46ZM126,29.09h-.09a14.19,14.19,0,0,1-4.77-1.95.5.5,0,1,1,.52-.85,13.25,13.25,0,0,0,4.44,1.82.48.48,0,0,1,.39.58A.49.49,0,0,1,126,29.09ZM33.68,29a.5.5,0,0,1-.49-.45l-.13-1-2.8-2.17a.5.5,0,0,1,.61-.79L34,27l.17,1.45a.5.5,0,0,1-.44.55Zm83.44-4.46a.42.42,0,0,1-.22-.05,4.94,4.94,0,0,0-2.14-.56h0a3,3,0,0,0-.52,0,14.62,14.62,0,0,1-1.93.14.54.54,0,0,1-.54-.5.47.47,0,0,1,.46-.5,14.32,14.32,0,0,0,1.87-.13c.22,0,.44,0,.67-.05a5.8,5.8,0,0,1,2.57.66.5.5,0,0,1-.21.95ZM107.42,23a.52.52,0,0,1-.24-.05,13.57,13.57,0,0,1-4-3.31.51.51,0,0,1,.06-.71.49.49,0,0,1,.7.06A12.46,12.46,0,0,0,107.65,22a.5.5,0,0,1,.21.68A.49.49,0,0,1,107.42,23Zm-80.81-.52a.52.52,0,0,1-.31-.1l-1.87-1.46-1.66,1a.5.5,0,1,1-.52-.86l2.25-1.36,2.42,1.88a.51.51,0,0,1,.09.7A.53.53,0,0,1,26.61,22.43Zm-8.46-.68a.46.46,0,0,1-.23-.06l-1-.51-3.7-.5a.49.49,0,0,1-.43-.56.52.52,0,0,1,.56-.43l4,.56,1,.56a.5.5,0,0,1,.21.67A.51.51,0,0,1,18.15,21.75Zm-9-2.95a.49.49,0,0,1-.41-.21l-3-4a.5.5,0,0,1,.8-.6l3,4a.5.5,0,0,1-.11.7A.53.53,0,0,1,9.1,18.8Zm91.46-3a.51.51,0,0,1-.31-.11,7,7,0,0,0-4.39-1.33.49.49,0,0,1-.49-.51.5.5,0,0,1,.51-.49,7.92,7.92,0,0,1,5,1.55.5.5,0,0,1,.08.7A.48.48,0,0,1,100.56,15.83ZM87.65,15a11.32,11.32,0,0,1-1.83-.13.5.5,0,0,1-.41-.58.49.49,0,0,1,.57-.41,21,21,0,0,0,4.85-.1.5.5,0,0,1,.11,1C89.93,14.85,88.75,15,87.65,15Zm-28.13-.31a17,17,0,0,1-3.06-.23.5.5,0,0,1,.18-1,20.37,20.37,0,0,0,4.75.15h.12a.47.47,0,0,1,.52.47.5.5,0,0,1-.47.53h-.12C60.75,14.64,60.1,14.66,59.52,14.66Zm7-.49a.5.5,0,0,1-.06-1c1.83-.22,3.44-.49,4.92-.74a.51.51,0,0,1,.58.41.51.51,0,0,1-.41.58c-1.49.25-3.12.52-5,.74Zm14.84-1.3-.14,0a11.66,11.66,0,0,0-4.76-.21.5.5,0,0,1-.55-.44.49.49,0,0,1,.44-.55,12.53,12.53,0,0,1,5.16.24.5.5,0,0,1-.15,1ZM2.12,12.8H.46l-.08-.41A26.82,26.82,0,0,1,0,8.58a.5.5,0,0,1,.49-.52h0a.51.51,0,0,1,.5.49,25.79,25.79,0,0,0,.3,3.25h.82a.51.51,0,0,1,.5.5A.5.5,0,0,1,2.12,12.8Zm50.39-1a.49.49,0,0,1-.39-.19c-.57-.74-1.16-1.31-3.1-1.31a4,4,0,0,0-.89,0L48,9.85v-.5c.41,0,.73,0,1,0h0c2.38,0,3.23.84,3.89,1.69a.51.51,0,0,1-.09.71A.5.5,0,0,1,52.51,11.81ZM43.09,9.58a.36.36,0,0,1-.14,0c-1.37-.4-2.93-1-4.76-1.68A.5.5,0,1,1,38.56,7c1.8.71,3.33,1.25,4.67,1.64a.5.5,0,0,1,.34.62A.49.49,0,0,1,43.09,9.58ZM33.76,6a.48.48,0,0,1-.2,0l-2-.88L29,3.9a.5.5,0,0,1-.26-.65A.5.5,0,0,1,29.38,3L32,4.13,34,5a.51.51,0,0,1,.26.66A.5.5,0,0,1,33.76,6ZM1.17,4.14A.46.46,0,0,1,1,4.1a.49.49,0,0,1-.27-.65,4.1,4.1,0,0,1,4-2.88h.37a.49.49,0,0,1,.46.53A.5.5,0,0,1,5,1.58H4.69A3.12,3.12,0,0,0,1.63,3.82.48.48,0,0,1,1.17,4.14ZM12.44,2.7a19.13,19.13,0,0,1-2.58-.2.5.5,0,0,1-.43-.56A.51.51,0,0,1,10,1.51a12.93,12.93,0,0,0,4.8-.06.5.5,0,0,1,.21,1A12,12,0,0,1,12.44,2.7Zm12.11-.65a.47.47,0,0,1-.17,0A13.58,13.58,0,0,0,20.2,1h0a3,3,0,0,0-.43,0,.51.51,0,0,1-.57-.42A.51.51,0,0,1,19.61,0a5.3,5.3,0,0,1,.59,0,14.25,14.25,0,0,1,4.52,1.08.5.5,0,0,1,.3.64A.52.52,0,0,1,24.55,2.05Z"/></g></g></g></svg>