<svg xmlns="http://www.w3.org/2000/svg" viewBox="0 0 174.33 91.46"><defs><style>.cls-1{fill:#26377a;}</style></defs><g id="Layer_2" data-name="Layer 2"><g id="Layer_1-2" data-name="Layer 1"><g id="Path_1010" data-name="Path 1010"><path class="cls-1" d="M160.71,64.75h-.07a21.72,21.72,0,0,1-4.86-1.64.5.5,0,0,1,.39-.92,21.06,21.06,0,0,0,4.6,1.57.5.5,0,0,1-.06,1Zm9.67-.41-.15,0-.16,0a10,10,0,0,0-4.5-.76.5.5,0,1,1-.14-1,10.87,10.87,0,0,1,5,.81l.13,0a.51.51,0,0,1,.33.63A.51.51,0,0,1,170.38,64.34Zm3.28-2.72h-.09a.49.49,0,0,1-.4-.58,12,12,0,0,0,.16-2c0-.26,0-.48,0-.64l-1.47-.82a.5.5,0,0,1-.2-.68.51.51,0,0,1,.68-.2l2,1.09,0,.26s0,.4,0,1a12.34,12.34,0,0,1-.18,2.17A.49.49,0,0,1,173.66,61.62Zm-22.27-.48a.79.79,0,0,1-.2,0,45.66,45.66,0,0,0-4.62-1.78.5.5,0,0,1-.33-.62.49.49,0,0,1,.63-.33,45.77,45.77,0,0,1,4.72,1.81.5.5,0,0,1,.26.66A.52.52,0,0,1,151.39,61.14Zm-9.6-2.43h-.08a2.75,2.75,0,0,1-2-1.3,2.85,2.85,0,0,0-2.1-1.31.5.5,0,0,1-.39-.59.49.49,0,0,1,.58-.39,3.76,3.76,0,0,1,2.71,1.69,1.77,1.77,0,0,0,1.34.91.5.5,0,0,1-.08,1Zm-68.34,0h-.08a26.82,26.82,0,0,1-4.92-1.33.5.5,0,1,1,.35-.93,25.61,25.61,0,0,0,4.72,1.27.5.5,0,0,1-.07,1Zm37.46-.76a3.27,3.27,0,0,1-2.61-1.13.51.51,0,0,1,.06-.71.49.49,0,0,1,.7.06c.8.94,1.9,1.05,4.13.34a.5.5,0,0,1,.63.32.49.49,0,0,1-.32.63A8.55,8.55,0,0,1,110.91,57.93Zm11.93-.6h0a5.38,5.38,0,0,1-2.86-1,2.12,2.12,0,0,0-1.27-.36c-.17,0-.32,0-.49,0a.5.5,0,0,1-.56-.43.51.51,0,0,1,.44-.56c.21,0,.42,0,.61,0a3.12,3.12,0,0,1,1.85.55,4.54,4.54,0,0,0,2.36.81.5.5,0,0,1,0,1Zm-45.25-.16-.17,0a.5.5,0,0,1-.29-.65,16.42,16.42,0,0,0,.67-4.78.49.49,0,0,1,.52-.48.5.5,0,0,1,.48.51,17.13,17.13,0,0,1-.74,5.1A.5.5,0,0,1,77.59,57.17Zm50.21-.38a.49.49,0,0,1-.49-.42.48.48,0,0,1,.4-.57c1.49-.26,3.1-.52,5-.69a.5.5,0,1,1,.09,1c-1.85.16-3.44.42-4.91.67ZM65.05,54.3a.5.5,0,0,1-.47-.33l-.39-1.09c-.45-1.28-1-2.74-1.35-3.55a.5.5,0,1,1,.9-.43c.41.85.93,2.34,1.4,3.65l.38,1.08a.51.51,0,0,1-.3.65A.47.47,0,0,1,65.05,54.3Zm103.77-.36a.51.51,0,0,1-.4-.2l-1.06-1.44-2.77-.37a.5.5,0,0,1-.43-.56.51.51,0,0,1,.57-.43l3.18.43,1.32,1.77a.51.51,0,0,1-.11.7A.47.47,0,0,1,168.82,53.94Zm-11.67-1.23a2.55,2.55,0,0,1-1.9-.86l-.45-.51a.49.49,0,0,1,0-.7.5.5,0,0,1,.7,0l.45.51a1.53,1.53,0,0,0,1.15.52l2.48-.41a.5.5,0,1,1,.17,1Zm-50.48-.28a.51.51,0,0,1-.48-.36l-.08-.28c-.52-1.72-.92-3.09-2-3.69a.5.5,0,0,1,.49-.88c1.45.81,1.93,2.42,2.49,4.29l.08.27a.49.49,0,0,1-.33.62A.4.4,0,0,1,106.67,52.43Zm45.25-4.71a.49.49,0,0,1-.38-.18l-1.91-2.26,0-.15a.43.43,0,0,0-.43-.39l-.76.09a.5.5,0,1,1-.12-1l.78-.1a1.48,1.48,0,0,1,1.5,1.11l1.72,2a.5.5,0,0,1-.38.82Zm-73.57-.51h0a.5.5,0,0,1-.5-.5c0-2.66.12-4.36.6-5.19a.5.5,0,1,1,.86.5c-.44.76-.45,3.32-.46,4.7A.5.5,0,0,1,78.35,47.21Zm64.16-1.67a2,2,0,0,1-1.65-.86l-.07-.13L140,42a.5.5,0,1,1,.95-.31l.79,2.44a1,1,0,0,0,.8.38l.83-.1a.5.5,0,0,1,.12,1Zm-78.79-.22a.51.51,0,0,1-.46-.32,15.69,15.69,0,0,0-4.06-2.14.5.5,0,0,1,.38-.93c.86.35,3.7,1.56,4.48,2.47a.67.67,0,0,1,.16.34.5.5,0,0,1-.42.57Zm-.41-.27Zm-.08-.15Zm38.49.32a.32.32,0,0,1-.14,0,.48.48,0,0,1-.33-.62l0-.16a6.49,6.49,0,0,0,.36-1.69c0-.49-.14-1-1.15-1.43a1.93,1.93,0,0,1-.41-.2.5.5,0,1,1,.51-.85,1.42,1.42,0,0,0,.25.12,2.43,2.43,0,0,1,1.8,2.36,6.79,6.79,0,0,1-.41,2l0,.16A.5.5,0,0,1,101.72,45.22ZM33.63,41.38h-.15a1.56,1.56,0,0,1-1-.52.49.49,0,0,1,0-.7.5.5,0,0,1,.71,0,.6.6,0,0,0,.33.21h0a14.18,14.18,0,0,0,3.84-1.11.5.5,0,1,1,.36.93A13.36,13.36,0,0,1,33.63,41.38Zm21,0h-.11a5.79,5.79,0,0,0-2-.19,8.83,8.83,0,0,1-2.89.1.51.51,0,0,1-.43-.56.5.5,0,0,1,.57-.43,7.93,7.93,0,0,0,2.56-.09,6.53,6.53,0,0,1,2.44.19.52.52,0,0,1,.39.6A.51.51,0,0,1,54.64,41.34Zm28.64-1.28a.49.49,0,0,1-.43-.26.5.5,0,0,1,.19-.68l.35-.2c1.26-.7,2.68-1.5,4.07-2.2a.51.51,0,0,1,.67.22.5.5,0,0,1-.22.67c-1.37.69-2.78,1.49-4,2.19l-.35.2A.54.54,0,0,1,83.28,40.06ZM46.09,38.37h0a.5.5,0,0,1-.49-.5,3.17,3.17,0,0,1,0-.53,13.55,13.55,0,0,0-3.24,1,.5.5,0,0,1-.37-.93,12,12,0,0,1,3.63-1c.75,0,1,.44,1,.84a1.08,1.08,0,0,1,0,.3,1.74,1.74,0,0,0,0,.39A.5.5,0,0,1,46.09,38.37Zm92.69-.68a.49.49,0,0,1-.38-.18l-2.67-3.12.22-1.34a.5.5,0,0,1,1,.16l-.14.89,2.36,2.76a.51.51,0,0,1,0,.71A.52.52,0,0,1,138.78,37.69Zm-41.95-.06a.48.48,0,0,1-.34-.13c-1.42-1.31-2.65-1.83-4.08-1.63a.5.5,0,0,1-.57-.42.51.51,0,0,1,.43-.57c1.76-.25,3.25.36,4.9,1.89a.49.49,0,0,1,0,.7A.46.46,0,0,1,96.83,37.63ZM31,36.41a.49.49,0,0,1-.48-.38c-.35-1.39-.69-3.06-1-4.94a.5.5,0,0,1,.41-.58.49.49,0,0,1,.57.41c.31,1.86.64,3.5,1,4.87a.51.51,0,0,1-.37.61Zm106.25-7.72h-.08a.5.5,0,0,1-.41-.58l.5-3.05-.81-1.31a.5.5,0,0,1,.86-.52l1,1.63-.55,3.42A.5.5,0,0,1,137.25,28.69ZM28.39,26.93a.53.53,0,0,1-.3-.09,2.55,2.55,0,0,0-.82-.42l-3.72.19a.5.5,0,1,1-.05-1l3.88-.21.08,0a4,4,0,0,1,1.23.6.5.5,0,0,1,.1.7A.48.48,0,0,1,28.39,26.93Zm-10.58,0-3.14-3.54a.5.5,0,0,1,0-.71.51.51,0,0,1,.71.05l2.82,3.18.26,0a.51.51,0,0,1,.53.48.5.5,0,0,1-.48.52Zm31-.84h-.23l-.19-.17-.43-.48a.5.5,0,0,1,0-.7.5.5,0,0,1,.71,0l.26.29a23.22,23.22,0,0,0,3.83-1.12.51.51,0,0,1,.64.31.5.5,0,0,1-.31.63C49.71,26.05,49,26.07,48.77,26.07ZM45,21.87a.52.52,0,0,1-.38-.17l-3.13-3.49a1.51,1.51,0,0,1-.24-.34.5.5,0,1,1,.87-.48.83.83,0,0,0,.12.16L45.33,21a.49.49,0,0,1,0,.7A.46.46,0,0,1,45,21.87Zm11-.61a.46.46,0,0,1-.23-.06.5.5,0,0,1-.21-.68l2.35-4.41a.49.49,0,0,1,.67-.21.5.5,0,0,1,.21.68L56.38,21A.5.5,0,0,1,55.94,21.26ZM11.73,19.79a.51.51,0,0,1-.38-.16l-.4-.46a.93.93,0,0,1-.37-.74c0-.29,0-1.15,2.91-3.12a.5.5,0,1,1,.56.82c-2,1.38-2.47,2.12-2.47,2.3l.52.53a.51.51,0,0,1,0,.71A.54.54,0,0,1,11.73,19.79Zm122.54-.06a.49.49,0,0,1-.42-.24l-.65-1L134.82,16l-.28-1a.5.5,0,0,1,1-.27l.39,1.41-1.51,2.31.31.5a.5.5,0,0,1-.17.69A.5.5,0,0,1,134.27,19.73ZM43.87,14a.49.49,0,0,1-.34-.14.5.5,0,0,1,0-.71c1.17-1.23,2.51-2.63,2.56-3.78a.52.52,0,0,1,.53-.48.5.5,0,0,1,.47.53c-.07,1.52-1.48,3-2.84,4.42A.5.5,0,0,1,43.87,14ZM18.2,13.91a.5.5,0,0,1-.17-1l4.72-1.65a1.1,1.1,0,0,0,.35-.2,1.2,1.2,0,0,0,.2-1.67l-.84-1.06a.5.5,0,0,1,.79-.62l.83,1.06a2.16,2.16,0,0,1,.47,1.36,2.18,2.18,0,0,1-.83,1.72,2.22,2.22,0,0,1-.64.35l-4.72,1.65A.45.45,0,0,1,18.2,13.91Zm42.72-.82a.5.5,0,0,1-.12-1,36.9,36.9,0,0,1,5-.66.49.49,0,0,1,.54.46.5.5,0,0,1-.46.54,35.71,35.71,0,0,0-4.89.63Zm72.72-1.19h0l-1.92-.19-.92-3.66a.5.5,0,0,1,.36-.61.51.51,0,0,1,.61.36l.75,3,1.21.12a.5.5,0,0,1,.45.55A.49.49,0,0,1,133.64,11.9ZM70.35,11a.48.48,0,0,1-.34-.13.51.51,0,0,1,0-.71L73.4,6.5a.5.5,0,0,1,.71,0,.49.49,0,0,1,0,.7l-3.42,3.65A.46.46,0,0,1,70.35,11Zm44-.26-.42-.1a.5.5,0,0,1-.38-.6.49.49,0,0,1,.57-.38l3.22-2.41.77-.14a.5.5,0,0,1,.18,1l-.54.1Zm12.09-.84-3.6-1.27a.5.5,0,0,1-.31-.63.51.51,0,0,1,.64-.31l3,1,.77-.89a.5.5,0,0,1,.76.65Zm-17-.89a.47.47,0,0,1-.3-.1l-4-3a.5.5,0,1,1,.61-.79l4,3a.5.5,0,0,1-.3.9ZM79,5.56l-1.39-.28a.5.5,0,1,1,.2-1L79,4.54l3.51-.71a.5.5,0,0,1,.2,1ZM45.15,5.09a.51.51,0,0,1-.48-.35l-.16-.48c-.27-.24-1-.51-2.7-.51-.34,0-.7,0-1.05,0a.48.48,0,0,1-.52-.48.5.5,0,0,1,.48-.52c.36,0,.73,0,1.09,0,1.89,0,3,.29,3.52.92l.1.17.19.59a.5.5,0,0,1-.32.63A.4.4,0,0,1,45.15,5.09ZM23.32,4.22a.46.46,0,0,1-.27-.09.5.5,0,0,1-.15-.69,7.88,7.88,0,0,1,4-3.42.5.5,0,0,1,.62.34.5.5,0,0,1-.35.62,7,7,0,0,0-3.42,3A.51.51,0,0,1,23.32,4.22ZM35.75,3.9h0l-4.51-.21-.62-.3a.5.5,0,0,1-.23-.67A.49.49,0,0,1,31,2.49l.53.25,4.21.16a.5.5,0,0,1,0,1Zm51.74-.08a.51.51,0,0,1-.49-.4.5.5,0,0,1,.39-.59l1.72-.35L91.81,1a.5.5,0,1,1,.48.87l-2.91,1.6-1.79.37Zm14-.89a.49.49,0,0,1-.3-.1l-.54-.41-4-.79a.49.49,0,0,1-.4-.58.51.51,0,0,1,.59-.4l4.24.84.72.55a.5.5,0,0,1,.1.7A.53.53,0,0,1,101.5,2.93Z"/></g><g id="Path_1020" data-name="Path 1020"><path class="cls-1" d="M22.83,91.46l-1.35-.19a.51.51,0,0,1-.42-.57.5.5,0,0,1,.56-.42l.21,0v-.47l-.95-1.68-.51-.2,0-.5a.51.51,0,0,1,.16-.67.49.49,0,0,1,.69.15l.18.26v.11l.15.06,1.25,2.21Zm-4.46-.31A.51.51,0,0,1,18,91l-.48-.52-1.67-.32-1.71-.84-.47-.46a.51.51,0,0,1,0-.71.5.5,0,0,1,.71,0l.41.41,1.43.67,1.8.33.71.75a.49.49,0,0,1-.37.84Zm-7.88-4.56h-.06a.49.49,0,0,1-.44-.52l-1.31-.91-1.93-.73-.62-.5a.5.5,0,1,1,.62-.78l.57.45,1.88.7,1.86,1.29-.07.57A.51.51,0,0,1,10.49,86.59Zm7.83-2.32a.56.56,0,0,1-.32-.11l-.41-.39-.71-1.33V80.12l-.4-.62v-.31a.5.5,0,0,1,1,0v0l.4.62v2.36l.55,1,.21.17a.52.52,0,0,1,.07.71A.5.5,0,0,1,18.32,84.27ZM5.09,80.38a.51.51,0,0,1-.41-.21l-.16-.24L3,79.1,2.18,78l.24-.36-.62-.51-.06-.56A.5.5,0,0,1,2.17,76a.51.51,0,0,1,.56.44l0,.17,1,.83L3.41,78l.34.44,1.45.75.3.45a.49.49,0,0,1-.12.69A.52.52,0,0,1,5.09,80.38ZM17.3,75a.49.49,0,0,1-.48-.37l-.27-1-1-1.52-1.37-1.26a.51.51,0,0,1,0-.71.5.5,0,0,1,.71,0l1.48,1.38,1.2,1.79.28,1.07a.5.5,0,0,1-.35.61ZM1.61,72.44a.52.52,0,0,1-.46-.29L1,71.68.42,67.92l-.34-.51a.5.5,0,0,1,.84-.55l.47.8.55,3.81.12.26a.49.49,0,0,1-.24.66A.54.54,0,0,1,1.61,72.44Zm7.06-2.71-.84-.63-.24,0A.5.5,0,0,1,7,68.68a.5.5,0,0,1,.45-.55l.62-.07.6.45.2-.13v-.79l1.24-1.18v.65h0l.44-.44.33-.07a.5.5,0,1,1,.22,1h-.05l-.5.5-.71,0v.85ZM5.12,68.41H5.06a.51.51,0,0,1-.44-.56l.13-1.06-.34-.3H3.2l-.31-.63-.8-.22A.48.48,0,0,1,1.74,65a.5.5,0,0,1,.61-.35L3.58,65l.24.48h1l1,.9L5.62,68A.51.51,0,0,1,5.12,68.41Z"/></g></g></g></svg>