<svg xmlns="http://www.w3.org/2000/svg" viewBox="0 0 1109.96 263"><defs><style>.cls-1{fill:#2a3791;}</style></defs><g id="Layer_2" data-name="Layer 2"><g id="Layer_1-2" data-name="Layer 1"><polygon class="cls-1" points="0.76 229.25 1.34 229.22 1.25 227.74 0.67 227.74 0.76 229.25"/><rect class="cls-1" x="1106.58" y="237.04" width="0.58" height="1.75" transform="translate(-0.58 473.11) rotate(-24.12)"/><rect class="cls-1" x="1096.53" y="214.65" width="0.58" height="1.75" transform="translate(7.93 468.09) rotate(-24.18)"/><polygon class="cls-1" points="1104.89 262.13 1105.46 262.27 1105.88 260.56 1105.32 260.42 1104.89 262.13"/><rect class="cls-1" x="1108.01" y="240.24" width="0.58" height="1.75" transform="translate(-1.66 474.45) rotate(-24.15)"/><polygon class="cls-1" points="1107 253.62 1106.58 255.32 1107.14 255.46 1107.57 253.76 1107 253.62"/><rect class="cls-1" x="1107.88" y="247.44" width="1.75" height="0.58" transform="translate(602.61 1264.85) rotate(-76.14)"/><rect class="cls-1" x="1107.04" y="250.84" width="1.75" height="0.58" transform="translate(598.15 1266.36) rotate(-76.11)"/><polygon class="cls-1" points="1079.93 200.53 1080.06 200.26 1080.28 200.08 1079.18 198.72 1078.73 199.09 1079.83 200.45 1079.93 200.53"/><rect class="cls-1" x="1105.35" y="257.65" width="1.75" height="0.58" transform="translate(590.26 1269.9) rotate(-76.11)"/><rect class="cls-1" x="1077.02" y="195.98" width="0.59" height="1.75" transform="translate(115.06 719.75) rotate(-38.88)"/><rect class="cls-1" x="1082.03" y="200.73" width="0.58" height="1.75" transform="translate(358.25 1030.93) rotate(-59.43)"/><rect class="cls-1" x="1074.81" y="193.25" width="0.59" height="1.75" transform="translate(116.63 718.4) rotate(-38.91)"/><polygon class="cls-1" points="1109.67 245.25 1109.96 244.09 1109.65 243.4 1109.12 243.64 1109.35 244.15 1109.11 245.11 1109.67 245.25"/><rect class="cls-1" x="1085.05" y="202.51" width="0.58" height="1.75" transform="matrix(0.51, -0.86, 0.86, 0.51, 357.44, 1033.75)"/><polygon class="cls-1" points="1072.52 190.59 1072.52 191.39 1073.23 192.27 1073.68 191.9 1072.58 190.53 1072.52 190.59"/><rect class="cls-1" x="1088.07" y="204.3" width="0.58" height="1.75" transform="translate(357.83 1037.61) rotate(-59.41)"/><rect class="cls-1" x="1103.71" y="230.65" width="0.58" height="1.75" transform="matrix(0.91, -0.41, 0.41, 0.91, 2.01, 472.44)"/><rect class="cls-1" x="1105.14" y="233.84" width="0.58" height="1.75" transform="translate(0.83 473.3) rotate(-24.18)"/><rect class="cls-1" x="1091.08" y="206.08" width="0.58" height="1.75" transform="translate(358.09 1041.36) rotate(-59.43)"/><rect class="cls-1" x="1102.27" y="227.45" width="0.58" height="1.75" transform="translate(3.07 470.99) rotate(-24.15)"/><rect class="cls-1" x="1100.84" y="224.25" width="0.58" height="1.75" transform="translate(4.48 471.17) rotate(-24.2)"/><rect class="cls-1" x="1095.1" y="211.46" width="0.58" height="1.75" transform="translate(8.98 466.65) rotate(-24.15)"/><rect class="cls-1" x="1093.66" y="208.26" width="0.58" height="1.75" transform="translate(10.41 466.82) rotate(-24.2)"/><rect class="cls-1" x="1097.97" y="217.85" width="0.58" height="1.75" transform="translate(6.75 468.96) rotate(-24.18)"/><rect class="cls-1" x="1099.4" y="221.05" width="0.58" height="1.75" transform="translate(5.67 470.3) rotate(-24.2)"/><polygon class="cls-1" points="6.42 254.81 6.96 256.48 7.51 256.3 6.98 254.63 6.42 254.81"/><rect class="cls-1" x="6.12" y="258.52" width="1.75" height="0.59" transform="translate(-226.95 147.9) rotate(-63.09)"/><rect class="cls-1" x="0.93" y="230.98" width="0.58" height="1.75" transform="translate(-14.7 0.54) rotate(-3.64)"/><polygon class="cls-1" points="5.35 251.47 5.88 253.14 6.44 252.96 5.9 251.29 5.35 251.47"/><polygon class="cls-1" points="1.9 237.96 1.31 238 1.4 239.21 1.59 239.79 2.14 239.61 1.97 239.1 1.9 237.96"/><polygon class="cls-1" points="2.12 241.46 2.66 243.13 3.22 242.95 2.68 241.28 2.12 241.46"/><polygon class="cls-1" points="3.2 244.8 3.73 246.47 4.29 246.29 3.75 244.62 3.2 244.8"/><polygon class="cls-1" points="4.27 248.13 4.81 249.8 5.37 249.62 4.83 247.96 4.27 248.13"/><rect class="cls-1" x="1.15" y="234.48" width="0.58" height="1.75" transform="translate(-14.79 0.56) rotate(-3.6)"/><rect class="cls-1" x="528.62" y="150.43" width="0.58" height="1.75" transform="translate(282.15 642.99) rotate(-79.31)"/><polygon class="cls-1" points="786.54 73.95 786.46 73.99 785.49 75.47 785.98 75.79 786.9 74.38 786.72 74.26 786.54 73.95"/><rect class="cls-1" x="783.42" y="77.54" width="1.75" height="0.58" transform="translate(289.82 691.57) rotate(-56.81)"/><polygon class="cls-1" points="788.22 73.25 788.45 73.79 790.06 73.11 789.84 72.57 788.22 73.25"/><rect class="cls-1" x="781.5" y="80.48" width="1.75" height="0.58" transform="translate(286.5 691.3) rotate(-56.81)"/><polygon class="cls-1" points="791.46 71.89 791.68 72.43 793.3 71.75 793.07 71.22 791.46 71.89"/><rect class="cls-1" x="777.67" y="86.35" width="1.75" height="0.58" transform="translate(279.85 690.74) rotate(-56.81)"/><rect class="cls-1" x="779.59" y="83.41" width="1.75" height="0.58" transform="translate(283.17 691.02) rotate(-56.81)"/><rect class="cls-1" x="794.73" y="70.18" width="1.75" height="0.59" transform="translate(34.45 312.53) rotate(-22.7)"/><rect class="cls-1" x="802.49" y="59.63" width="1.75" height="0.58" transform="translate(444.29 781.07) rotate(-67.8)"/><rect class="cls-1" x="803.81" y="56.39" width="1.75" height="0.58" transform="translate(448.12 780.28) rotate(-67.8)"/><polygon class="cls-1" points="738.37 124.4 738.64 124.92 740.19 124.09 739.91 123.57 738.37 124.4"/><polygon class="cls-1" points="800.12 67.12 800.66 67.34 801.32 65.72 800.78 65.5 800.12 67.12"/><rect class="cls-1" x="775.75" y="89.28" width="1.75" height="0.58" transform="translate(276.52 690.47) rotate(-56.81)"/><polygon class="cls-1" points="805.41 54.13 805.95 54.35 806.56 52.85 806.58 52.62 806 52.6 805.41 54.13"/><rect class="cls-1" x="797.96" y="68.82" width="1.75" height="0.59" transform="translate(35.22 313.67) rotate(-22.7)"/><polygon class="cls-1" points="759.98 112.77 760.25 113.29 761.79 112.46 761.52 111.94 759.98 112.77"/><rect class="cls-1" x="756.92" y="113.98" width="1.75" height="0.58" transform="translate(35.85 371.39) rotate(-28.18)"/><polygon class="cls-1" points="750.72 117.76 750.99 118.27 752.53 117.44 752.26 116.93 750.72 117.76"/><polygon class="cls-1" points="753.8 116.1 754.08 116.61 755.62 115.78 755.35 115.27 753.8 116.1"/><polygon class="cls-1" points="747.63 119.42 747.9 119.93 749.45 119.1 749.17 118.59 747.63 119.42"/><polygon class="cls-1" points="741.45 122.74 741.73 123.26 743.27 122.42 743 121.91 741.45 122.74"/><rect class="cls-1" x="744.57" y="120.63" width="1.75" height="0.58" transform="translate(31.25 366.35) rotate(-28.18)"/><rect class="cls-1" x="762.33" y="109.83" width="1.75" height="0.58" transform="translate(253.26 688.54) rotate(-56.81)"/><polygon class="cls-1" points="768.24 101.89 768.73 102.21 769.68 100.74 769.19 100.42 768.24 101.89"/><rect class="cls-1" x="770" y="98.09" width="1.75" height="0.58" transform="translate(266.54 689.62) rotate(-56.81)"/><rect class="cls-1" x="771.92" y="95.15" width="1.75" height="0.58" transform="translate(269.88 689.92) rotate(-56.81)"/><polygon class="cls-1" points="764.4 107.76 764.89 108.08 765.85 106.61 765.36 106.29 764.4 107.76"/><rect class="cls-1" x="773.83" y="92.22" width="1.75" height="0.58" transform="translate(273.2 690.19) rotate(-56.81)"/><rect class="cls-1" x="766.17" y="103.96" width="1.75" height="0.58" transform="translate(259.91 689.09) rotate(-56.81)"/><polygon class="cls-1" points="801.44 63.87 801.99 64.09 802.64 62.47 802.1 62.25 801.44 63.87"/><rect class="cls-1" x="848.39" y="10.68" width="1.75" height="0.58" transform="translate(254.31 617.1) rotate(-46.27)"/><rect class="cls-1" x="850.81" y="8.14" width="1.75" height="0.58" transform="translate(256.88 618.07) rotate(-46.27)"/><rect class="cls-1" x="855.66" y="3.08" width="1.75" height="0.58" transform="translate(262.04 620.01) rotate(-46.27)"/><rect class="cls-1" x="853.23" y="5.61" width="1.75" height="0.58" transform="translate(259.46 619.04) rotate(-46.27)"/><rect class="cls-1" x="839.82" y="16.37" width="1.75" height="0.58" transform="translate(56.04 318.93) rotate(-22.2)"/><rect class="cls-1" x="845.97" y="13.21" width="1.75" height="0.58" transform="translate(251.73 616.13) rotate(-46.27)"/><rect class="cls-1" x="843.06" y="15.04" width="1.75" height="0.58" transform="translate(56.78 320.06) rotate(-22.2)"/><polygon class="cls-1" points="862.83 4.27 863.99 5.58 864.43 5.19 863.26 3.88 862.83 4.27"/><rect class="cls-1" x="865.66" y="6.48" width="0.58" height="1.75" transform="translate(212.26 575.35) rotate(-41.47)"/><rect class="cls-1" x="867.98" y="9.1" width="0.58" height="1.75" transform="translate(211.1 577.54) rotate(-41.47)"/><rect class="cls-1" x="858.08" y="0.54" width="1.75" height="0.58" transform="translate(264.62 620.97) rotate(-46.27)"/><rect class="cls-1" x="870.3" y="11.73" width="0.58" height="1.75" transform="translate(209.95 579.74) rotate(-41.47)"/><rect class="cls-1" x="861.01" y="1.23" width="0.58" height="1.75" transform="translate(214.57 570.95) rotate(-41.47)"/><polygon class="cls-1" points="836.53 18.05 836.75 18.59 838.37 17.93 838.15 17.39 836.53 18.05"/><rect class="cls-1" x="823.6" y="23.01" width="1.75" height="0.58" transform="translate(52.33 313.29) rotate(-22.2)"/><polygon class="cls-1" points="806.35 36.83 806.93 36.84 806.97 35.09 806.38 35.08 806.35 36.83"/><rect class="cls-1" x="805.86" y="32.16" width="1.75" height="0.58" transform="translate(759.06 838.43) rotate(-88.92)"/><polygon class="cls-1" points="807.33 30 807.55 30.54 809.17 29.88 808.95 29.34 807.33 30"/><rect class="cls-1" x="805.55" y="46.18" width="1.75" height="0.58" transform="translate(742.21 851.68) rotate(-88.74)"/><rect class="cls-1" x="872.63" y="14.36" width="0.58" height="1.75" transform="translate(208.79 581.94) rotate(-41.47)"/><polygon class="cls-1" points="806.19 43.84 806.77 43.85 806.81 42.1 806.23 42.09 806.19 43.84"/><rect class="cls-1" x="805.7" y="39.17" width="1.75" height="0.58" transform="translate(749.37 844.98) rotate(-88.74)"/><rect class="cls-1" x="833.33" y="19.03" width="1.75" height="0.58" transform="translate(54.56 316.68) rotate(-22.2)"/><polygon class="cls-1" points="806.04 50.85 806.62 50.86 806.66 49.11 806.07 49.1 806.04 50.85"/><polygon class="cls-1" points="826.8 22.04 827.02 22.58 828.64 21.91 828.42 21.37 826.8 22.04"/><rect class="cls-1" x="830.09" y="20.36" width="1.75" height="0.58" transform="translate(53.82 315.55) rotate(-22.2)"/><polygon class="cls-1" points="817.06 26.02 817.28 26.56 818.91 25.89 818.69 25.36 817.06 26.02"/><rect class="cls-1" x="813.86" y="26.99" width="1.75" height="0.58" transform="translate(50.1 309.91) rotate(-22.2)"/><rect class="cls-1" x="820.35" y="24.34" width="1.75" height="0.58" transform="translate(51.59 312.17) rotate(-22.2)"/><rect class="cls-1" x="810.62" y="28.32" width="1.75" height="0.58" transform="translate(49.36 308.78) rotate(-22.2)"/><polygon class="cls-1" points="607.6 158.71 607.65 159.29 609.39 159.13 609.34 158.55 607.6 158.71"/><polygon class="cls-1" points="614.31 160.66 615.99 161.17 616.16 160.61 614.48 160.1 614.31 160.66"/><polygon class="cls-1" points="604.11 159.02 604.16 159.6 605.9 159.44 605.85 158.86 604.11 159.02"/><polygon class="cls-1" points="610.96 159.63 612.63 160.14 612.81 159.59 611.13 159.07 610.96 159.63"/><polygon class="cls-1" points="590.14 160.28 590.19 160.86 591.94 160.7 591.89 160.12 590.14 160.28"/><polygon class="cls-1" points="600.61 159.33 600.66 159.91 602.41 159.76 602.36 159.18 600.61 159.33"/><polygon class="cls-1" points="597.12 159.65 597.17 160.23 598.92 160.07 598.87 159.49 597.12 159.65"/><polygon class="cls-1" points="593.63 159.96 593.68 160.54 595.43 160.38 595.38 159.8 593.63 159.96"/><polygon class="cls-1" points="627.72 164.76 629.39 165.28 629.57 164.72 627.89 164.21 627.72 164.76"/><polygon class="cls-1" points="631.07 165.79 632.74 166.31 632.92 165.75 631.24 165.23 631.07 165.79"/><rect class="cls-1" x="635.05" y="165.92" width="0.58" height="1.75" transform="translate(290.15 725.66) rotate(-73.01)"/><polygon class="cls-1" points="617.66 161.68 619.34 162.2 619.51 161.64 617.83 161.13 617.66 161.68"/><polygon class="cls-1" points="624.36 163.74 626.04 164.25 626.21 163.69 624.54 163.18 624.36 163.74"/><polygon class="cls-1" points="637.77 167.85 639.45 168.36 639.62 167.8 637.95 167.29 637.77 167.85"/><polygon class="cls-1" points="621.01 162.71 622.69 163.22 622.86 162.67 621.19 162.15 621.01 162.71"/><rect class="cls-1" x="556.18" y="155.65" width="0.58" height="1.75" transform="translate(299.27 674.22) rotate(-79.29)"/><rect class="cls-1" x="552.73" y="155" width="0.58" height="1.75" transform="translate(297.21 670.35) rotate(-79.3)"/><polygon class="cls-1" points="559 157.3 560.72 157.63 560.83 157.06 559.11 156.73 559 157.3"/><polygon class="cls-1" points="545.22 154.69 546.94 155.02 547.05 154.45 545.33 154.12 545.22 154.69"/><polygon class="cls-1" points="548.66 155.35 550.39 155.67 550.49 155.1 548.77 154.77 548.66 155.35"/><polygon class="cls-1" points="541.77 154.04 543.5 154.37 543.61 153.8 541.88 153.47 541.77 154.04"/><polygon class="cls-1" points="562.44 157.95 564.16 158.28 564.27 157.71 562.55 157.38 562.44 157.95"/><rect class="cls-1" x="576.84" y="159.56" width="0.58" height="1.75" transform="translate(312.25 697.71) rotate(-79.29)"/><polygon class="cls-1" points="565.89 158.61 567.61 158.93 567.72 158.36 566 158.03 565.89 158.61"/><polygon class="cls-1" points="579.66 161.21 581.38 161.54 581.5 160.97 579.77 160.64 579.66 161.21"/><polygon class="cls-1" points="583.16 160.9 583.21 161.49 584.95 161.33 584.9 160.75 583.16 160.9"/><polygon class="cls-1" points="586.65 160.59 586.7 161.17 588.44 161.01 588.39 160.43 586.65 160.59"/><rect class="cls-1" x="569.95" y="158.26" width="0.58" height="1.75" transform="translate(308.13 689.98) rotate(-79.31)"/><polygon class="cls-1" points="572.77 159.91 574.5 160.24 574.61 159.66 572.88 159.34 572.77 159.91"/><polygon class="cls-1" points="711.88 131.99 711.96 132.57 713.7 132.31 713.61 131.73 711.88 131.99"/><polygon class="cls-1" points="704.94 133.04 705.03 133.61 706.76 133.35 706.67 132.78 704.94 133.04"/><polygon class="cls-1" points="701.48 133.56 701.56 134.14 703.3 133.88 703.21 133.3 701.48 133.56"/><polygon class="cls-1" points="735.28 126.06 735.56 126.58 737.1 125.75 736.82 125.23 735.28 126.06"/><rect class="cls-1" x="690.56" y="157.1" width="1.75" height="0.58" transform="matrix(0.85, -0.53, 0.53, 0.85, 21.21, 389.04)"/><polygon class="cls-1" points="698.01 134.08 698.1 134.66 699.83 134.4 699.74 133.82 698.01 134.08"/><rect class="cls-1" x="693.53" y="155.26" width="1.75" height="0.58" transform="translate(22.64 390.34) rotate(-31.89)"/><polygon class="cls-1" points="696.63 152.57 696.63 153.82 696.49 153.91 696.8 154.41 697.22 154.15 697.21 152.56 696.63 152.57"/><polygon class="cls-1" points="708.41 132.51 708.5 133.09 710.23 132.83 710.14 132.25 708.41 132.51"/><polygon class="cls-1" points="729.11 129.39 729.38 129.9 730.93 129.07 730.65 128.56 729.11 129.39"/><polygon class="cls-1" points="725.74 129.9 725.83 130.48 727.56 130.22 727.48 129.64 725.74 129.9"/><rect class="cls-1" x="641.76" y="167.98" width="0.58" height="1.75" transform="translate(292.76 733.42) rotate(-72.99)"/><rect class="cls-1" x="732.23" y="127.27" width="1.75" height="0.58" transform="translate(27.3 363.26) rotate(-28.34)"/><polygon class="cls-1" points="722.28 130.43 722.36 131 724.1 130.74 724.01 130.16 722.28 130.43"/><polygon class="cls-1" points="718.81 130.95 718.9 131.52 720.63 131.26 720.54 130.69 718.81 130.95"/><polygon class="cls-1" points="715.34 131.47 715.43 132.05 717.16 131.78 717.08 131.21 715.34 131.47"/><rect class="cls-1" x="657.62" y="164.77" width="1.75" height="0.58" transform="translate(-15.32 247.69) rotate(-21.06)"/><polygon class="cls-1" points="664.24 163.28 665.99 163.33 666 162.75 664.25 162.7 664.24 163.28"/><rect class="cls-1" x="654.35" y="166.03" width="1.75" height="0.58" transform="translate(-16 246.6) rotate(-21.06)"/><rect class="cls-1" x="660.89" y="163.51" width="1.75" height="0.58" transform="translate(-14.65 248.79) rotate(-21.06)"/><polygon class="cls-1" points="645.71 169.67 644.65 169.34 644.48 169.9 645.73 170.28 646.33 170.05 646.12 169.51 645.71 169.67"/><rect class="cls-1" x="647.8" y="168.54" width="1.75" height="0.58" transform="translate(-17.34 244.42) rotate(-21.06)"/><rect class="cls-1" x="651.08" y="167.29" width="1.75" height="0.58" transform="translate(-16.67 245.51) rotate(-21.06)"/><polygon class="cls-1" points="687.55 159.46 687.86 159.96 689.35 159.03 689.04 158.54 687.55 159.46"/><polygon class="cls-1" points="681.6 163.16 681.91 163.65 683.4 162.73 683.09 162.23 681.6 163.16"/><polygon class="cls-1" points="684.58 161.31 684.88 161.81 686.37 160.88 686.07 160.38 684.58 161.31"/><polygon class="cls-1" points="678.25 163.66 680.01 163.71 680.02 163.12 678.27 163.07 678.25 163.66"/><polygon class="cls-1" points="674.75 163.56 676.5 163.61 676.52 163.03 674.77 162.98 674.75 163.56"/><polygon class="cls-1" points="671.25 163.47 673 163.52 673.01 162.93 671.26 162.89 671.25 163.47"/><polygon class="cls-1" points="667.74 163.38 669.5 163.42 669.51 162.84 667.76 162.79 667.74 163.38"/><rect class="cls-1" x="1017.4" y="152.43" width="1.75" height="0.58" transform="translate(315.79 905.53) rotate(-55.51)"/><rect class="cls-1" x="1006.77" y="205.58" width="0.59" height="1.75" transform="translate(-11.85 70) rotate(-3.96)"/><polygon class="cls-1" points="1007.91 167.24 1007.79 167.19 1007.6 167.75 1008.14 167.93 1009.07 166.59 1008.58 166.26 1007.91 167.24"/><polygon class="cls-1" points="1007.54 209.06 1006.95 209.1 1007.04 210.3 1007.9 210.63 1008.11 210.08 1007.6 209.89 1007.54 209.06"/><rect class="cls-1" x="1006.53" y="202.08" width="0.59" height="1.75" transform="translate(-11.61 69.97) rotate(-3.96)"/><rect class="cls-1" x="1006.29" y="198.58" width="0.59" height="1.75" transform="translate(-11.37 69.95) rotate(-3.96)"/><polygon class="cls-1" points="1005.05 191.86 1004.58 192.21 1005.61 193.62 1006.08 193.28 1005.05 191.86"/><rect class="cls-1" x="1006.04" y="195.09" width="0.59" height="1.75" transform="translate(-11.13 69.92) rotate(-3.96)"/><polygon class="cls-1" points="1012.57 160.49 1011.57 161.93 1012.05 162.26 1013.05 160.82 1012.57 160.49"/><rect class="cls-1" x="1013.42" y="158.2" width="1.75" height="0.58" transform="translate(309.31 904.75) rotate(-55.51)"/><polygon class="cls-1" points="1017.03 155.05 1016.55 154.72 1015.55 156.16 1016.03 156.49 1017.03 155.05"/><polygon class="cls-1" points="1015.75 212.36 1016.2 212.73 1017.32 211.39 1016.87 211.01 1015.75 212.36"/><rect class="cls-1" x="1013.45" y="211.64" width="0.58" height="1.75" transform="translate(458.71 1087.03) rotate(-69.44)"/><rect class="cls-1" x="1010.17" y="210.4" width="0.58" height="1.75" transform="translate(456.88 1082.61) rotate(-69.38)"/><polygon class="cls-1" points="1006.12 166.64 1004.46 166.09 1004.28 166.64 1005.94 167.19 1006.12 166.64"/><rect class="cls-1" x="1003.04" y="130.47" width="0.58" height="1.75" transform="translate(310.04 868.42) rotate(-54.21)"/><polygon class="cls-1" points="991.67 168.36 991.98 168.86 993.47 167.95 993.17 167.45 991.67 168.36"/><polygon class="cls-1" points="991.96 149.6 993.65 150.06 993.8 149.5 992.11 149.04 991.96 149.6"/><polygon class="cls-1" points="993.87 181.55 994.25 181.99 995.58 180.86 995.21 180.41 993.87 181.55"/><polygon class="cls-1" points="991.19 183.81 991.57 184.26 992.91 183.13 992.53 182.68 991.19 183.81"/><polygon class="cls-1" points="985.69 186.41 987.19 187.33 987.49 186.83 986 185.91 985.69 186.41"/><polygon class="cls-1" points="988.52 186.08 988.89 186.52 990.23 185.39 989.85 184.94 988.52 186.08"/><rect class="cls-1" x="985.09" y="169.56" width="1.75" height="0.59" transform="translate(-9.39 68.6) rotate(-3.97)"/><polygon class="cls-1" points="538.33 153.39 540.05 153.72 540.16 153.14 538.44 152.82 538.33 153.39"/><polygon class="cls-1" points="1002.52 189.37 1003.55 190.78 1004.03 190.44 1003 189.02 1002.52 189.37"/><rect class="cls-1" x="1003.25" y="134.89" width="0.58" height="1.75" transform="translate(36.54 436.51) rotate(-24.98)"/><polygon class="cls-1" points="1000.47 186.53 1001.5 187.95 1001.97 187.6 1000.94 186.18 1000.47 186.53"/><polygon class="cls-1" points="998.41 183.69 999.44 185.11 999.91 184.77 998.88 183.35 998.41 183.69"/><polygon class="cls-1" points="996.35 180.85 997.38 182.27 997.86 181.93 996.83 180.51 996.35 180.85"/><polygon class="cls-1" points="999.29 164.98 999.47 164.43 998.59 164.14 997.65 164.71 997.96 165.21 998.66 164.78 999.29 164.98"/><polygon class="cls-1" points="990.26 169.26 988.57 169.38 988.61 169.96 990.3 169.85 990.48 169.78 990.28 169.5 990.26 169.26"/><rect class="cls-1" x="1050.54" y="193.69" width="1.75" height="0.58" transform="translate(419.79 1056.62) rotate(-64.24)"/><polygon class="cls-1" points="1051.28 190.95 1052.31 191.46 1052.29 191.49 1052.82 191.74 1053.08 191.19 1051.54 190.43 1051.28 190.95"/><polygon class="cls-1" points="1049.43 197.43 1049.31 197.45 1049.42 198.03 1049.82 197.95 1050.53 196.48 1050.01 196.22 1049.43 197.43"/><polygon class="cls-1" points="1046.11 180.86 1047.75 181.49 1047.96 180.94 1046.32 180.31 1046.11 180.86"/><rect class="cls-1" x="1045.9" y="197.93" width="1.75" height="0.58" transform="matrix(0.98, -0.18, 0.18, 0.98, -18.6, 194.65)"/><polygon class="cls-1" points="1018 209.67 1018.45 210.05 1019.57 208.7 1019.13 208.33 1018 209.67"/><polygon class="cls-1" points="1049.97 189.66 1048.39 188.88 1048.14 189.41 1049.71 190.18 1049.97 189.66"/><polygon class="cls-1" points="1052.65 183.38 1054.29 184.01 1054.5 183.47 1052.86 182.84 1052.65 183.38"/><rect class="cls-1" x="1069.64" y="188.86" width="0.58" height="1.75" transform="translate(508.13 1119.86) rotate(-68.92)"/><polygon class="cls-1" points="1072.13 190.9 1072.52 191.39 1072.52 190.59 1072.13 190.9"/><polygon class="cls-1" points="1055.92 184.64 1057.56 185.28 1057.77 184.73 1056.13 184.1 1055.92 184.64"/><rect class="cls-1" x="1066.37" y="187.6" width="0.58" height="1.75" transform="translate(507.21 1116) rotate(-68.92)"/><rect class="cls-1" x="1059.83" y="185.07" width="0.58" height="1.75" transform="translate(505.38 1108.28) rotate(-68.92)"/><rect class="cls-1" x="1063.1" y="186.34" width="0.58" height="1.75" transform="translate(506.29 1112.14) rotate(-68.92)"/><polygon class="cls-1" points="1046.82 188.1 1045.25 187.33 1044.99 187.86 1046.57 188.63 1046.82 188.1"/><polygon class="cls-1" points="1032.08 200.67 1032.19 201.24 1033.91 200.92 1033.8 200.35 1032.08 200.67"/><rect class="cls-1" x="1035.56" y="199.86" width="1.75" height="0.58" transform="translate(-19.12 192.8) rotate(-10.53)"/><polygon class="cls-1" points="1042.84 179.59 1044.48 180.23 1044.69 179.68 1043.05 179.05 1042.84 179.59"/><rect class="cls-1" x="1025.23" y="201.79" width="1.75" height="0.58" transform="translate(-19.65 190.94) rotate(-10.53)"/><polygon class="cls-1" points="1036 177.58 1036.88 179.1 1037.38 178.81 1036.51 177.29 1036 177.58"/><rect class="cls-1" x="1020.16" y="206.21" width="1.75" height="0.58" transform="translate(207.7 857.38) rotate(-50.1)"/><polygon class="cls-1" points="1022.5 204.3 1022.95 204.67 1024.08 203.33 1023.63 202.95 1022.5 204.3"/><rect class="cls-1" x="1028.67" y="201.15" width="1.75" height="0.58" transform="translate(-19.48 191.63) rotate(-10.53)"/><polygon class="cls-1" points="1038.26 180.32 1037.75 180.62 1038.63 182.13 1039.13 181.84 1038.26 180.32"/><polygon class="cls-1" points="1043.68 186.56 1042.11 185.78 1041.85 186.31 1043.42 187.08 1043.68 186.56"/><rect class="cls-1" x="1042.46" y="198.57" width="1.75" height="0.58" transform="translate(-18.77 194.04) rotate(-10.53)"/><rect class="cls-1" x="1040.2" y="177.5" width="0.58" height="1.75" transform="translate(499.88 1085.12) rotate(-68.92)"/><rect class="cls-1" x="1039.01" y="199.22" width="1.75" height="0.58" transform="translate(-18.95 193.42) rotate(-10.53)"/><polygon class="cls-1" points="1039.5 183.65 1040.38 185.17 1040.89 184.88 1040.01 183.36 1039.5 183.65"/><polygon class="cls-1" points="918.98 99.22 919.86 100.74 920.37 100.44 919.48 98.93 918.98 99.22"/><polygon class="cls-1" points="910.73 76.21 910.17 76.39 910.69 78.06 911.25 77.88 910.73 76.21"/><rect class="cls-1" x="905.18" y="59.53" width="0.58" height="1.75" transform="translate(23.2 272.83) rotate(-17.35)"/><rect class="cls-1" x="909.37" y="72.91" width="0.59" height="1.75" transform="translate(20 277.35) rotate(-17.53)"/><rect class="cls-1" x="908.32" y="69.57" width="0.59" height="1.75" transform="translate(20.35 274.22) rotate(-17.35)"/><polygon class="cls-1" points="922.71 105.19 922.15 105.37 922.67 107.04 923.23 106.87 922.71 105.19"/><polygon class="cls-1" points="0.65 227.5 0.67 227.74 1.25 227.74 1.23 227.47 0.65 227.5"/><rect class="cls-1" x="912.51" y="82.95" width="0.59" height="1.75" transform="translate(16.55 276.08) rotate(-17.35)"/><polygon class="cls-1" points="911.78 79.56 911.22 79.73 911.74 81.4 912.3 81.23 911.78 79.56"/><polygon class="cls-1" points="913.87 86.25 913.31 86.42 913.84 88.09 914.39 87.92 913.87 86.25"/><rect class="cls-1" x="921.15" y="101.99" width="0.58" height="1.75" transform="translate(73.8 478.55) rotate(-30.27)"/><polygon class="cls-1" points="917.22 96.19 918.1 97.71 918.6 97.42 917.72 95.9 917.22 96.19"/><rect class="cls-1" x="874.95" y="16.98" width="0.58" height="1.75" transform="translate(207.63 584.13) rotate(-41.47)"/><rect class="cls-1" x="914.61" y="89.64" width="0.58" height="1.75" transform="translate(14.76 277.58) rotate(-17.39)"/><rect class="cls-1" x="915.85" y="92.9" width="0.58" height="1.75" transform="translate(77.46 474.2) rotate(-30.24)"/><rect class="cls-1" x="906.23" y="62.88" width="0.59" height="1.75" transform="translate(22.25 273.29) rotate(-17.35)"/><polygon class="cls-1" points="886.49 30.14 886.06 30.52 886.9 31.48 887.16 31.84 887.64 31.5 887.36 31.11 886.49 30.14"/><polygon class="cls-1" points="888.17 33.27 889.18 34.71 889.66 34.37 888.65 32.94 888.17 33.27"/><polygon class="cls-1" points="890.19 36.14 891.2 37.57 891.68 37.23 890.67 35.8 890.19 36.14"/><rect class="cls-1" x="884.24" y="27.48" width="0.58" height="1.75" transform="translate(203.01 592.92) rotate(-41.47)"/><rect class="cls-1" x="877.27" y="19.61" width="0.58" height="1.75" transform="translate(206.48 586.33) rotate(-41.47)"/><rect class="cls-1" x="879.6" y="22.23" width="0.58" height="1.75" transform="translate(205.32 588.53) rotate(-41.47)"/><rect class="cls-1" x="881.92" y="24.86" width="0.58" height="1.75" transform="translate(204.17 590.73) rotate(-41.47)"/><polygon class="cls-1" points="898.27 47.6 899.28 49.03 899.76 48.7 898.75 47.26 898.27 47.6"/><rect class="cls-1" x="904.14" y="56.18" width="0.58" height="1.75" transform="translate(23.51 269.72) rotate(-17.18)"/><polygon class="cls-1" points="982.7 184.58 984.2 185.5 984.5 185 983.01 184.08 982.7 184.58"/><polygon class="cls-1" points="892.21 39.01 893.22 40.44 893.7 40.1 892.69 38.67 892.21 39.01"/><polygon class="cls-1" points="902.31 53.33 903.32 54.76 903.8 54.42 902.79 52.99 902.31 53.33"/><polygon class="cls-1" points="894.23 41.87 895.24 43.3 895.72 42.96 894.71 41.53 894.23 41.87"/><polygon class="cls-1" points="896.25 44.73 897.26 46.17 897.74 45.83 896.73 44.4 896.25 44.73"/><polygon class="cls-1" points="900.29 50.46 901.3 51.9 901.78 51.56 900.77 50.13 900.29 50.46"/><rect class="cls-1" x="967.56" y="142.81" width="0.58" height="1.75" transform="translate(257.62 816.71) rotate(-51.9)"/><rect class="cls-1" x="970.32" y="144.97" width="0.58" height="1.75" transform="translate(257.41 820.17) rotate(-51.94)"/><rect class="cls-1" x="972.12" y="176.7" width="1.75" height="0.58" transform="translate(481.96 1035.44) rotate(-70.54)"/><rect class="cls-1" x="961.54" y="139.72" width="0.58" height="1.75" transform="translate(725.25 1083.42) rotate(-84.23)"/><rect class="cls-1" x="958.06" y="139.37" width="0.58" height="1.75" transform="translate(722.36 1079.61) rotate(-84.22)"/><rect class="cls-1" x="964.8" y="140.65" width="0.58" height="1.75" transform="translate(258.7 814.16) rotate(-51.94)"/><rect class="cls-1" x="973.29" y="173.4" width="1.75" height="0.58" transform="translate(485.86 1034.34) rotate(-70.54)"/><rect class="cls-1" x="977.32" y="180.26" width="0.59" height="1.75" transform="translate(313.57 921.13) rotate(-58.59)"/><rect class="cls-1" x="954.57" y="139.01" width="0.58" height="1.75" transform="translate(719.58 1075.82) rotate(-84.22)"/><rect class="cls-1" x="980.32" y="182.09" width="0.59" height="1.75" transform="translate(313.44 924.56) rotate(-58.59)"/><rect class="cls-1" x="981.59" y="169.8" width="1.75" height="0.59" transform="translate(-9.3 67.32) rotate(-3.91)"/><rect class="cls-1" x="974.33" y="178.43" width="0.59" height="1.75" transform="translate(313.7 917.7) rotate(-58.59)"/><polygon class="cls-1" points="975.05 170.31 974.76 171.11 975.32 171.31 975.47 170.86 976.37 170.8 976.33 170.22 975.05 170.31"/><rect class="cls-1" x="975.84" y="149.3" width="0.58" height="1.75" transform="translate(255.68 825.71) rotate(-51.9)"/><rect class="cls-1" x="947.59" y="138.31" width="0.58" height="1.75" transform="translate(714.01 1068.25) rotate(-84.22)"/><polygon class="cls-1" points="927.4 122.09 927.92 123.77 928.48 123.59 927.96 121.92 927.4 122.09"/><rect class="cls-1" x="929.09" y="125.1" width="0.58" height="1.75" transform="translate(120.34 600.4) rotate(-38.11)"/><rect class="cls-1" x="951.08" y="138.66" width="0.58" height="1.75" transform="translate(716.89 1072.06) rotate(-84.23)"/><polygon class="cls-1" points="925.86 115.23 925.3 115.41 925.82 117.08 926.38 116.9 925.86 115.23"/><polygon class="cls-1" points="924.81 111.88 924.25 112.06 924.77 113.73 925.33 113.56 924.81 111.88"/><rect class="cls-1" x="931.26" y="127.86" width="0.58" height="1.75" transform="translate(118.71 601.65) rotate(-38.06)"/><polygon class="cls-1" points="926.91 118.57 926.35 118.75 926.87 120.42 927.43 120.25 926.91 118.57"/><rect class="cls-1" x="940.62" y="137.6" width="0.58" height="1.75" transform="translate(708.43 1060.67) rotate(-84.22)"/><rect class="cls-1" x="933.42" y="130.62" width="0.58" height="1.75" transform="translate(117.47 603.57) rotate(-38.06)"/><polygon class="cls-1" points="923.76 108.54 923.2 108.72 923.72 110.39 924.28 110.21 923.76 108.54"/><polygon class="cls-1" points="943.5 139.03 945.24 139.21 945.3 138.63 943.55 138.45 943.5 139.03"/><rect class="cls-1" x="937.74" y="136.14" width="0.58" height="1.75" transform="translate(114.98 607.41) rotate(-38.06)"/><rect class="cls-1" x="935.58" y="133.38" width="0.58" height="1.75" transform="translate(116.22 605.49) rotate(-38.06)"/><rect class="cls-1" x="907.28" y="66.22" width="0.59" height="1.75" transform="translate(21.92 276.41) rotate(-17.53)"/><polygon class="cls-1" points="72.83 116.3 73.35 116.55 74.11 114.97 73.58 114.72 72.83 116.3"/><polygon class="cls-1" points="68.39 154.62 68.8 155.03 70.03 153.78 69.62 153.37 68.39 154.62"/><polygon class="cls-1" points="75.84 109.97 76.37 110.22 77.13 108.64 76.6 108.39 75.84 109.97"/><polygon class="cls-1" points="70.85 152.13 71.27 152.54 72.5 151.29 72.08 150.88 70.85 152.13"/><polygon class="cls-1" points="71.9 149.59 70.74 148.28 70.3 148.66 71.46 149.98 71.9 149.59"/><polygon class="cls-1" points="97.65 93.93 97.92 94.45 99.48 93.67 99.22 93.15 97.65 93.93"/><rect class="cls-1" x="35.85" y="180.01" width="1.75" height="0.59" transform="translate(-83.54 41.04) rotate(-29.3)"/><polygon class="cls-1" points="74.33 113.14 74.86 113.39 75.62 111.81 75.09 111.56 74.33 113.14"/><polygon class="cls-1" points="91.39 97.08 91.65 97.6 93.22 96.82 92.95 96.3 91.39 97.08"/><polygon class="cls-1" points="88.26 98.65 88.52 99.18 90.08 98.39 89.82 97.87 88.26 98.65"/><polygon class="cls-1" points="94.52 95.51 94.78 96.03 96.35 95.24 96.09 94.72 94.52 95.51"/><polygon class="cls-1" points="85.12 100.23 85.39 100.75 86.95 99.96 86.69 99.44 85.12 100.23"/><polygon class="cls-1" points="79.03 103.29 78.86 103.64 79.39 103.89 79.47 103.72 80.69 103.11 80.42 102.59 79.03 103.29"/><polygon class="cls-1" points="81.99 101.8 82.25 102.32 83.82 101.54 83.56 101.02 81.99 101.8"/><polygon class="cls-1" points="72.17 128.35 72.32 129.9 72.32 129.9 72.33 130 72.45 129.98 72.81 130.21 72.92 130.04 72.75 128.29 72.17 128.35"/><polygon class="cls-1" points="51.52 171.68 51.11 171.91 51.4 172.42 51.84 172.17 52.78 171.24 52.36 170.82 51.52 171.68"/><polygon class="cls-1" points="53.6 169.58 54.01 169.99 55.24 168.74 54.83 168.33 53.6 169.58"/><rect class="cls-1" x="68.49" y="145.62" width="0.58" height="1.75" transform="translate(-79.7 82.11) rotate(-41.41)"/><polygon class="cls-1" points="38.88 178.76 39.16 179.27 40.69 178.41 40.41 177.9 38.88 178.76"/><polygon class="cls-1" points="44.99 175.33 45.28 175.84 46.81 174.99 46.52 174.48 44.99 175.33"/><polygon class="cls-1" points="56.06 167.08 56.48 167.5 57.71 166.25 57.29 165.84 56.06 167.08"/><polygon class="cls-1" points="41.94 177.05 42.22 177.56 43.75 176.7 43.47 176.19 41.94 177.05"/><polygon class="cls-1" points="48.05 173.62 48.34 174.13 49.87 173.28 49.58 172.76 48.05 173.62"/><polygon class="cls-1" points="67.26 144.33 66.1 143.02 65.66 143.4 66.82 144.72 67.26 144.33"/><polygon class="cls-1" points="65.71 140.24 64.77 141.71 65.26 142.03 66.21 140.55 65.71 140.24"/><polygon class="cls-1" points="65.92 157.11 66.33 157.52 67.57 156.28 67.15 155.87 65.92 157.11"/><polygon class="cls-1" points="60.99 162.1 61.41 162.51 62.64 161.26 62.22 160.85 60.99 162.1"/><polygon class="cls-1" points="58.53 164.59 58.94 165 60.17 163.76 59.76 163.34 58.53 164.59"/><polygon class="cls-1" points="63.45 159.6 63.87 160.02 65.1 158.77 64.69 158.36 63.45 159.6"/><polygon class="cls-1" points="77.35 106.81 77.88 107.06 78.63 105.48 78.11 105.23 77.35 106.81"/><polygon class="cls-1" points="158.04 95.53 158.23 96.08 159.89 95.51 159.7 94.96 158.04 95.53"/><rect class="cls-1" x="154.78" y="96.38" width="1.75" height="0.58" transform="translate(-23.08 56.32) rotate(-19.12)"/><rect class="cls-1" x="162.58" y="90.31" width="1.75" height="0.58" transform="matrix(0.52, -0.86, 0.86, 0.52, 1.47, 183.8)"/><rect class="cls-1" x="160.77" y="93.31" width="1.75" height="0.58" transform="translate(-1.98 183.71) rotate(-58.91)"/><polygon class="cls-1" points="151.41 97.83 151.61 98.38 153.26 97.81 153.07 97.25 151.41 97.83"/><rect class="cls-1" x="145.39" y="98.48" width="0.59" height="1.75" transform="translate(12.13 214.51) rotate(-75.06)"/><rect class="cls-1" x="142" y="97.58" width="0.59" height="1.75" transform="translate(10.49 210.56) rotate(-75.06)"/><rect class="cls-1" x="148.15" y="98.67" width="1.75" height="0.58" transform="translate(-24.19 54.27) rotate(-19.12)"/><rect class="cls-1" x="174.91" y="79.35" width="1.75" height="0.58" transform="translate(-16.39 61.97) rotate(-19.12)"/><rect class="cls-1" x="171.6" y="80.49" width="1.75" height="0.58" transform="translate(-16.95 60.95) rotate(-19.12)"/><polygon class="cls-1" points="178.18 78.51 178.37 79.06 180.03 78.48 179.83 77.93 178.18 78.51"/><polygon class="cls-1" points="168.36 81.9 168.18 82.19 168.68 82.49 168.75 82.38 170.09 81.92 169.89 81.37 168.36 81.9"/><rect class="cls-1" x="166.2" y="84.3" width="1.75" height="0.58" transform="translate(8.36 183.99) rotate(-58.91)"/><rect class="cls-1" x="164.39" y="87.31" width="1.75" height="0.58" transform="matrix(0.52, -0.86, 0.86, 0.52, 4.92, 183.9)"/><polygon class="cls-1" points="114.67 83.74 114.47 84.29 115.91 84.81 115.97 84.87 116.39 84.47 116.29 84.36 114.67 83.74"/><polygon class="cls-1" points="117.17 86.15 118.36 87.43 118.79 87.03 117.59 85.75 117.17 86.15"/><rect class="cls-1" x="108.52" y="81.02" width="0.58" height="1.75" transform="translate(-5.5 155.93) rotate(-69.89)"/><polygon class="cls-1" points="101.52 91.99 100.79 92.36 101.05 92.88 101.95 92.43 102.37 91.59 101.84 91.33 101.52 91.99"/><rect class="cls-1" x="111.81" y="82.23" width="0.58" height="1.75" transform="translate(-4.48 159.81) rotate(-69.89)"/><polygon class="cls-1" points="102.62 89.76 103.14 90.02 103.92 88.44 103.39 88.19 102.62 89.76"/><polygon class="cls-1" points="105.72 83.47 106.24 83.73 107.02 82.15 106.5 81.9 105.72 83.47"/><polygon class="cls-1" points="104.17 86.61 104.69 86.87 105.47 85.3 104.94 85.04 104.17 86.61"/><rect class="cls-1" x="128.45" y="93.97" width="0.59" height="1.75" transform="translate(4 194.9) rotate(-75.11)"/><rect class="cls-1" x="131.84" y="94.88" width="0.59" height="1.75" transform="matrix(0.26, -0.97, 0.97, 0.26, 5.66, 198.86)"/><polygon class="cls-1" points="119.56 88.71 120.76 89.99 121.19 89.59 119.99 88.31 119.56 88.71"/><rect class="cls-1" x="138.62" y="96.68" width="0.59" height="1.75" transform="translate(8.84 206.62) rotate(-75.06)"/><rect class="cls-1" x="135.23" y="95.78" width="0.59" height="1.75" transform="translate(7.29 202.79) rotate(-75.11)"/><polygon class="cls-1" points="124.78 93.43 124.35 93.83 124.54 94.03 126.13 94.45 126.28 93.89 124.86 93.51 124.78 93.43"/><polygon class="cls-1" points="121.96 91.27 123.16 92.55 123.58 92.15 122.38 90.87 121.96 91.27"/><polygon class="cls-1" points="1003.14 148.5 1001.66 149.44 1001.98 149.94 1003.46 148.99 1003.14 148.5"/><rect class="cls-1" x="1001.58" y="164.66" width="0.58" height="1.75" transform="translate(528.91 1064.12) rotate(-71.62)"/><polygon class="cls-1" points="1000.5 150.88 1000.18 150.39 999.26 150.97 998.88 150.87 998.73 151.44 999.36 151.61 1000.5 150.88"/><polygon class="cls-1" points="1001.22 130.08 1001.13 129.91 1001.37 129.57 999.82 128.45 1000.69 130.33 1001.22 130.08"/><polygon class="cls-1" points="181.49 77.36 181.68 77.91 181.97 77.81 183.19 78.16 183.34 77.59 181.95 77.2 181.49 77.36"/><rect class="cls-1" x="1001.77" y="131.71" width="0.58" height="1.75" transform="translate(37.46 434.67) rotate(-24.93)"/><rect class="cls-1" x="1005.89" y="132.52" width="0.58" height="1.75" transform="translate(309.56 871.58) rotate(-54.21)"/><rect class="cls-1" x="1004.73" y="138.07" width="0.58" height="1.75" transform="translate(35.06 436.51) rotate(-24.93)"/><polygon class="cls-1" points="986.95 149.97 986.84 149.4 985.12 149.74 985.23 150.31 986.95 149.97"/><polygon class="cls-1" points="983.51 150.65 983.4 150.08 981.68 150.42 981.79 150.99 983.51 150.65"/><polygon class="cls-1" points="980.07 151.33 979.96 150.75 978.24 151.09 978.35 151.67 980.07 151.33"/><polygon class="cls-1" points="1004.93 148.05 1006.41 147.11 1006.1 146.62 1004.62 147.56 1004.93 148.05"/><rect class="cls-1" x="994.69" y="166.03" width="1.75" height="0.59" transform="matrix(0.85, -0.52, 0.52, 0.85, 59.11, 542.98)"/><polygon class="cls-1" points="990.39 149.3 990.28 148.72 988.56 149.06 988.67 149.64 990.39 149.3"/><polygon class="cls-1" points="997.18 150.41 995.49 149.96 995.34 150.52 997.03 150.98 997.18 150.41"/><rect class="cls-1" x="1015.2" y="142.41" width="0.59" height="1.75" transform="translate(32.13 434.42) rotate(-24.52)"/><rect class="cls-1" x="1036.93" y="176.24" width="0.58" height="1.75" transform="translate(498.96 1081.26) rotate(-68.92)"/><rect class="cls-1" x="1018.11" y="148.79" width="0.59" height="1.75" transform="translate(29.47 435.26) rotate(-24.47)"/><polygon class="cls-1" points="1051.23 182.21 1049.59 181.57 1049.38 182.12 1051.02 182.75 1051.23 182.21"/><rect class="cls-1" x="0.26" y="220.49" width="0.58" height="1.75" transform="translate(-13.94 0.47) rotate(-3.61)"/><polygon class="cls-1" points="0.61 217.54 0.78 217.43 0.49 216.93 0 217.21 0.1 218.76 0.68 218.72 0.61 217.54"/><rect class="cls-1" x="1006.21" y="141.25" width="0.58" height="1.75" transform="translate(33.86 437.43) rotate(-24.93)"/><rect class="cls-1" x="0.48" y="223.99" width="0.58" height="1.75" transform="translate(-14.14 0.49) rotate(-3.61)"/><rect class="cls-1" x="1016.65" y="145.6" width="0.59" height="1.75" transform="translate(30.66 434.37) rotate(-24.47)"/><rect class="cls-1" x="1008.73" y="134.57" width="0.58" height="1.75" transform="matrix(0.58, -0.81, 0.81, 0.58, 309.7, 875.33)"/><polygon class="cls-1" points="1007.58 145.67 1007.89 146.16 1008.51 145.76 1007.87 144.38 1007.34 144.63 1007.77 145.55 1007.58 145.67"/><polygon class="cls-1" points="1010.06 165.15 1011.06 163.71 1010.58 163.38 1009.58 164.82 1010.06 165.15"/><rect class="cls-1" x="1013.75" y="139.22" width="0.59" height="1.75" transform="translate(33.05 432.6) rotate(-24.47)"/><rect class="cls-1" x="1011.58" y="136.62" width="0.58" height="1.75" transform="matrix(0.58, -0.81, 0.81, 0.58, 308.59, 877.89)"/><rect class="cls-1" x="978.09" y="170.04" width="1.75" height="0.59" transform="translate(-9.42 67.97) rotate(-3.96)"/><polygon class="cls-1" points="69.98 134.64 69.49 134.33 68.54 135.81 69.04 136.12 69.98 134.64"/><rect class="cls-1" x="15.27" y="204.67" width="1.75" height="0.58" transform="translate(-161.22 100.97) rotate(-55.11)"/><polygon class="cls-1" points="19.41 199.76 19.89 200.1 20.89 198.66 20.41 198.32 19.41 199.76"/><rect class="cls-1" x="17.27" y="201.79" width="1.75" height="0.58" transform="translate(-158 101.38) rotate(-55.11)"/><polygon class="cls-1" points="13.4 208.4 13.88 208.73 14.88 207.29 14.4 206.96 13.4 208.4"/><rect class="cls-1" x="5.06" y="213.8" width="1.75" height="0.58" transform="translate(-107.15 32.21) rotate(-30.28)"/><polygon class="cls-1" points="8.07 212.52 8.36 213.03 9.88 212.15 9.58 211.64 8.07 212.52"/><polygon class="cls-1" points="12.2 210.12 11.1 210.76 11.39 211.26 12.55 210.59 12.88 210.17 12.4 209.83 12.2 210.12"/><polygon class="cls-1" points="2 216.05 2.3 216.55 3.81 215.67 3.52 215.17 2 216.05"/><polygon class="cls-1" points="26.64 185.61 26.93 186.12 28.46 185.27 28.17 184.76 26.64 185.61"/><rect class="cls-1" x="29.73" y="183.43" width="1.75" height="0.59" transform="translate(-85.8 38.32) rotate(-29.22)"/><polygon class="cls-1" points="21.4 196.98 21.55 196.98 21.89 197.22 21.98 197.09 22.04 195.32 21.45 195.3 21.4 196.98"/><polygon class="cls-1" points="23.58 187.32 23.87 187.84 25.4 186.98 25.11 186.47 23.58 187.32"/><polygon class="cls-1" points="21.51 193.55 22.1 193.57 22.16 191.82 21.57 191.8 21.51 193.55"/><polygon class="cls-1" points="21.68 188.39 21.63 190.05 22.21 190.07 22.26 188.74 22.34 188.69 22.05 188.18 21.68 188.39"/><polygon class="cls-1" points="696.61 150.81 697.2 150.81 697.18 149.06 696.6 149.06 696.61 150.81"/><polygon class="cls-1" points="696.54 140.3 697.12 140.29 697.11 138.54 696.53 138.54 696.54 140.3"/><rect class="cls-1" x="696.51" y="135.04" width="0.58" height="1.75" transform="matrix(1, -0.01, 0.01, 1, -0.84, 4.39)"/><polygon class="cls-1" points="696.56 143.8 697.15 143.8 697.13 142.05 696.55 142.05 696.56 143.8"/><polygon class="cls-1" points="251.63 113.92 251.05 113.84 250.81 115.57 251.39 115.65 251.63 113.92"/><rect class="cls-1" x="973.08" y="147.14" width="0.58" height="1.75" transform="translate(256.77 823.17) rotate(-51.94)"/><polygon class="cls-1" points="696.59 147.31 697.17 147.3 697.16 145.55 696.58 145.56 696.59 147.31"/><rect class="cls-1" x="249.86" y="117.92" width="1.75" height="0.58" transform="translate(98.85 350.11) rotate(-82.02)"/><polygon class="cls-1" points="71.87 131.69 71.38 131.37 70.43 132.85 70.92 133.17 71.87 131.69"/><rect class="cls-1" x="71.59" y="121.34" width="0.59" height="1.75" transform="translate(-11.28 7.38) rotate(-5.45)"/><polygon class="cls-1" points="68.09 137.6 67.6 137.28 66.66 138.76 67.15 139.07 68.09 137.6"/><polygon class="cls-1" points="32.76 182.19 33.04 182.7 34.57 181.84 34.29 181.33 32.76 182.19"/><rect class="cls-1" x="71.92" y="124.83" width="0.59" height="1.75" transform="matrix(1, -0.09, 0.09, 1, -11.6, 7.41)"/><polygon class="cls-1" points="71.79 119.58 71.89 119.63 71.91 119.57 71.92 119.57 71.92 119.56 72.6 118.13 72.07 117.88 71.32 119.45 71.34 119.63 71.79 119.58"/><polygon class="cls-1" points="227.16 77.42 228.49 78.56 228.87 78.12 227.54 76.98 227.16 77.42"/><polygon class="cls-1" points="415.25 153.5 415.55 154 417.05 153.09 416.74 152.59 415.25 153.5"/><polygon class="cls-1" points="412.25 155.33 412.56 155.83 414.05 154.92 413.75 154.42 412.25 155.33"/><polygon class="cls-1" points="421.24 149.86 421.54 150.36 423.04 149.45 422.73 148.95 421.24 149.86"/><polygon class="cls-1" points="418.24 151.68 418.55 152.18 420.04 151.27 419.74 150.77 418.24 151.68"/><polygon class="cls-1" points="402.38 157.91 402.46 158.49 404.2 158.27 404.12 157.69 402.38 157.91"/><polygon class="cls-1" points="398.91 158.35 398.98 158.94 400.72 158.71 400.65 158.13 398.91 158.35"/><polygon class="cls-1" points="405.86 157.46 405.94 158.04 407.68 157.82 407.6 157.24 405.86 157.46"/><polygon class="cls-1" points="409.52 157 409.34 157.02 409.42 157.6 409.65 157.57 411.06 156.74 410.75 156.24 409.52 157"/><polygon class="cls-1" points="434.42 149.84 434.25 150.4 434.7 150.53 435.25 151.44 435.75 151.13 435.09 150.04 434.42 149.84"/><rect class="cls-1" x="436.58" y="152.65" width="0.59" height="1.75" transform="translate(-16.05 249.9) rotate(-31.38)"/><polygon class="cls-1" points="424.23 148.04 424.54 148.54 425.61 147.88 425.84 147.95 426 147.39 425.52 147.25 424.23 148.04"/><polygon class="cls-1" points="437.99 155.93 438.9 157.42 439.4 157.12 438.49 155.62 437.99 155.93"/><rect class="cls-1" x="431.52" y="148.51" width="0.59" height="1.75" transform="matrix(0.28, -0.96, 0.96, 0.28, 167.55, 522.14)"/><polygon class="cls-1" points="427.52 148.44 429.2 148.93 429.37 148.37 427.68 147.88 427.52 148.44"/><polygon class="cls-1" points="378.05 161.03 378.12 161.61 379.86 161.39 379.78 160.81 378.05 161.03"/><polygon class="cls-1" points="365.95 154.66 367.43 155.6 367.74 155.11 366.26 154.17 365.95 154.66"/><rect class="cls-1" x="369.51" y="155.89" width="0.58" height="1.75" transform="translate(39.4 385.15) rotate(-57.63)"/><rect class="cls-1" x="363.59" y="152.13" width="0.58" height="1.75" transform="translate(39.81 378.4) rotate(-57.63)"/><rect class="cls-1" x="372.48" y="157.76" width="0.58" height="1.75" transform="translate(39.19 388.52) rotate(-57.63)"/><rect class="cls-1" x="354.71" y="146.5" width="0.58" height="1.75" transform="matrix(0.54, -0.84, 0.84, 0.54, 40.52, 368.39)"/><polygon class="cls-1" points="395.43 158.8 395.5 159.38 397.24 159.16 397.17 158.58 395.43 158.8"/><rect class="cls-1" x="360.63" y="150.26" width="0.58" height="1.75" transform="translate(40.1 375.14) rotate(-57.64)"/><rect class="cls-1" x="357.67" y="148.38" width="0.58" height="1.75" transform="translate(40.23 371.66) rotate(-57.63)"/><polygon class="cls-1" points="388.48 159.69 388.55 160.27 390.29 160.05 390.21 159.47 388.48 159.69"/><polygon class="cls-1" points="385 160.14 385.07 160.72 386.81 160.5 386.74 159.92 385 160.14"/><polygon class="cls-1" points="391.95 159.25 392.03 159.83 393.77 159.6 393.69 159.03 391.95 159.25"/><polygon class="cls-1" points="381.52 160.59 381.6 161.17 383.33 160.94 383.26 160.36 381.52 160.59"/><rect class="cls-1" x="440.23" y="158.64" width="0.59" height="1.75" transform="matrix(0.85, -0.52, 0.52, 0.85, -18.67, 252.52)"/><rect class="cls-1" x="375.44" y="159.64" width="0.58" height="1.75" transform="translate(38.98 391.89) rotate(-57.63)"/><rect class="cls-1" x="532.07" y="151.09" width="0.58" height="1.75" transform="translate(284.12 646.81) rotate(-79.29)"/><polygon class="cls-1" points="504.93 164.01 505.38 164.38 506.49 163.02 506.03 162.65 504.93 164.01"/><polygon class="cls-1" points="502.72 166.74 503.18 167.11 504.28 165.74 503.83 165.38 502.72 166.74"/><polygon class="cls-1" points="507.13 161.29 507.59 161.65 508.69 160.29 508.23 159.93 507.13 161.29"/><polygon class="cls-1" points="489.41 167.97 491.16 168.01 491.17 167.42 489.42 167.39 489.41 167.97"/><polygon class="cls-1" points="492.91 168.04 494.67 168.08 494.68 167.5 492.93 167.46 492.91 168.04"/><polygon class="cls-1" points="499.93 168.19 501.68 168.22 501.69 167.64 499.94 167.6 499.93 168.19"/><polygon class="cls-1" points="509.34 158.56 509.79 158.93 510.89 157.57 510.44 157.2 509.34 158.56"/><polygon class="cls-1" points="496.42 168.11 498.17 168.15 498.18 167.57 496.43 167.53 496.42 168.11"/><rect class="cls-1" x="521.29" y="151.32" width="1.75" height="0.59" transform="translate(-19.7 196.58) rotate(-20.93)"/><polygon class="cls-1" points="524.52 150.4 524.73 150.95 524.95 150.86 526.27 151.11 526.38 150.54 524.9 150.25 524.52 150.4"/><polygon class="cls-1" points="512.09 155.16 511.54 155.84 512 156.2 512.45 155.65 513.27 155.33 513.06 154.79 512.09 155.16"/><rect class="cls-1" x="351.75" y="144.63" width="0.58" height="1.75" transform="translate(40.65 364.91) rotate(-57.63)"/><rect class="cls-1" x="518.02" y="152.57" width="1.75" height="0.59" transform="translate(-20.37 195.49) rotate(-20.93)"/><rect class="cls-1" x="514.74" y="153.83" width="1.75" height="0.59" transform="translate(-21.03 194.4) rotate(-20.93)"/><polygon class="cls-1" points="445.29 167.9 446.2 169.4 446.7 169.09 445.79 167.6 445.29 167.9"/><polygon class="cls-1" points="454.47 168.7 454.57 169.27 456.3 168.97 456.2 168.4 454.47 168.7"/><polygon class="cls-1" points="485.9 167.9 487.66 167.94 487.67 167.35 485.92 167.32 485.9 167.9"/><polygon class="cls-1" points="184.88 78.63 186.56 79.1 186.72 78.54 185.03 78.07 184.88 78.63"/><polygon class="cls-1" points="457.92 168.1 458.02 168.67 459.75 168.37 459.65 167.79 457.92 168.1"/><rect class="cls-1" x="443.87" y="164.63" width="0.59" height="1.75" transform="matrix(0.85, -0.52, 0.52, 0.85, -21.17, 255.71)"/><polygon class="cls-1" points="447.56 169.9 447.66 170.47 449.39 170.17 449.29 169.6 447.56 169.9"/><polygon class="cls-1" points="441.64 161.91 442.55 163.41 443.05 163.11 442.14 161.61 441.64 161.91"/><polygon class="cls-1" points="461.38 167.5 461.48 168.07 463.2 167.77 463.1 167.19 461.38 167.5"/><polygon class="cls-1" points="475.39 167.69 477.14 167.72 477.15 167.14 475.4 167.1 475.39 167.69"/><polygon class="cls-1" points="478.89 167.76 480.65 167.8 480.66 167.21 478.91 167.18 478.89 167.76"/><polygon class="cls-1" points="482.4 167.83 484.15 167.87 484.16 167.28 482.41 167.25 482.4 167.83"/><polygon class="cls-1" points="464.87 167.48 466.63 167.51 466.64 166.93 464.89 166.89 464.87 167.48"/><polygon class="cls-1" points="471.89 167.62 473.64 167.66 473.65 167.07 471.9 167.03 471.89 167.62"/><polygon class="cls-1" points="468.38 167.55 470.13 167.58 470.14 167 468.39 166.96 468.38 167.55"/><polygon class="cls-1" points="451.01 169.3 451.12 169.87 452.84 169.57 452.74 169 451.01 169.3"/><polygon class="cls-1" points="239.98 97.24 241.1 98.59 241.55 98.22 240.42 96.87 239.98 97.24"/><polygon class="cls-1" points="238.59 94.08 238.03 94.25 238.34 95.24 238.85 95.9 239.3 95.52 238.88 95.01 238.59 94.08"/><polygon class="cls-1" points="244.46 102.63 245.59 103.98 246.03 103.6 244.91 102.25 244.46 102.63"/><polygon class="cls-1" points="242.22 99.94 243.34 101.28 243.79 100.91 242.67 99.56 242.22 99.94"/><polygon class="cls-1" points="235.51 84.03 234.95 84.2 235.46 85.88 236.02 85.7 235.51 84.03"/><polygon class="cls-1" points="232.48 81.98 233.81 83.13 234.19 82.68 232.86 81.54 232.48 81.98"/><polygon class="cls-1" points="237.56 90.73 237.01 90.9 237.52 92.58 238.08 92.41 237.56 90.73"/><polygon class="cls-1" points="236.53 87.38 235.98 87.55 236.49 89.23 237.05 89.06 236.53 87.38"/><rect class="cls-1" x="250.49" y="123.88" width="0.58" height="1.75" transform="translate(-4.86 239.23) rotate(-50.57)"/><polygon class="cls-1" points="251.2 110.71 251.45 111.01 251.3 112.1 251.87 112.18 252.06 110.83 251.65 110.33 251.2 110.71"/><rect class="cls-1" x="253.2" y="126.11" width="0.58" height="1.75" transform="translate(-5.5 242.34) rotate(-50.62)"/><polygon class="cls-1" points="250.66 120.86 250.08 120.78 249.83 122.52 250.41 122.6 250.66 120.86"/><rect class="cls-1" x="247.2" y="104.93" width="0.58" height="1.75" transform="translate(-10.31 183.17) rotate(-39.85)"/><polygon class="cls-1" points="250.52 108.99 249.4 107.64 248.95 108.02 250.07 109.36 250.52 108.99"/><polygon class="cls-1" points="198.44 81.68 198.5 82.26 200.25 82.07 200.18 81.49 198.44 81.68"/><polygon class="cls-1" points="201.92 81.3 201.99 81.88 203.73 81.69 203.67 81.11 201.92 81.3"/><rect class="cls-1" x="255.9" y="128.34" width="0.58" height="1.75" transform="translate(-6.29 245.12) rotate(-50.59)"/><polygon class="cls-1" points="205.41 80.91 205.47 81.5 207.21 81.31 207.15 80.72 205.41 80.91"/><rect class="cls-1" x="230.38" y="79.18" width="0.59" height="1.75" transform="translate(19.87 203.27) rotate(-49.44)"/><polygon class="cls-1" points="188.25 79.57 189.94 80.05 190.1 79.48 188.41 79.01 188.25 79.57"/><rect class="cls-1" x="195.63" y="80.54" width="0.58" height="1.75" transform="translate(64.56 248.03) rotate(-74.31)"/><polygon class="cls-1" points="208.89 80.53 208.96 81.11 210.7 80.92 210.64 80.34 208.89 80.53"/><polygon class="cls-1" points="191.63 80.52 193.31 80.99 193.47 80.43 191.78 79.95 191.63 80.52"/><rect class="cls-1" x="225.06" y="74.61" width="0.59" height="1.75" transform="translate(21.48 197.62) rotate(-49.44)"/><rect class="cls-1" x="535.51" y="151.74" width="0.58" height="1.75" transform="translate(286.48 650.83) rotate(-79.31)"/><rect class="cls-1" x="221.7" y="75.91" width="1.75" height="0.58" transform="translate(-2.1 145.95) rotate(-36.15)"/><rect class="cls-1" x="218.87" y="77.98" width="1.75" height="0.58" transform="translate(-4.11 143.85) rotate(-35.93)"/><polygon class="cls-1" points="217.5 79.59 217.46 79.6 217.44 79.58 215.86 79.77 215.93 80.35 217.64 80.17 217.79 80.05 217.5 79.66 217.5 79.59"/><polygon class="cls-1" points="212.38 80.15 212.44 80.73 214.19 80.54 214.12 79.96 212.38 80.15"/><polygon class="cls-1" points="306.9 137.27 307.05 137.84 308.74 137.39 308.59 136.82 306.9 137.27"/><polygon class="cls-1" points="320.44 133.65 320.59 134.22 322.29 133.76 322.14 133.2 320.44 133.65"/><polygon class="cls-1" points="323.83 132.74 323.98 133.31 325.68 132.86 325.52 132.29 323.83 132.74"/><rect class="cls-1" x="327.26" y="131.6" width="1.75" height="0.59" transform="translate(-22.89 88.86) rotate(-14.91)"/><rect class="cls-1" x="317.1" y="134.32" width="1.75" height="0.59" transform="translate(-23.93 86.34) rotate(-14.91)"/><rect class="cls-1" x="348.79" y="142.75" width="0.58" height="1.75" transform="translate(40.74 361.37) rotate(-57.59)"/><polygon class="cls-1" points="313.67 135.46 313.82 136.03 315.51 135.57 315.36 135.01 313.67 135.46"/><polygon class="cls-1" points="310.28 136.37 310.43 136.94 312.13 136.48 311.98 135.91 310.28 136.37"/><rect class="cls-1" x="303.56" y="137.94" width="1.75" height="0.59" transform="translate(-25.32 82.98) rotate(-14.91)"/><rect class="cls-1" x="342.87" y="139" width="0.58" height="1.75" transform="matrix(0.54, -0.84, 0.84, 0.54, 41.16, 354.63)"/><rect class="cls-1" x="339.91" y="137.12" width="0.58" height="1.75" transform="translate(41.49 351.42) rotate(-57.63)"/><rect class="cls-1" x="345.83" y="140.87" width="0.58" height="1.75" transform="translate(41.07 358.17) rotate(-57.63)"/><rect class="cls-1" x="336.94" y="135.24" width="0.58" height="1.75" transform="matrix(0.54, -0.84, 0.84, 0.54, 41.58, 347.89)"/><rect class="cls-1" x="258.61" y="130.56" width="0.58" height="1.75" transform="translate(-7.05 247.94) rotate(-50.57)"/><polygon class="cls-1" points="333.38 134.02 334.86 134.96 335.17 134.46 333.69 133.53 333.38 134.02"/><rect class="cls-1" x="331.02" y="131.49" width="0.58" height="1.75" transform="translate(42 341.14) rotate(-57.59)"/><rect class="cls-1" x="276.5" y="139.63" width="0.58" height="1.75" transform="matrix(0.04, -1, 1, 0.04, 124.24, 410.85)"/><polygon class="cls-1" points="269.25 139.56 268.88 140.01 269.45 140.48 270.66 140.53 270.68 139.95 269.67 139.9 269.25 139.56"/><rect class="cls-1" x="273" y="139.48" width="0.58" height="1.75" transform="translate(121.04 407.2) rotate(-87.48)"/><rect class="cls-1" x="266.74" y="137.24" width="0.58" height="1.75" transform="translate(-9.25 256.65) rotate(-50.57)"/><rect class="cls-1" x="261.32" y="132.79" width="0.58" height="1.75" transform="translate(-7.65 251.15) rotate(-50.64)"/><rect class="cls-1" x="264.03" y="135.01" width="0.58" height="1.75" transform="translate(-8.42 253.97) rotate(-50.62)"/><polygon class="cls-1" points="300.13 139.09 300.27 139.65 301.97 139.2 301.82 138.63 300.13 139.09"/><rect class="cls-1" x="290.51" y="140.25" width="0.58" height="1.75" transform="matrix(0.04, -1, 1, 0.04, 137.02, 425.43)"/><polygon class="cls-1" points="293.35 140.9 293.5 141.47 295.19 141.01 295.04 140.45 293.35 140.9"/><polygon class="cls-1" points="296.74 139.99 296.89 140.56 298.58 140.11 298.43 139.54 296.74 139.99"/><rect class="cls-1" x="280.01" y="139.79" width="0.58" height="1.75" transform="translate(127.43 414.5) rotate(-87.48)"/><rect class="cls-1" x="287.01" y="140.09" width="0.58" height="1.75" transform="translate(133.82 421.79) rotate(-87.48)"/><rect class="cls-1" x="283.51" y="139.94" width="0.58" height="1.75" transform="translate(130.64 418.15) rotate(-87.48)"/><path class="cls-1" d="M1104.09,263h-1.74v-.58h1.74Zm-3.47,0h-1.74v-.58h1.74Zm-3.48,0h-1.74v-.58h1.74Zm-3.48,0h-1.74v-.58h1.74Zm-3.47,0h-1.74v-.58h1.74Zm-3.48,0H1085v-.58h1.74Zm-3.48,0h-1.74v-.58h1.74Zm-3.47,0H1078v-.58h1.74Zm-3.48,0h-1.74v-.58h1.74Zm-3.48,0h-1.74v-.58h1.74Zm-3.47,0h-1.74v-.58h1.74Zm-3.48,0h-1.74v-.58h1.74Zm-3.48,0h-1.74v-.58h1.74Zm-3.47,0h-1.74v-.58h1.74Zm-3.48,0h-1.74v-.58h1.74Zm-3.48,0h-1.74v-.58h1.74Zm-3.47,0h-1.74v-.58h1.74Zm-3.48,0h-1.74v-.58H1045Zm-3.48,0h-1.74v-.58h1.74Zm-3.47,0h-1.74v-.58H1038Zm-3.48,0h-1.74v-.58h1.74Zm-3.48,0h-1.74v-.58h1.74Zm-3.48,0h-1.73v-.58h1.73Zm-3.47,0h-1.74v-.58h1.74Zm-3.48,0h-1.74v-.57h1.74Zm-3.48,0h-1.73v-.58h1.73Zm-3.47,0H1012v-.58h1.74Zm-3.48,0h-1.74v-.58h1.74Zm-3.48,0H1005v-.58h1.73Zm-3.47,0h-1.74v-.58h1.74Zm-3.48,0h-1.74v-.58h1.74Zm-3.48,0h-1.73v-.58h1.73Zm-3.47,0H991.1v-.58h1.74Zm-3.48,0h-1.74v-.58h1.74Zm-3.48,0h-1.73v-.58h1.73Zm-3.47,0h-1.74v-.58h1.74Zm-3.48,0h-1.74v-.58h1.74Zm-3.48,0h-1.74v-.58h1.74ZM972,263h-1.74v-.58H972Zm-3.48,0h-1.74v-.57h1.74Zm-3.48,0h-1.74v-.58H965Zm-3.47,0h-1.74v-.58h1.74Zm-3.48,0h-1.74v-.58h1.74Zm-3.48,0h-1.74v-.58h1.74Zm-3.47,0h-1.74v-.58h1.74Zm-3.48,0H945.9v-.58h1.74Zm-3.48,0h-1.74v-.58h1.74Zm-3.47,0H939v-.58h1.74Zm-3.48,0h-1.74v-.58h1.74Zm-3.48,0H932v-.58h1.74Zm-3.47,0h-1.74v-.58h1.74Zm-3.48,0H925v-.58h1.74Zm-3.48,0h-1.74v-.58h1.74Zm-3.47,0h-1.74v-.58h1.74Zm-3.48,0h-1.74v-.58h1.74Zm-3.48,0h-1.74v-.58h1.74Zm-3.47,0h-1.74v-.58h1.74Zm-3.48,0h-1.74v-.58h1.74Zm-3.48,0H900.7v-.58h1.74Zm-3.48,0h-1.73v-.58H899Zm-3.47,0h-1.74v-.58h1.74Zm-3.48,0h-1.74v-.58H892Zm-3.48,0H886.8v-.58h1.73Zm-3.47,0h-1.74v-.58h1.74Zm-3.48,0h-1.74v-.58h1.74Zm-3.48,0h-1.73v-.58h1.73Zm-3.47,0h-1.74v-.58h1.74Zm-3.48,0h-1.74v-.57h1.74Zm-3.48,0h-1.73v-.58h1.73Zm-3.47,0h-1.74v-.58h1.74Zm-3.48,0H859v-.58h1.74Zm-3.48,0h-1.73v-.58h1.73Zm-3.47,0H852v-.58h1.74Zm-3.48,0h-1.74v-.58h1.74Zm-3.48,0h-1.73v-.57h1.73Zm-3.47,0H841.6v-.58h1.74Zm-3.48,0h-1.74v-.58h1.74Zm-3.48,0h-1.74v-.58h1.74Zm-3.47,0h-1.74v-.58h1.74Zm-3.48,0h-1.74v-.58h1.74Zm-3.48,0h-1.74v-.58H826Zm-3.47,0h-1.74v-.58h1.74Zm-3.48,0h-1.74v-.58H819Zm-3.48,0h-1.74v-.58h1.74Zm-3.47,0h-1.74v-.58h1.74Zm-3.48,0h-1.74v-.58h1.74Zm-3.48,0h-1.74v-.58h1.74Zm-3.47,0h-1.74v-.58h1.74Zm-3.48,0H796.4v-.58h1.74Zm-3.48,0h-1.74v-.58h1.74Zm-3.47,0h-1.74v-.58h1.74Zm-3.48,0H786v-.58h1.74Zm-3.48,0h-1.74v-.58h1.74Zm-3.47,0H779v-.58h1.74Zm-3.48,0h-1.74v-.58h1.74Zm-3.48,0h-1.74v-.58h1.74Zm-3.47,0h-1.74v-.58h1.74Zm-3.48,0h-1.74v-.58h1.74Zm-3.48,0h-1.74v-.58h1.74Zm-3.48,0h-1.73v-.58h1.73Zm-3.47,0h-1.74v-.58h1.74Zm-3.48,0H751.2v-.58h1.74Zm-3.48,0h-1.73v-.58h1.73Zm-3.47,0h-1.74v-.58H746Zm-3.48,0h-1.74v-.58h1.74Zm-3.48,0H737.3v-.58H739Zm-3.47,0h-1.74v-.58h1.74Zm-3.48,0h-1.74v-.58h1.74Zm-3.48,0h-1.73v-.58h1.73Zm-3.47,0h-1.74v-.58h1.74Zm-3.48,0h-1.74v-.57h1.74Zm-3.48,0h-1.73v-.58h1.73Zm-3.47,0H713v-.58h1.74Zm-3.48,0h-1.74v-.58h1.74Zm-3.48,0H706v-.58h1.73Zm-3.47,0h-1.74v-.58h1.74Zm-3.48,0h-1.74v-.58h1.74Zm-3.48,0h-1.73v-.57h1.73Zm-3.47,0H692.1v-.58h1.74Zm-3.48,0h-1.74v-.58h1.74Zm-3.48,0h-1.74v-.58h1.74Zm-3.47,0h-1.74v-.58h1.74Zm-3.48,0h-1.74v-.58h1.74Zm-3.48,0h-1.74v-.58h1.74Zm-3.47,0h-1.74v-.57H673Zm-3.48,0h-1.74v-.58h1.74Zm-3.48,0h-1.74v-.58H666Zm-3.47,0h-1.74v-.58h1.74Zm-3.48,0h-1.74v-.58h1.74Zm-3.48,0h-1.74v-.58h1.74Zm-3.47,0h-1.74v-.58h1.74Zm-3.48,0H646.9v-.58h1.74Zm-3.48,0h-1.74v-.58h1.74Zm-3.47,0H640v-.58h1.74Zm-3.48,0h-1.74v-.58h1.74Zm-3.48,0H633v-.58h1.74Zm-3.47,0h-1.74v-.58h1.74Zm-3.48,0H626v-.58h1.74Zm-3.48,0h-1.74v-.58h1.74Zm-3.47,0h-1.74v-.58h1.74Zm-3.48,0h-1.74v-.58h1.74Zm-3.48,0h-1.74v-.58h1.74Zm-3.48,0h-1.73v-.58h1.73Zm-3.47,0h-1.74v-.58h1.74Zm-3.48,0H601.7v-.58h1.74Zm-3.48,0h-1.73v-.58H600Zm-3.47,0h-1.74v-.58h1.74Zm-3.48,0h-1.74v-.58H593Zm-3.48,0H587.8v-.58h1.73Zm-3.47,0h-1.74v-.58h1.74Zm-3.48,0h-1.74v-.58h1.74Zm-3.48,0h-1.73v-.58h1.73Zm-3.47,0h-1.74v-.57h1.74Zm-3.48,0h-1.74v-.58h1.74Zm-3.48,0h-1.73v-.58h1.73Zm-3.47,0h-1.74v-.58h1.74Zm-3.48,0H560v-.58h1.74Zm-3.48,0h-1.73v-.58h1.73Zm-3.47,0H553v-.58h1.74Zm-3.48,0h-1.74v-.58h1.74Zm-3.48,0h-1.73v-.58h1.73Zm-3.47,0H542.6v-.58h1.74Zm-3.48,0h-1.74v-.58h1.74Zm-3.48,0h-1.74v-.58h1.74Zm-3.47,0h-1.74v-.58h1.74Zm-3.48,0h-1.74v-.58h1.74Zm-3.48,0h-1.74v-.58H527Zm-3.47,0h-1.74v-.57h1.74Zm-3.48,0h-1.74v-.58H520Zm-3.48,0h-1.74v-.58h1.74Zm-3.47,0h-1.74v-.58h1.74Zm-3.48,0h-1.74v-.58h1.74Zm-3.48,0h-1.74v-.58h1.74Zm-3.47,0h-1.74v-.58h1.74Zm-3.48,0H497.4v-.58h1.74Zm-3.48,0h-1.74v-.58h1.74Zm-3.47,0h-1.74v-.58h1.74Zm-3.48,0H487v-.58h1.74Zm-3.48,0h-1.74v-.58h1.74Zm-3.47,0H480v-.58h1.74Zm-3.48,0h-1.74v-.58h1.74Zm-3.48,0h-1.74v-.58h1.74Zm-3.48,0h-1.73v-.58h1.73Zm-3.47,0h-1.74v-.58h1.74Zm-3.48,0h-1.74v-.58h1.74Zm-3.48,0h-1.73v-.58h1.73Zm-3.47,0h-1.74v-.58h1.74Zm-3.48,0H452.2v-.58h1.74Zm-3.48,0h-1.73v-.58h1.73Zm-3.47,0h-1.74v-.58H447Zm-3.48,0h-1.74v-.58h1.74Zm-3.48,0H438.3v-.58H440Zm-3.47,0h-1.74v-.58h1.74Zm-3.48,0h-1.74v-.58h1.74Zm-3.48,0h-1.73v-.58h1.73Zm-3.47,0h-1.74v-.57h1.74Zm-3.48,0h-1.74v-.58h1.74Zm-3.48,0h-1.73v-.58h1.73Zm-3.47,0H414v-.58h1.74Zm-3.48,0h-1.74v-.58h1.74Zm-3.48,0H407v-.58h1.73Zm-3.47,0h-1.74v-.58h1.74Zm-3.48,0h-1.74v-.57h1.74Zm-3.48,0h-1.74v-.58h1.74Zm-3.47,0H393.1v-.58h1.74Zm-3.48,0h-1.74v-.58h1.74Zm-3.48,0h-1.74v-.58h1.74Zm-3.47,0h-1.74v-.58h1.74Zm-3.48,0h-1.74v-.58h1.74Zm-3.48,0h-1.74v-.58h1.74Zm-3.47,0h-1.74v-.58H374Zm-3.48,0h-1.74v-.58h1.74Zm-3.48,0h-1.74v-.58H367Zm-3.47,0h-1.74v-.58h1.74Zm-3.48,0h-1.74v-.58h1.74Zm-3.48,0h-1.74v-.58h1.74Zm-3.47,0h-1.74v-.58h1.74Zm-3.48,0H347.9v-.58h1.74Zm-3.48,0h-1.74v-.58h1.74Zm-3.47,0H341v-.58h1.74Zm-3.48,0h-1.74v-.58h1.74Zm-3.48,0H334v-.58h1.74Zm-3.47,0h-1.74v-.58h1.74Zm-3.48,0H327v-.58h1.74Zm-3.48,0h-1.74v-.58h1.74Zm-3.48,0h-1.73v-.58h1.73Zm-3.47,0h-1.74v-.58h1.74Zm-3.48,0h-1.74v-.58h1.74Zm-3.48,0h-1.73v-.58h1.73Zm-3.47,0h-1.74v-.58h1.74Zm-3.48,0H302.7v-.58h1.74Zm-3.48,0h-1.73v-.58H301Zm-3.47,0h-1.74v-.58h1.74Zm-3.48,0h-1.74v-.58H294Zm-3.48,0H288.8v-.58h1.73Zm-3.47,0h-1.74v-.58h1.74Zm-3.48,0h-1.74v-.58h1.74Zm-3.48,0h-1.73v-.58h1.73Zm-3.47,0h-1.74v-.58h1.74Zm-3.48,0h-1.74v-.58h1.74Zm-3.48,0h-1.73v-.58h1.73Zm-3.47,0h-1.74v-.58h1.74Zm-3.48,0H261v-.58h1.74Zm-3.48,0h-1.73v-.58h1.73Zm-3.47,0H254v-.58h1.74Zm-3.48,0h-1.74v-.57h1.74Zm-3.48,0h-1.74v-.58h1.74Zm-3.47,0H243.6v-.58h1.74Zm-3.48,0h-1.74v-.58h1.74Zm-3.48,0h-1.74v-.58h1.74Zm-3.47,0h-1.74v-.58h1.74Zm-3.48,0h-1.74v-.58h1.74Zm-3.48,0h-1.74v-.57H228Zm-3.47,0h-1.74v-.58h1.74Zm-3.48,0h-1.74v-.58H221Zm-3.48,0h-1.74v-.58h1.74Zm-3.47,0h-1.74v-.58h1.74Zm-3.48,0h-1.74v-.58h1.74Zm-3.48,0h-1.74v-.58h1.74Zm-3.47,0h-1.74v-.58h1.74Zm-3.48,0H198.4v-.58h1.74Zm-3.48,0h-1.74v-.58h1.74Zm-3.47,0h-1.74v-.58h1.74Zm-3.48,0H188v-.58h1.74Zm-3.48,0h-1.74v-.58h1.74Zm-3.47,0H181v-.58h1.74Zm-3.48,0h-1.74v-.58h1.74Zm-3.48,0h-1.74V262h1.74Zm-3.47,0h-1.74V262h1.74Zm-3.48,0h-1.74V262h1.74Zm-3.48,0h-1.74V262h1.74Zm-3.47,0h-1.74V262h1.74Zm-3.48,0h-1.74V262h1.74Zm-3.48,0H153.2V262h1.74Zm-3.47,0h-1.74V262h1.74Zm-3.48,0h-1.74V262H148Zm-3.48,0h-1.74V262h1.74Zm-3.47,0H139.3V262H141Zm-3.48,0h-1.74V262h1.74Zm-3.48,0h-1.74V262h1.74Zm-3.48,0h-1.73V262h1.73Zm-3.47,0h-1.74V262h1.74Zm-3.48,0h-1.74V262h1.74Zm-3.48,0h-1.73V262h1.73Zm-3.47,0H115V262h1.74Zm-3.48,0h-1.74V262h1.74Zm-3.48,0H108V262h1.73Zm-3.47,0h-1.74V262h1.74Zm-3.48,0h-1.74V262h1.74Zm-3.48,0H97.58V262h1.73Zm-3.47,0H94.1V262h1.74Zm-3.48,0H90.62V262h1.74Zm-3.48,0H87.15V262h1.73Zm-3.47,0H83.67V262h1.74Zm-3.48,0H80.19V262h1.74Zm-3.48,0H76.72V262h1.73Zm-3.47,0H73.24V262H75Zm-3.48,0H69.76V262H71.5Zm-3.48,0H66.29V262H68Zm-3.47,0H62.81V262h1.74Zm-3.48,0H59.33V262h1.74Zm-3.48,0H55.86V262h1.73Zm-3.47,0H52.38V262h1.74Zm-3.48,0H48.9V262h1.74Zm-3.48,0H45.43V262h1.73Zm-3.47,0H42V262h1.74Zm-3.48,0H38.47V262h1.74Zm-3.48,0H35V262h1.73Zm-3.47,0H31.52V262h1.74Zm-3.48,0H28V262h1.74Zm-3.48,0H24.56V262H26.3Zm-3.47,0H21.09V262h1.74Zm-3.48,0H17.61V262h1.74Zm-3.48,0H14.13V262h1.74Zm-3.47,0H10.66V262H12.4Zm-3.48,0H7.18V262H8.92Z"/></g></g></svg>