<svg xmlns="http://www.w3.org/2000/svg" viewBox="0 0 457.55 243.65"><defs><style>.cls-1{fill:#2a3791;}</style></defs><g id="Layer_2" data-name="Layer 2"><g id="Layer_1-2" data-name="Layer 1"><path class="cls-1" d="M267.3,242.13l.41-.83,3.08,1.52-.4.83Zm4.64-1.72,1.63-3.07h.52v.59l.16.09-1.5,2.82Zm-10.8-1.33.41-.83,3.08,1.52-.41.83Zm16.39-1.75,3.44,0v.92l-3.44,0ZM255,236l.41-.83,3.08,1.53-.4.83Zm28-.31,1.8-2.93.79.49-1.81,2.92ZM248.81,233l.4-.82,3.09,1.52-.41.83Zm-95.73-.35,3.18-1.3.35.85-3.18,1.31Zm-6-2,.5-.78,2.9,1.85-.49.78Zm95.52-.68.41-.83,3.08,1.52-.41.83Zm-83.2.08,3.18-1.31.35.86-3.18,1.3Zm127.18-.15,1.81-2.93.78.48-1.8,2.93Zm-145.3-2.94.5-.78,2.9,1.85-.5.77Zm95.15,0,.41-.83,3.09,1.53-.41.82Zm-70.67.51,3.18-1.3.35.85-3.18,1.31Zm6.08-2.48,1.68-3,.81.45-1.69,3Zm58.43-1.08.41-.83,3.08,1.53-.41.82Zm-94.79-.61.5-.77,2.9,1.84-.5.78Zm154.29.84.43-3.41.92.12-.43,3.41Zm-207.6-1.63,3.44-.07,0,.93-3.44.06Zm6.88-.13,3.43-.07,0,.93-3.44.06Zm6.87-.13,3.44-.06,0,.92L96,223.1Zm-20.33-1,.4-.84,3.11,1.48-.4.83Zm27.09.42,3.38-.63.17.91-3.38.63Zm121.42-.81.41-.82,3.08,1.52-.4.83Zm-94.82-.34.36-.85,3.16,1.37-.37.85Zm-19.84-.11,3.38-.63.17.91-3.38.63Zm6.76-1.27,3.38-.63.17.91-3.38.63Zm-43.86.56-3.08-.1,0-.92,3.17.1.42.16-.4.83Zm-10-.32,0-.92,3.44.11,0,.92Zm112.84-.38,1.68-3,.81.45-1.69,3ZM218,217.75l.41-.83,3.08,1.52-.41.83ZM55.55,219.09l0-.92,3.43.11,0,.92Zm69.12-.66-1.5.29-.17-.91,1.78-.34,1.75.76-.37.85ZM49,216.93l.52-.77,2.85,1.93-.52.76Zm241.64.32.25-2.06,2.14-.11.05.92-1.37.08-.16,1.28Zm-78.86-2.55.41-.83,3.08,1.52-.41.83Zm84.68.2,3.44-.17.05.92-3.44.18Zm6.87-.35,3.44-.18.05.92-3.44.18Zm6.87-.36,3.44-.17,0,.92-3.43.17Zm-266.17-.61-.69-.16.2-.9.78.18,2.35,1.54-.52.77Zm273,.26,3.44-.18,0,.92-3.43.18Zm6.87-.36,3.43-.18.05.93-3.43.17Zm-144.39.08,3.15-1.39.37.85L180,214.4Zm151.26-.44,3.43-.17.05.92-3.43.18Zm6.62-.75a6.22,6.22,0,0,0,2.47-2l.74.55a7.15,7.15,0,0,1-2.83,2.28Zm-131.81-.72.4-.83,3.09,1.53-.41.83Zm-169,.26.2-.9,3.36.75-.2.91Zm149.22-1.12,3.15-1.38.37.84-3.15,1.38Zm13.38-.76.08-.92,3.42.3-.08.92Zm-168.14-2.3.65-.65,2.44,2.42-.65.66Zm161.29,1.69.08-.91,3.42.3-.08.92Zm148.71-2a6.81,6.81,0,0,0,.05-.78,7,7,0,0,0-.08-1l-.24-1.49.91-.15.24,1.5a7.43,7.43,0,0,1,.09,1.15,6.54,6.54,0,0,1-.06.89ZM26.24,202.89l.65-.65,2.44,2.42-.65.65Zm313.51-5.51.91-.15.55,3.39-.91.15ZM23.37,200.05l-2.51-.48.17-.91,2.79.53.63.62-.65.66Zm-9.27-1.76.17-.91,3.38.64-.17.91ZM7.34,197l.18-.91,3.38.64-.18.91Zm-5.67-1.07-.47-1.61.89-.26.31,1.07,1.74.32-.18.91Zm337-5.36.91-.14.55,3.39-.91.15Zm-321.81.29.5-.77,1.83,1.16.43-.38.61.69-.95.84ZM0,190.28l2.62-2,.56.74-2.11,1.6,0,.15L.23,191Zm11.05-3.1.5-.78,2.9,1.85L14,189Zm9.78-1.72.91-.17.63,3.38-.91.17Zm27.6,2,.25-.89,1.59.46,1.34-.58.37.84-1.64.71Zm289.14-3.69.91-.15L339,187l-.91.15ZM5.36,186.22l2.69-2,.59.38-.32.51,0,0-.2.23-.06,0L5.92,187Zm36.46-.61.25-.89,3.31.94-.26.89Zm-6.72-.32,3.4-.51.14.91-3.4.51Zm-6.75,0,.22-.89,3.34.84-.23.89Zm26.42-.22,3.16-1.36.36.85L55.13,186ZM67,184.28l2.27-2.57.7.61-2.28,2.57Zm-5.74-1.11.11-.23-.24-.55.33-.14,3.17,1.47-.39.84Zm-39.53.48.22-.89,3.34.84-.23.89Zm314.87-6.22-.11-.35.88-.27.61,3.44-.91.15ZM72,179.28l3.43-.27.07.92L72,180.2Zm6.86-.54,2.09-.17,1.35-.07,0,.92-3.42.24Zm6.87-.41,3.44-.17.05.92-3.44.17Zm6.87-.35,1.35-.07a4.38,4.38,0,0,0,1.83-.39l.44.82a5.52,5.52,0,0,1-2.22.5l-1.35.07Zm2.34-4.13-1-1.61.79-.48,1,1.58a14.72,14.72,0,0,1,.87,1.35l-.81.45A12.11,12.11,0,0,0,94.9,173.85Zm239.54-3.35.88-.27,1,3.29-.88.26Zm-244.1-4.12.78-.49,1.79,2.94-.78.48Zm242.1-2.46.88-.27,1,3.29-.88.27ZM86.75,160.51l.78-.49,1.8,2.94-.79.48Zm82.6,2.71.3-.87.13.05,3-.71.21.9-3.22.76ZM162.86,161l.3-.87,3.25,1.13-.31.87Zm36.88,0,3.38-.62.17.9-3.39.63Zm-23.66-.07,1.37-.32,1.07-1.34.72.57L178,161.4l-1.68.4Zm17.33-1.7.41-.82,3.07,1.55-.41.82Zm137.71-.94a8.62,8.62,0,0,1,.09-1.24l.91.13a8.29,8.29,0,0,0-.08,1.11,7.57,7.57,0,0,0,.29,2.11l-.89.24A8.54,8.54,0,0,1,331.12,158.26Zm-187.61,1.27.13-.91,3.4.46-.12.92Zm12.85-.83.3-.87,3.25,1.13-.3.87Zm48.79.32.82-3.34.9.22-.82,3.34Zm-55.45-.67a6.5,6.5,0,0,1,3.44-1.23l.05.92a5.64,5.64,0,0,0-2.95,1.05Zm-13,.25.12-.91,3.41.46-.13.92Zm-5.52-.75-1.3-.73.47-.79,1.05.62,2,.27-.12.92Zm56.48-1.55-.37-.17.36-.85.42.19,2.68,1.36-.41.82Zm-104.5-1.66.79-.48,1.79,2.93-.79.48Zm97.6,1.9a6.4,6.4,0,0,1,3.25-1.65l.17.91a5.51,5.51,0,0,0-2.79,1.41ZM124,153.62l.47-.79,3,1.75-.47.79Zm208.48,0a8.82,8.82,0,0,1,2.47-2.62l.53.76a7.79,7.79,0,0,0-2.22,2.35Zm-125.65-1.29.39-1.57.64-1.76.87.32-.63,1.7-.38,1.53ZM118,150.11l.48-.79,3,1.75-.47.79Zm-38.47-1.34.79-.48,1.79,2.93-.78.48Zm258.66.84,3.4-.57.16.91-3.38.56Zm6.8-1.13,1.83-.3.23-.94.9.22-.37,1.53-2.44.4Zm-232.9-1.87.47-.8,3,1.76-.47.79Zm96.88-.82.24-.66.63-2.61.9.21-.65,2.67-.26.7Zm-130.4-.53a11.65,11.65,0,0,1,.93-3.46l.85.36a10.72,10.72,0,0,0-.86,3.17Zm27.6-2.16.47-.8,3,1.76-.47.79Zm241.7.8.81-3.35.9.22-.82,3.35ZM102,140.6a6.84,6.84,0,0,1-1.21-1.91l.83-.4a7.16,7.16,0,0,0,.94,1.58l1.14.68-.47.8Zm108.66-1.43.81-3.34.9.22-.81,3.34Zm-129.47-.46a23.05,23.05,0,0,1,2.11-2.8l.69.6a24.41,24.41,0,0,0-2,2.7Zm268.32-1.49.81-3.35.9.22-.81,3.34ZM98,132.46l.8-.46a29.78,29.78,0,0,1,1.5,3.15l-.85.36A28.91,28.91,0,0,0,98,132.46Zm-12.12,1a9.17,9.17,0,0,1,2.28-1.37l.84-.33.34.85-.85.34a8.3,8.3,0,0,0-2,1.24ZM353.45,132l3.24-1.16.31.87-3.23,1.16Zm-141,.43a5.77,5.77,0,0,1,2.5-2.69l.44.81a4.78,4.78,0,0,0-2.09,2.26ZM92.31,130.69l3.38-.67.18.9-3.37.67Zm153.45-.31.19-.9.55.12.92-1.94.83.39-1.23,2.6Zm114.16-.71,2.15-.78.63-.68.68.63-.71.76-2.43.94ZM218.44,129l3.44-.08,0,.93-3.44.08Zm6.88-.16,3.43-.08,0,.92-3.44.09Zm16,.55-2.21.05,0-.92,2.32,0,1.2.26-.2.9Zm-9.11-.71,3.44-.08,0,.92-3.43.09Zm132.84-3,2.34-2.53.67.63-2.33,2.53Zm-116.14-1.13,1.46-3.11.84.39-1.47,3.11Zm42.42-3,.26-.89,2.64.77.24-.15.48.79-.59.36Zm78.39-.92L372,118.1l.68.63-2.33,2.53Zm-85-1,.25-.88,3.3,1-.25.88Zm12.68-.14,1.19-.72-.51-1.13.85-.37.83,1.86-1.88,1.15Zm-44.84-.91,3.42-.4.11.92-3.42.4Zm6.83-.8,1-.12,1.81-1.28.53.75-1.9,1.35-1.31.21Zm18.72-.06.26-.89,3.3,1-.26.88Zm-6.61-1.92.26-.89,3.3,1-.25.89Zm102.6-.4,2.08-2.73.74.55L374.82,116Zm-109.12-1,1.44-1,2,.6-.26.88-1.61-.47-1.07.77Zm30.3-3,.84-.37,1.41,3.14-.85.37Zm83.54.37.24-.89a4.09,4.09,0,0,0,3-.37l.45.8a5,5,0,0,1-2.4.63A4.92,4.92,0,0,1,378.81,111.73Zm5.12-3.6a3.1,3.1,0,0,0,.13-.51l1-2.76.87.31-1,2.69a3.41,3.41,0,0,1-.14.55Zm-91.47-3.08.22-.38.53.31.19-.09,1.31,3-.84.37Zm2-3.35,1.73-3,.8.46-1.73,3Zm91.78-.08,1.15-3.24.87.31-1.15,3.24Zm-88.31-5.86,1.73-3,.8.46-1.73,3Zm90.61-.62,1.15-3.24.87.31-1.15,3.24Zm-87.15-5.32,1.74-3,.79.46-1.73,3Zm89.46-1.16.17-.5a6.87,6.87,0,0,1,1.67-2.61l.64.66a6,6,0,0,0-1.44,2.25l-.18.5Zm12-3.89,0-.93,3.44.16-.05.93Zm-6.95-1a6.91,6.91,0,0,1,1.92-.18l1.64.07-.05.93-1.64-.08a5.71,5.71,0,0,0-1.65.16ZM305.08,84l1.75-2.21v-.28l.92,0,0,.62-2,2.48ZM407.61,82.4l.78-3.35.89.21-.77,3.35Zm-101-7.78.93,0,.11,3.44-.92,0ZM409.16,75.7l.78-3.35.89.21-.77,3.35Zm-102.8-8,.93,0,.11,3.44-.92,0ZM410.71,69l.12-.53,2.79-1.72.49.79-2.46,1.51,0,.16Zm5.16-4,.47-3.41.92.13-.47,3.41Zm-109.73-4.1.92,0,.11,3.44-.92,0Zm39,1.34.17-.91,1.72.33.16-.77.9.19-.35,1.66Zm-6.76-1.3.18-.91,3.37.65-.17.91Zm-6.75-1.3.17-.91,3.38.65-.17.91Zm-6.75-1.3.17-.91,3.38.65-.18.91Zm91.9-.15.47-3.41.92.13-.47,3.4Zm-68.88-.66.12-.56-1.59-1.8.69-.61,1.9,2.15-.22,1ZM318.15,57l.18-.9,3.37.65-.17.91Zm-11.62.36.84-3.37.83.16-.09.47h.05l-.73,2.95Zm4.87-1.66.17-.9,3.38.65-.17.9ZM341.9,50l.7-.61L344.87,52l-.69.61Zm75.86,1.37.47-3.41.91.13-.47,3.4Zm-80.41-6.52.69-.61,2.28,2.58-.69.61Zm82.08-.29,2.93-1.8.48.78-2.93,1.81Zm-84.51-6.26.89-.26.95,3.3-.88.26Zm89.95,2.49,1.3-1.86,1.11-.76.51.76-.91.6-1.25,1.79Zm5.27-4.52,2.87-1.9.51.77L430.65,37Zm-93.78-.8,3.18-1.31.35.85-3.18,1.31Zm6.36-2.61,3.18-1.31.35.85-3.18,1.31Zm93.16-.39,2.87-1.9.5.77-2.86,1.9Zm-80-.17.2-.9,3.35.76-.2.9Zm6.35-.35L365,30l.52.76-2.84,1.94Zm-12.37-1-.38.16-.35-.85.65-.27,2.95.66-.21.9Zm91.79-2.27L444,27l0-.15.9.2-.12.52-2.73,1.81ZM367.86,28l.54-.36,3.06-.09,0,.92-2.78.08-.31.21Zm7-.55,3.43-.1,0,.92-3.44.1Zm6.87-.2,3.44-.1,0,.92-3.43.1Zm6.88-.2,2.51-.07.73-.26.31.87-.81.29-2.72.1Zm6.49-1.47,3.25-1.13.3.87-3.24,1.14Zm6.49-2.27,1.23-.43,1.64-1.16.53.75-1.68,1.2-1.41.51Zm43.22.18.77-3.35.9.21-.78,3.35ZM407.3,19.76l2.8-2,.53.75-2.8,2Zm39.09-2.93.52-2.24,1.55-.54.31.86-1.08.39-.4,1.74ZM412.9,15.77l2.8-2,.54.75-2.81,2Zm38.81-2.87,3.08-1.09,1.56-2.53.78.48-1.72,2.81-3.4,1.2Zm-33.48-1.33,2.48-2.39.64.66-2.47,2.39Zm4.95-4.78,1.26-1.21,1.76-.68.31.87-1.5.54-1.19,1.15Zm31.33-2.24.67-.64,2.37,2.5-.67.64Zm-25.08-.82,3.23-1.17.32.87L429.74,4.6Zm6.47-2.34L439.13.22l.31.87-3.23,1.17ZM451.08.93h-1.49V0l1.89,0,1.34,1.42-.67.63ZM442.71.09l3.44,0V1l-3.44,0Z"/></g></g></svg>