<svg xmlns="http://www.w3.org/2000/svg" viewBox="0 0 339.05 145.48"><defs><style>.cls-1{fill:#2a3791;}</style></defs><g id="Layer_2" data-name="Layer 2"><g id="Layer_1-2" data-name="Layer 1"><path class="cls-1" d="M336.07,145.48l-.76-.36.25-.53.29-1.66.65.12Zm-3-1.42L330.88,143l.29-.59,2.21,1.05Zm-4.42-2.12-2.21-1.05.28-.6,2.22,1.06Zm-154.16-.23-.2-.63,2.33-.74.2.63Zm-2.42-.23-.17-.27-1.81-.36.13-.64,2.08.41.33.51Zm164.83-.85-.64-.11.42-2.42.65.12Zm-169.21-.25-2.41-.47.13-.65,2.4.48Zm11.47-.15-.2-.63,2.34-.73.2.62Zm145.07-.4L322,138.77l.28-.59,2.21,1.06Zm-161.36-.39-.18-.07-1.91-1.46.4-.52,1.91,1.45-.17.22Zm21-.69-.2-.62,2.33-.74.2.62Zm136-1-2.22-1.05.29-.6,2.21,1.06Zm-131.3-.44-.2-.62.27-.09,2.16-.44.13.64Zm126.79-.78-2.45-.09,0-.66,2.44.09Zm-156.47-.07-1.95-1.48.4-.53,1.95,1.49Zm151.57-.12-2.45-.09,0-.66,2.44.1Zm-117.13,0-.13-.64,2.4-.49.13.64Zm112.23-.15-2.45-.1,0-.65,2.45.09Zm-4.9-.19-2.25-.11-.3-.16.3-.58.23.12,2,.07Zm37.15-.13-.65-.11.43-2.41.65.11Zm-139.68-.51-.12-.64,2.4-.49.13.65Zm50.28-.65-1.65-1.36h-.08v-.66h.31l1.84,1.51Zm47.51-.09-2.18-1.11.3-.58,2.18,1.11Zm-93-.24-.13-.64,2.4-.49.13.65Zm47.21-.08-.66-.08.32-2.44.65.09Zm-31.85-.35-1.08-.21.13-.65,1,.21,1.35,0v.66Zm3.88-.08,0-.66,2.45,0v.66Zm4.9-.1,0-.66,2.45,0,0,.65Zm4.9-.11,0-.66,2.45-.05,0,.66Zm4.9-.1,0-.66,2.45-.05,0,.66Zm-81.88,0L153,132l.4-.52,2,1.48Zm86.78-.06v-.66l2.45,0v.66Zm-34,0-.13-.65,2.4-.49.14.64Zm7.08-.16-2.4-.49.13-.65,2.4.49Zm76.74-.85-2.19-1.11.3-.59,2.18,1.12Zm47.1-1.36-.65-.11.43-2.41.65.11Zm-187.56-.5L149.11,129l.4-.53,2,1.49Zm136.09-.36L285,129l.3-.59,2.18,1.11Zm-36.42-.74-.65-.09.25-1.87.9-.33.22.63-.52.18Zm-150.24-.81-2.34-.73.2-.62,2.34.73Zm182.29-.68-2.19-1.11.3-.59,2.19,1.12Zm-163.25-.13-.43-.15.22-.62.26.09,2-.36.12.65Zm27.63-.25L145.21,126l.4-.52,1.95,1.48Zm-44.5-.11-.5-.43,1.6-1.86.5.43Zm-6.85-.29-.56-.17-.54-2.17.64-.16.45,1.81.21.07Zm28.26-.19-.11-.64,1.61-.3.52-.39.4.53-.73.5Zm129.69,0-.22-.63,2.31-.82.22.62Zm-137-.11-2.31-.81.22-.62,2.31.81Zm220.36,0-1.52-1.93.52-.4,1.52,1.93Zm-58.73-1.07-2.19-1.11.3-.59,2.18,1.11Zm-20-.42-.22-.62,2.31-.82.22.62Zm-146.22-.08-2.31-.81.21-.62,2.32.81Zm16.29-.53-.39-.52,2-1.47.39.52Zm14.81-.11L141.32,123l.4-.52,1.95,1.49Zm-37.4-.85-.5-.43.77-.9,1.62.57-.22.62-1.19-.42ZM263,123.6l-.22-.62,2.31-.82.22.62Zm11-.16-2.19-1.12.3-.58,2.19,1.11Zm60.07-.56L332.59,121l.52-.41,1.52,1.93Zm-195-.37-2.39-.56.15-.65,2.39.57Zm-44.95-.13L93.53,120l.64-.15.59,2.37Zm173.5-.42-.22-.62,2.34-.83.22.12-.19.39.05.16Zm-135.25-.27-.39-.52,1-.76,1.45.34-.15.64-1.15-.27Zm199-2.38-2.14-1.2.33-.57,2.14,1.2Zm-238.78-.65-2.44-.24.06-.65,2.44.24Zm-4.88-.48-.87-.08-.23-.62,1.05-1.35.51.41-.74.95.34,0Zm239.39-1.27-2.14-1.2.32-.58,2.14,1.2Zm-4.28-2.4-2.13-1.2.32-.58,2.14,1.2Zm-235.14-.29L87,111.86l.63-.18.67,2.36Zm230.87-2.12-.57-.32.68-2.22.63.19-.52,1.72.1.06Zm-232.2-2.6-.53-1.86.45-.68.55.36-.29.43.45,1.57ZM320,107.4l-.63-.19.71-2.35.63.19ZM88.12,105.27l-.55-.36,1.35-2,.55.36Zm233.26-2.56-.63-.19.71-2.35.63.19ZM88.47,101.13,87.19,99l.56-.34L89,100.79ZM322.8,98l-.63-.19.71-2.34.63.19ZM85.91,97l-1.28-2.09.56-.35,1.28,2.1ZM322,93.82,320.37,92l.49-.45,1.64,1.82Zm-238.65-1-1.28-2.09.56-.35,1.28,2.09Zm235.37-2.6-1.64-1.81.48-.45,1.65,1.82ZM80.8,88.59l-.37-.65-.27-1.82.65-.1.26,1.75.29.47ZM315.64,86.7l-2.45-.17,0-.66,2.46.17Zm-4.9-.34-2.44-.16,0-.66,2.45.17Zm-4.9-.31-2.45-.15,0-.66,2.45.15Zm-4.92-.78a9.18,9.18,0,0,1-2.09-1.43l.43-.49a8.75,8.75,0,0,0,1.94,1.33ZM79.8,83.7l-.36-2.43.65-.1.36,2.43Zm217.25-1.58-.14-.14c-.5-.52-1-1-1.58-1.58l.45-.48c.56.54,1.09,1.08,1.6,1.6l.14.14Zm-218-3.27-.36-2.43.66-.1.36,2.43Zm214.43,0a15.55,15.55,0,0,0-2-1.3l.3-.58a15.61,15.61,0,0,1,2.1,1.36Zm-4.21-2.25A14.58,14.58,0,0,0,287,76l.11-.65a15.87,15.87,0,0,1,2.42.61Zm-4.76-1a6.46,6.46,0,0,1-2.37-1l.38-.54a6,6,0,0,0,2.13.88ZM78.35,74,78,71.57l.65-.09L79,73.9Zm202.31-1.51a4.76,4.76,0,0,1-.13-1.17,8,8,0,0,1,.14-1.4l.65.12a6.75,6.75,0,0,0-.14,1.28,3.94,3.94,0,0,0,.12,1Zm-203-3.34,0-.33-1.26-1.47.5-.42,1.38,1.61.08.51ZM282,67.75l-.62-.23c.25-.66.54-1.36,1-2.29l.6.28C282.52,66.41,282.23,67.1,282,67.75ZM74.73,65.49l-1.59-1.86.5-.43,1.59,1.86ZM284,63.27l-.6-.27a23.73,23.73,0,0,0,.9-2.24l.62.21C284.61,61.75,284.24,62.61,284,63.27Zm-212.4-1.5-1.44-2,.53-.38,1.4,2Zm213-3.27a4.44,4.44,0,0,0-.89-2.08l.52-.39a5.16,5.16,0,0,1,1,2.37ZM68.69,57.74l-1.42-2,.54-.38,1.42,2ZM281.9,54.85a10,10,0,0,0-2.12-1.07l.23-.62a10.54,10.54,0,0,1,2.25,1.14Zm-87.52-.37a11.71,11.71,0,0,1-1.19-.06l.07-.66a11,11,0,0,0,2.37,0l.07.65A11.28,11.28,0,0,1,194.38,54.48Zm-3.65-.54c-.5-.14-1-.31-1.51-.5-.3-.12-.58-.23-.84-.36l.28-.59c.25.11.51.23.79.33.49.19,1,.35,1.46.49Zm7.43-.09-.21-.63a20.9,20.9,0,0,0,2.24-.9l.27.6A23.43,23.43,0,0,1,198.16,53.85Zm-132.3-.11-1.42-2,.54-.38,1.41,2Zm204.41-.39-.09-.65a5.58,5.58,0,0,0,.59-.09c.61-.12,1.23-.21,1.84-.27l.07.65a17.35,17.35,0,0,0-1.78.27C270.68,53.3,270.48,53.33,270.27,53.35Zm-2.53,0a11,11,0,0,1-2.44-.65l.24-.61a10.23,10.23,0,0,0,2.29.61Zm9.73-.16a15.48,15.48,0,0,0-2.38-.25l0-.66a18.44,18.44,0,0,1,2.48.26ZM202.69,52l-.24-.61a10.6,10.6,0,0,1,2.44-.65l.09.65A10.19,10.19,0,0,0,202.69,52Zm60.36-.39a19.75,19.75,0,0,1-2-1.44l.41-.52a17.67,17.67,0,0,0,2,1.4Zm-76.74,0a4.44,4.44,0,0,1-1-2.39l.66-.08a3.75,3.75,0,0,0,.88,2Zm21.1-.28-.06-.65a4.29,4.29,0,0,0,2.09-.82l.38.54A4.87,4.87,0,0,1,207.41,51.28Zm30.18-1-.39-.52s-.26-.34-.73-.85l.48-.45c.14.16.26.3.37.41l.19-.66.63.19ZM63,49.74l-1.41-2,.54-.38,1.41,2Zm148.62-1.12-.49-.44.6-.69c.33-.38.66-.77,1-1.16l.49.44c-.35.39-.68.77-1,1.15C212,48.15,211.84,48.39,211.64,48.62Zm47.53-.17c-.56-.57-1.12-1.19-1.67-1.84l.51-.42c.53.64,1.08,1.24,1.63,1.79Zm-24.43-1.18c-.62-.53-1.26-1-1.9-1.49l.38-.54a23.08,23.08,0,0,1,1.95,1.54ZM186,46.74l-.65-.1.12-.71a16.37,16.37,0,0,0,.22-1.69l.66,0a17,17,0,0,1-.23,1.76Zm-126-.26-2.44-.27.07-.65,2.44.27Zm178.77-.38-.63-.19.69-2.35.64.19ZM55.19,45.94l-2.43-.27.07-.65,2.44.27Zm-4.87-.54-2-.22-.11-.94.65-.08,0,.43,1.49.16ZM215,45.1l-.41-.5a11.17,11.17,0,0,1,2.09-1.39l.3.59A11.06,11.06,0,0,0,215,45.1ZM249,44.84l0-.65,2.45-.09,0,.66Zm4.9-.17,0-.66,2.59-.09v.25a.56.56,0,0,1,.05.08l-.37.25v.09l-.17,0,0,0Zm-23.14-.16a17.26,17.26,0,0,0-2.19-1l.24-.62a21,21,0,0,1,2.26,1Zm15.78-.3-2.28-.91.24-.61,2.28.91Zm-27.39-1.27-.17-.63a14,14,0,0,1,2.45-.43l0,.65h0A15,15,0,0,0,219.18,42.94Zm7.12-.13a16.27,16.27,0,0,0-2.37-.33l0-.66a16.44,16.44,0,0,1,2.48.35ZM242,42.4l-2.2-.88.09-.22-.31-.09.13-.43,2.53,1Zm-56.87-.17a3.84,3.84,0,0,0-2.05-.85l.11-.65a4.42,4.42,0,0,1,2.39,1ZM47.9,41.8l-.29-2.43.65-.08.29,2.44ZM180.66,41a16.2,16.2,0,0,1-2.4-.67l.23-.62a15.77,15.77,0,0,0,2.3.65ZM176,39.36a24.18,24.18,0,0,1-2.16-1.22l.35-.56c.73.46,1.42.85,2.11,1.2ZM46.11,37.92l-1.94-1.5.4-.52,1.94,1.5ZM171.76,36.8l-.15-.09c-.65-.44-1.28-.85-1.9-1.24l.34-.56c.63.39,1.27.81,1.93,1.25l.14.09ZM42.23,34.92l-1.94-1.51.4-.51,1.94,1.5Zm125.36-.57a7.41,7.41,0,0,0-2.25-.62l.06-.66a8.43,8.43,0,0,1,2.45.67Zm-6.28-.4h-.08l-.76,0,0-.65h.82c.51,0,1,0,1.59-.07l.06.65C162.39,33.92,161.85,34,161.31,34ZM158,33.63a14.12,14.12,0,0,1-2.4-.72l.24-.61a14,14,0,0,0,2.29.68ZM29.34,32.47l-1.15-.61.3-.59.83.44,1-.59.34.57Zm9-.56-1.94-1.5.4-.52,1.94,1.51Zm115-.1a17.62,17.62,0,0,1-2-1.45l.42-.5a16.15,16.15,0,0,0,2,1.38ZM26,30.7l-1.87-1-.21,0L24,29l.38.07,1.92,1Zm6.71-.28-.34-.57,2.1-1.27.34.57ZM21.51,29.35,19.08,29l.09-.65,2.43.33Zm-4.86-.65-2.56-.34L14,28.23l.28-.19,0-.32,2.42.33Zm132.83,0c-.54-.58-1.09-1.21-1.61-1.89l.52-.4c.51.65,1,1.27,1.57,1.83ZM12.55,26.27l-1.46-2,.53-.39,1.46,2Zm133.89-1.51L146,24a9.25,9.25,0,0,0-.9-1.23l.49-.43a10.31,10.31,0,0,1,1,1.31c.15.25.31.5.47.73ZM9.63,22.33l-1.46-2L8.7,20l1.46,2Zm133.62-1a8.94,8.94,0,0,0-2.16-.91l.17-.63a9.17,9.17,0,0,1,2.33,1Zm-16.7-.56,0-.66c.71,0,1.5-.07,2.42-.16l.07.66C128.08,20.66,127.27,20.72,126.55,20.74Zm-2.49-.06a10.78,10.78,0,0,1-2.47-.5l.21-.62a10.56,10.56,0,0,0,2.32.47Zm7.4-.35-.07-.66,2.45-.25,0,.66C133.08,20.15,132.27,20.24,131.46,20.33Zm-46.19,0c-.67,0-1.32,0-2,0l0-.66c.61,0,1.25,0,1.91,0h.51v.66Zm3-.09,0-.66c.83,0,1.64-.1,2.43-.16l.06.66ZM138.73,20a18.76,18.76,0,0,0-2.41-.06l0-.66a22.26,22.26,0,0,1,2.49.06ZM80.85,20a12.25,12.25,0,0,1-2.41-.72l.27-.6a10.7,10.7,0,0,0,2.27.67Zm12.31-.13-.07-.65,2.43-.28.08.65Zm4.87-.6-.09-.66c.83-.12,1.64-.24,2.42-.37l.1.65C99.68,19,98.87,19.12,98,19.24ZM119.35,19a10,10,0,0,0-2.11-1.09l.23-.61a10.1,10.1,0,0,1,2.24,1.15Zm-16.47-.56-.11-.65,2.42-.41.11.65ZM6.71,18.39l-.56-.75H5V17H6.48l.76,1Zm69.63-.58a10.72,10.72,0,0,1-1.09-1.32l-.47-.61.51-.41c.17.2.33.42.49.63a10.54,10.54,0,0,0,1,1.25Zm31.37-.15-.1-.65c.9-.13,1.7-.24,2.45-.31l.07.65C109.38,17.43,108.6,17.53,107.71,17.66Zm-105.19,0H.6l0-.27s-.06-.3-.14-.81l.66-.1c0,.21.06.39.08.52H2.52Zm112.42-.29a16.62,16.62,0,0,0-2.2-.14h-.2v-.66h.2a16.31,16.31,0,0,1,2.29.15ZM73,14.5a6.72,6.72,0,0,0-2.27-.44l0-.66a7.48,7.48,0,0,1,2.49.49Zm-4.91-.37A15.6,15.6,0,0,1,65.82,14l.09-.65a15.76,15.76,0,0,0,2.18.17h.21v.65h-.2Zm-68,0C.05,13.26,0,12.43,0,11.63H.66c0,.78,0,1.6.12,2.42Zm63.25-.62c-.78-.19-1.58-.41-2.39-.66l.2-.62c.79.24,1.58.46,2.34.64Zm-4.73-1.42c-.76-.26-1.54-.55-2.32-.84l.23-.62c.78.3,1.55.58,2.3.84ZM54,10.31l-2.27-.94L52,8.76c.76.32,1.52.64,2.27.94ZM.73,9.2l-.66,0A19.8,19.8,0,0,1,.41,6.67l.65.14A16.81,16.81,0,0,0,.73,9.2Zm48.78-.8-2.25-1,.27-.61c.74.34,1.49.66,2.24,1ZM45,6.42l-2.25-1,.27-.6,2.24,1ZM1.78,4.55l-.6-.28A6.57,6.57,0,0,1,2.65,2.18l.45.48A6,6,0,0,0,1.78,4.55Zm38.74-.1q-1.16-.51-2.25-1l.25-.61,2.26,1ZM17.11,3.08c-.77,0-1.58-.07-2.48-.17l.08-.66c.87.1,1.67.16,2.41.18ZM19.6,3l-.08-.65a17,17,0,0,0,2.35-.46l.17.63A16.91,16.91,0,0,1,19.6,3ZM36,2.58c-.79-.31-1.56-.59-2.29-.84l.21-.62c.74.25,1.51.53,2.32.84Zm-23.81,0c-.74-.13-1.55-.29-2.41-.48l.14-.64c.86.19,1.65.34,2.39.48ZM24.4,1.77l-.2-.63.14,0c.68-.23,1.4-.46,2.2-.7l.19.63-2.19.69ZM5.09,1.61,4.94,1A6.94,6.94,0,0,1,7.49.89l-.09.65A6.09,6.09,0,0,0,5.09,1.61Zm26.29-.56A12.12,12.12,0,0,0,29,.66l0-.66a13.66,13.66,0,0,1,2.48.41Z"/></g></g></svg>