<svg xmlns="http://www.w3.org/2000/svg" viewBox="0 0 734.67 195.43"><defs><style>.cls-1{fill:#2a3791;}</style></defs><g id="Layer_2" data-name="Layer 2"><g id="Layer_1-2" data-name="Layer 1"><path class="cls-1" d="M623.78,145.14h24.39V154c2-7.58,6.33-10.19,12.27-10.19,5.46,0,9.06,2.35,11,9.14v-7.84h1.66v27h-1.66v-1.9c0-19.79-3.47-24.49-11-24.49-8.93,0-11.6,6.07-11.6,20.25V192.5H667.7v1.63H623.78V192.5h16.53V146.78H623.78Z"/><path class="cls-1" d="M313.23,195.43c-6.13,0-8.87-3.2-8.87-9.21V183c-2.86,6.41-10.59,12.41-18.46,12.41-10.8,0-15.2-5.09-15.2-11.49,0-8.43,10.87-12.54,20.27-16.4,6.93-2.87,13.39-4.83,13.39-9v-.13c0-9.21-2.2-12.8-11-12.8-10.07,0-19.33,7.25-19.33,21.16v1.44h-1.67V148.54H274V157c3.13-8.3,10.46-13.2,19.46-13.2,13.46,0,19.4,6.28,19.4,15.88v26.65c0,4.31.93,6.59,2.66,6.59,2.67,0,3.27-1.76,3.27-6.73v-4.83h1.67v5C320.5,193.34,319.1,195.43,313.23,195.43Zm-25.33-2.54c8.33,0,16.46-9.21,16.46-16.14V162.51c-2.06,2.36-6.19,3.92-12.73,6.67-8.13,3.33-11.6,5.29-11.6,11.75C280,188.12,281.17,192.89,287.9,192.89Z"/><polygon class="cls-1" points="362.74 147.89 362.74 146.26 333.58 146.26 333.58 147.89 343.9 147.89 343.9 192.5 333.58 192.5 333.58 194.13 362.68 194.13 362.68 192.5 352.43 192.5 352.43 147.89 362.74 147.89"/><path class="cls-1" d="M423.78,194.13H375.12V192.5h6.93V167.15c0-15.61,6-23.25,20-23.32,12.2-.06,19.73,6.28,19.73,17.12,0,18.55-30.66,14.89-31.19,30.7v.71h16.33c12.06,0,15.2-5.16,15.2-16.13v-1.7h1.66Zm-33.19-8.43C395.92,175.51,420,176,420,161c0-11-8.06-15.35-17.8-15.35s-11.59,5.36-11.59,21.55Z"/><path class="cls-1" d="M485.78,194.13H437.12V192.5h6.93V167.15c0-15.61,6-23.25,20-23.32,12.2-.06,19.73,6.28,19.73,17.12,0,18.55-30.66,14.89-31.2,30.7v.71h16.33c12.07,0,15.2-5.16,15.2-16.13v-1.7h1.67Zm-33.2-8.43C457.92,175.51,482,176,482,161c0-11-8.07-15.35-17.8-15.35s-11.6,5.36-11.6,21.55Z"/><path class="cls-1" d="M549.78,171.2H509.11c.2,16,4.47,22.34,17.74,22.34S548,187.86,548,175.71h1.8c0,12.8-8.4,19.72-22.93,19.72-18.47,0-27.07-8.88-27.07-25.34,0-16.91,8.27-26.26,24.73-26.26C541.71,143.83,549.91,153.57,549.78,171.2Zm-40.67-1.76h31.33c-.13-17.24-4.2-23.84-15.86-23.84C513.18,145.6,509.25,152.13,509.11,169.44Z"/><path class="cls-1" d="M714.27,166.06C701.4,162.59,699,160.64,699,154.23s3.67-8.68,11.07-8.68c8,0,15.6,6.2,15.6,17.89v.79h1.66V145.14h-1.66v9.42c-3-7.45-9.53-10.78-16.6-10.78-8.6,0-18.13,4.51-18.13,13.13,0,8.23,5.06,12.74,18.8,16.59,13.53,3.86,16.19,5.68,16.19,12,0,5.09-3.93,8.16-15,8.16-14.6,0-21.53-4.51-21.53-17.24v-2.09h-1.8v19.84h1.8v-8.21c3.08,6.62,10.19,9.46,21.73,9.46,12.79,0,23.53-4.37,23.53-13.26C734.67,175.33,730.93,170.69,714.27,166.06Z"/><polygon class="cls-1" points="252.01 156.47 252.01 133.26 256.28 133.71 253.28 156.6 252.01 156.47"/><path class="cls-1" d="M187.82,146.26h24.82c15.9,0,24,6.89,24,23.94s-8.14,23.93-23.84,23.93h-25v-1.6h6.78V147.92h-6.78ZM202.94,148v44.3h8.59c11.73,0,16-6.32,16-22.08S223.19,148,211.4,148Z"/><path class="cls-1" d="M598.77,145.14h14.67v1.63h-6.2v27c0,13.46-6.67,21.62-19.6,21.62-12.4,0-20.6-6.2-20.6-19.59V146.77h-6.26v-1.63h22.53v1.63h-7.87V175.9c0,12.54,3.94,17.31,13.27,17.18,10-.13,16.46-6.14,16.46-19.27v-27h-6.4Z"/><path class="cls-1" d="M87.06,49.54c-16.47,0-24.73,9.34-24.73,26.26,0,16.46,8.6,25.34,27.06,25.34,14.53,0,22.93-6.92,22.93-19.72h-1.8c0,12.15-8,17.83-21.13,17.83S71.86,92.91,71.66,76.91h40.66C112.46,59.28,104.26,49.54,87.06,49.54ZM71.66,75.15c.13-17.31,4.07-23.84,15.47-23.84,11.66,0,15.73,6.59,15.86,23.84Z"/><path class="cls-1" d="M171.65,58.69c-1.93-6.79-5.53-9.15-11-9.15-5.94,0-10.27,2.62-12.27,10.19V50.85H124v1.63h16.53V98.2H124v1.64h43.93V98.2H149.06V71.69c0-14.18,2.66-20.25,11.6-20.25,7.53,0,11,4.7,11,24.49v1.9h1.67V50.74h-1.67Z"/><path class="cls-1" d="M235.48,58.69c-1.93-6.79-5.53-9.15-11-9.15-5.94,0-10.27,2.62-12.27,10.19V50.85h-24.4v1.63h16.53V98.2H187.82v1.64h43.93V98.2H212.89V71.69c0-14.18,2.66-20.25,11.6-20.25,7.53,0,11,4.7,11,24.49v1.9h1.67V50.74h-1.67Z"/><path class="cls-1" d="M272.69,49.54C256.22,49.54,248,58.88,248,75.8c0,16.46,8.59,25.34,27.06,25.34,14.53,0,22.93-6.92,22.93-19.72h-1.8c0,12.15-8,17.83-21.13,17.83s-17.53-6.34-17.73-22.34H298C298.08,59.28,289.88,49.54,272.69,49.54Zm-15.4,25.61c.13-17.31,4.06-23.84,15.46-23.84,11.67,0,15.73,6.59,15.87,23.84Z"/><path class="cls-1" d="M338.48,71.82C325.62,68.36,323.22,66.4,323.22,60s3.66-8.68,11.06-8.68c8,0,15.6,6.2,15.6,17.89V70h1.67V50.85h-1.67v9.47c-3-7.44-9.53-10.78-16.6-10.78-8.6,0-18.13,4.51-18.13,13.13,0,8.23,5.07,12.74,18.8,16.59,13.53,3.86,16.2,5.69,16.2,12,0,5.09-3.93,8.16-15,8.16-14.6,0-21.53-4.51-21.53-17.24V80.05h-1.8V99.89h1.8V91.68c3.08,6.62,10.19,9.46,21.73,9.46,12.8,0,23.53-4.37,23.53-13.26C358.88,81.09,355.15,76.45,338.48,71.82Z"/><path class="cls-1" d="M0,50.86H50V71.69H48.31V63.53c0-8.75-2.2-10.9-11.79-10.9H29.25V98.2H39.38v1.64H10.6V98.2H20.72V52.63H13.46c-9.6,0-11.8,2.15-11.8,10.9v8.16H0Z"/><polygon class="cls-1" points="729.04 0.24 729.93 2.05 730.42 1.81 729.53 0 729.04 0.24"/></g></g></svg>